<svg id="Ñëîé_1" data-name="Ñëîé 1" xmlns="http://www.w3.org/2000/svg" xmlns:xlink="http://www.w3.org/1999/xlink" width="237" height="246.62" viewBox="0 0 237 246.62">
  <defs>
    <style>
      .cls-1 {
        fill: #165b9f;
      }

      .cls-2 {
        fill: #93bfeb;
      }

      .cls-3 {
        fill: url(#linear-gradient);
      }

      .cls-4 {
        fill: #1e79d4;
      }

      .cls-5 {
        fill: #bed9f3;
      }

      .cls-6 {
        fill: url(#linear-gradient-2);
      }

      .cls-7 {
        fill: #4b94dd;
      }

      .cls-8 {
        fill: #f7c003;
      }
    </style>
    <linearGradient id="linear-gradient" x1="100.25" y1="269.36" x2="93.92" y2="278.07" gradientUnits="userSpaceOnUse">
      <stop offset="0" stop-color="#a8a8a8"/>
      <stop offset="0.37" stop-color="#c1c1c1"/>
      <stop offset="0.73" stop-color="#d3d3d3"/>
      <stop offset="1" stop-color="#d9d9d9"/>
    </linearGradient>
    <linearGradient id="linear-gradient-2" x1="-5203.29" y1="269.36" x2="-5209.62" y2="278.07" gradientTransform="matrix(-1, 0, 0, 1, -4897.6, 0)" xlink:href="#linear-gradient"/>
  </defs>
  <g>
    <g>
      <path class="cls-1" d="M145,129.56s-2.93-4.78-6.5-10.56c.13-6-.36-9.51-1.74-9.93L133.5,111c-3.88-6.24-7.33-11.73-7.64-12s6.54-9.15,2.3-10.48c-3.8-1.19-18.85,5-18.85,5-2.53,1.47-1.66,11,0,20.82,0,.05-6.38,102.92-6.46,131.75,0,7.84-1.78,16.1,3.12,17.56a9.28,9.28,0,0,0,11.55-6.23s11.56-36.25,12.65-48.81c2.85-32.79,6.14-59.86,7.57-77.47Z" transform="translate(-84.47 -76.69)"/>
      <path class="cls-2" d="M117,261.76c48.4-83.39,39.47-143,38.73-143.64-.39-.35-23.3-28.28-27.54-29.61-3.8-1.19-18.85,5-18.85,5a1.74,1.74,0,0,0-.53.32C104.64,97.94,99.35,254,99.35,254,102,263,114.88,265.36,117,261.76Zm5.81-160c1.33,1.89,16.78,9,23.16,19.38-4,1.21-23.35,140.82-37.54,135.24-8.83-3.46,3.17-152.44,3.7-162.08,4.54-1.8,9.52-.83,12.44-1.47-.51,1-1.1,2-1.38,2.46C122.28,96.73,120.68,99.44,122.78,101.71Z" transform="translate(-84.47 -76.69)"/>
      <g>
        <polygon points="11.41 218.16 45.86 218.16 45.86 201.6 1.99 201.6 11.41 218.16"/>
        <path d="M113.32,263s-15.61,22.76-17.44,31.85c0,0-9.42-3.65-11.41-14.1L99.35,254Z" transform="translate(-84.47 -76.69)"/>
        <path class="cls-3" d="M103.34,277.19l-2.6,4.37-12.33-7.33L90.92,270l2.29-3.87,12.34,7.33Z" transform="translate(-84.47 -76.69)"/>
        <path class="cls-4" d="M107.55,273.76l-5,8.43h0l-.07.12a2.27,2.27,0,0,1-.33.42,5.55,5.55,0,0,1-7.23,1.57l-6.29-3.74a5.56,5.56,0,0,1-2.09-7.11,2.64,2.64,0,0,1,.22-.49l5.08-8.55a2.25,2.25,0,0,1,3.06-.85l12,7.11A2.24,2.24,0,0,1,107.55,273.76Z" transform="translate(-84.47 -76.69)"/>
        <polygon points="8.74 189.46 21.08 196.79 18.87 200.5 6.45 193.33 8.74 189.46"/>
        <polygon points="18.87 200.5 16.27 204.88 3.94 197.54 6.45 193.33 18.87 200.5"/>
      </g>
      <g>
        <path class="cls-2" d="M129.77,106.12c5.22,6.68,9.86,13.65,14.76,21l1.41,2.1L172,121.09c-2.76-4.2-5.36-8.32-7.81-12.21C156.3,96.37,147.06,84,142,82.38c-6.32,1.81-17.39,5.18-27,9h0C115.77,91.54,119.52,93,129.77,106.12Z" transform="translate(-84.47 -76.69)"/>
        <path class="cls-5" d="M164.19,108.88c2.45,3.89,5.05,8,7.81,12.21l4.08-1.27c-3-4.52-5.79-8.95-8.42-13.13-9-14.27-14.22-23.63-20.73-25.68,0,0-1.79.43-2.38.59s-2.56.78-2.56.78h0C147.06,84,156.3,96.37,164.19,108.88Z" transform="translate(-84.47 -76.69)"/>
        <path class="cls-5" d="M144.53,127.15c-4.9-7.38-9.54-14.35-14.76-21-10.25-13.11-14-14.58-14.7-14.77h0c-.2.07-2.37.85-3,1.11s-2.67,1.09-2.67,1.09,6,1.24,17.22,15.08c5.25,6.47,9.72,13.47,14.59,20.78l.74,1.11,4.08-1.28Z" transform="translate(-84.47 -76.69)"/>
      </g>
    </g>
    <g>
      <path class="cls-1" d="M261,129.56s2.93-4.78,6.5-10.56c-.13-6,.36-9.51,1.74-9.93l3.21,1.93c3.88-6.24,7.32-11.73,7.64-12s-6.55-9.15-2.3-10.48c3.8-1.19,18.85,5,18.85,5,2.53,1.47,1.65,11,0,20.82,0,.05,6.37,102.92,6.46,131.75,0,7.84,1.78,16.1-3.13,17.56a9.27,9.27,0,0,1-11.54-6.23s-11.57-36.25-12.66-48.81c-2.84-32.79-6.13-59.86-7.56-77.47Z" transform="translate(-84.47 -76.69)"/>
      <path class="cls-2" d="M306.59,254s-5.3-156-9.43-160.08a1.87,1.87,0,0,0-.53-.32s-15.05-6.24-18.85-5c-4.25,1.33-27.15,29.26-27.54,29.61-.74.66-9.68,60.25,38.73,143.64C291.06,265.36,303.93,263,306.59,254ZM282.78,95.24c-.29-.48-.87-1.47-1.38-2.46,2.92.64,7.9-.33,12.44,1.47.53,9.64,12.53,158.62,3.7,162.08-14.2,5.58-33.5-134-37.54-135.24,6.38-10.37,21.83-17.49,23.16-19.38C285.26,99.44,283.66,96.73,282.78,95.24Z" transform="translate(-84.47 -76.69)"/>
      <g>
        <polygon points="225.59 218.16 191.14 218.16 191.14 201.6 235 201.6 225.59 218.16"/>
        <path d="M292.62,263s15.61,22.76,17.44,31.85c0,0,9.41-3.65,11.41-14.1L306.59,254Z" transform="translate(-84.47 -76.69)"/>
        <path class="cls-6" d="M300.39,273.48l12.33-7.33L315,270l2.51,4.21-12.34,7.33-2.6-4.37Z" transform="translate(-84.47 -76.69)"/>
        <path class="cls-4" d="M299.11,270.68l11.95-7.11a2.23,2.23,0,0,1,3.05.85L319.2,273a3.52,3.52,0,0,1,.22.49,5.56,5.56,0,0,1-2.09,7.11L311,284.31a5.57,5.57,0,0,1-7.24-1.57,2.22,2.22,0,0,1-.32-.42l-.07-.12h0l-5-8.43A2.24,2.24,0,0,1,299.11,270.68Z" transform="translate(-84.47 -76.69)"/>
        <polygon points="228.25 189.46 215.92 196.79 218.12 200.5 230.55 193.33 228.25 189.46"/>
        <polygon points="218.12 200.5 220.72 204.88 233.06 197.54 230.55 193.33 218.12 200.5"/>
      </g>
      <g>
        <path class="cls-2" d="M276.17,106.12c-5.22,6.68-9.86,13.65-14.77,21-.46.7-.93,1.4-1.4,2.1l-26.07-8.16c2.76-4.2,5.36-8.32,7.82-12.21,7.89-12.51,17.13-24.9,22.2-26.5,6.32,1.81,17.39,5.18,27,9h0C290.17,91.54,286.42,93,276.17,106.12Z" transform="translate(-84.47 -76.69)"/>
        <path class="cls-5" d="M241.75,108.88c-2.46,3.89-5.06,8-7.82,12.21l-4.07-1.27c3-4.52,5.79-8.95,8.42-13.13,9-14.27,14.21-23.63,20.73-25.68,0,0,1.79.43,2.38.59s2.56.78,2.56.78h0C258.88,84,249.64,96.37,241.75,108.88Z" transform="translate(-84.47 -76.69)"/>
        <path class="cls-5" d="M261.4,127.15c4.91-7.38,9.55-14.35,14.77-21,10.25-13.11,14-14.58,14.7-14.77h0l3,1.11c.72.28,2.67,1.09,2.67,1.09s-6,1.24-17.22,15.08c-5.25,6.47-9.73,13.47-14.59,20.78l-.74,1.11L260,129.25C260.47,128.55,260.94,127.85,261.4,127.15Z" transform="translate(-84.47 -76.69)"/>
      </g>
    </g>
    <path class="cls-2" d="M231,105.76l-10-.09s.24-14.76,0-15.55c0,0,10.25-.8,12.54,1.46C233.49,91.58,232.57,101.8,231,105.76Z" transform="translate(-84.47 -76.69)"/>
    <path class="cls-2" d="M175.51,105.73l11.56-.06s-.24-14.76,0-15.55c0,0-6.93-2.66-12.54.67Z" transform="translate(-84.47 -76.69)"/>
    <path class="cls-2" d="M189.46,77.44c-3.88.88-14.93,13.35-14.93,13.35s5.48-.38,12.55-.69l7.55-13.23A36.4,36.4,0,0,0,189.46,77.44Z" transform="translate(-84.47 -76.69)"/>
    <path class="cls-7" d="M203,76.69s-4.32,0-8.34.18L187.08,90.1c4.95-.22,10.69-.4,15.89-.4,5.63,0,12.31.37,18,.79l-9.64-13.62C207.29,76.64,203,76.69,203,76.69Z" transform="translate(-84.47 -76.69)"/>
    <path class="cls-2" d="M216.48,77.44a36.4,36.4,0,0,0-5.17-.57L221,90.49c7.05.51,12.54,1.09,12.54,1.09S220.36,78.32,216.48,77.44Z" transform="translate(-84.47 -76.69)"/>
    <g>
      <path class="cls-4" d="M289.22,282V182a85.22,85.22,0,0,0-170.43,0V282Z" transform="translate(-84.47 -76.69)"/>
      <g>
        <path class="cls-2" d="M157.43,323.27c.6,0,1.2,0,1.8,0h89.55c.6,0,1.2,0,1.8,0a40.48,40.48,0,0,0,36.83-28.42H120.6A40.48,40.48,0,0,0,157.43,323.27Z" transform="translate(-84.47 -76.69)"/>
        <polygon class="cls-8" points="34.32 205.28 34.32 206.18 34.32 206.19 34.32 205.28 34.32 205.28"/>
        <path class="cls-7" d="M118.79,282v.91a40.47,40.47,0,0,0,1.81,12H287.41a40.54,40.54,0,0,0,1.81-12V282Z" transform="translate(-84.47 -76.69)"/>
      </g>
    </g>
    <rect class="cls-2" x="58.88" y="94.6" width="121.31" height="84.92" rx="12.77"/>
    <rect x="58.88" y="124.18" width="121.31" height="8.09"/>
    <path d="M240.82,207.85c-.37-2.16-1.8-2.4-1.94-2.36s-1.57.2-1.94,2.36c-.46,2.64-1.58,10.63-1.58,10.63a3.52,3.52,0,1,0,7,0S241.28,210.49,240.82,207.85Zm-1.94,12a1.68,1.68,0,1,1,1.68-1.68A1.69,1.69,0,0,1,238.88,219.87Z" transform="translate(-84.47 -76.69)"/>
  </g>
</svg>
