<svg xmlns="http://www.w3.org/2000/svg" xmlns:xlink="http://www.w3.org/1999/xlink" width="385.81" height="360.3" viewBox="0 0 385.81 360.3">
  <defs>
    <style>
      .cls-1 {
        fill: none;
      }

      .cls-2 {
        clip-path: url(#clip-path);
      }

      .cls-3 {
        fill: #b65676;
      }

      .cls-4 {
        fill: #b65573;
      }

      .cls-5 {
        fill: #aa4f6d;
      }

      .cls-6 {
        fill: #ae5575;
      }

      .cls-7 {
        fill: #b26680;
      }

      .cls-8 {
        fill: #ae5278;
      }

      .cls-9 {
        fill: #a0496a;
      }

      .cls-10 {
        fill: #984568;
      }

      .cls-11 {
        fill: #9e4b6f;
      }

      .cls-12 {
        fill: #cd6384;
      }

      .cls-13 {
        fill: #c05a80;
      }

      .cls-14 {
        fill: #d56283;
      }

      .cls-15 {
        fill: #c9617d;
      }

      .cls-16 {
        fill: #b9577d;
      }

      .cls-17 {
        fill: #bf6884;
      }

      .cls-18 {
        fill: #f7b5b9;
      }

      .cls-19 {
        fill: #f27e98;
      }

      .cls-20 {
        fill: #e26689;
      }

      .cls-21 {
        fill: #fbd7d1;
      }

      .cls-22 {
        fill: #f493a4;
      }

      .cls-23 {
        fill: #e36788;
      }

      .cls-24 {
        fill: #f9cacd;
      }

      .cls-25 {
        fill: #f9c9ca;
      }

      .cls-26 {
        fill: #fad1d4;
      }

      .cls-27 {
        fill: #fcdcd4;
      }

      .cls-28 {
        fill: #facfce;
      }

      .cls-29 {
        fill: #fbd7d6;
      }

      .cls-30 {
        fill: #f5a3ad;
      }

      .cls-31 {
        fill: #fad0cf;
      }

      .cls-32 {
        fill: #f9c0c2;
      }

      .cls-33 {
        fill: #facbca;
      }

      .cls-34 {
        fill: #dd688a;
      }

      .cls-35 {
        fill: #d6628a;
      }

      .cls-36 {
        fill: #cc6287;
      }

      .cls-37 {
        fill: #c7708a;
      }

      .cls-38 {
        fill: #f6a8b0;
      }

      .cls-39 {
        fill: #f8bdbf;
      }

      .cls-40 {
        fill: #f494a6;
      }

      .cls-41 {
        fill: #f17597;
      }

      .cls-42 {
        fill: #f0688f;
      }

      .cls-43 {
        fill: #f06992;
      }

      .cls-44 {
        fill: #facdc9;
      }

      .cls-45 {
        fill: #facaca;
      }

      .cls-46 {
        fill: #f8bdc2;
      }

      .cls-47 {
        fill: #facdc7;
      }

      .cls-48 {
        fill: #f1789c;
      }

      .cls-49 {
        fill: #ed7095;
      }

      .cls-50 {
        fill: #f06891;
      }

      .cls-51 {
        fill: #df7a97;
      }

      .cls-52 {
        fill: #d06b8c;
      }

      .cls-53 {
        fill: #f7b6bc;
      }

      .cls-54 {
        fill: #f496aa;
      }

      .cls-55 {
        fill: #f5a2b0;
      }

      .cls-56 {
        fill: #f281a0;
      }

      .cls-57 {
        fill: #f288a4;
      }

      .cls-58 {
        fill: #f8bec3;
      }

      .cls-59 {
        fill: #f8bdbd;
      }

      .cls-60 {
        fill: #f285a1;
      }

      .cls-61 {
        fill: #f6a6b1;
      }

      .cls-62 {
        fill: #f497ab;
      }

      .cls-63 {
        fill: #f6a8b3;
      }

      .cls-64 {
        fill: #f6adb5;
      }

      .cls-65 {
        fill: #f8bcbc;
      }

      .cls-66 {
        fill: #fff;
      }
    </style>
    <clipPath id="clip-path" transform="translate(-62.92 -60.21)">
      <polygon class="cls-1" points="399.76 247.25 390.55 220.86 379.93 204.03 365.4 182.07 338.48 156.92 308.72 140.62 270.1 131.76 232.55 131.76 185.44 137.79 148.24 156.92 110.77 190.75 97.49 230.07 99.35 266.21 119.81 291.98 148.24 296.5 166.57 319.61 192.08 343.53 221.31 349.9 254.52 335.82 268.83 333.55 283.04 352.29 305.71 368.24 325.55 357.96 362.21 338.65 367.7 320.94 395.07 301.01 402.51 276.3 399.76 247.25"/>
    </clipPath>
  </defs>
  <g id="OBJECTS">
    <g>
      <g class="cls-2">
        <g>
          <path class="cls-3" d="M391.8,356.8l-17.58,4.31c-5.05.47-9.44,0-14-.19q-54.33-2.35-108.7-4.7c-1.25-.05-2.71,0-3.44-.5a.36.36,0,0,1,0-.45c2.74-2,6.5-3.58,9.89-5.29,2.13-1.08,4.35-2.11,6.47-3.2,30.37-15.46,61.18-30.67,91.6-46.1,3.06-1.55,6.25-3,9.32-4.6a7.52,7.52,0,0,1,3.94-1.18,1.65,1.65,0,0,1,1.21.62c2.68,6.07,4.79,12.3,7,18.49,1.89,5.23,3.84,10.44,5.76,15.67s4,10.7,5.91,16.07c1,2.93,2.11,5.87,3.3,8.77A1.73,1.73,0,0,1,391.8,356.8Z" transform="translate(-62.92 -60.21)"/>
          <path class="cls-4" d="M433.89,282.42c-21.11,3.91-42.2,7.43-63.32,11.49a4.36,4.36,0,0,0-1.44.59c-.26.19-.33.36-.23.52l.76.43c1.16.82,1.74,1.87,3,2.67,7.85,5,15.65,10,23.47,15,15.54,9.91,31,19.86,46.6,29.75a5.13,5.13,0,0,0,2.4.86l3.59-.88Z" transform="translate(-62.92 -60.21)"/>
          <path class="cls-5" d="M369.66,295.45c3.27,1.36,5.45,3.25,8.12,4.9,5.83,3.61,11.43,7.33,17.15,11q12.19,7.81,24.44,15.63c6.76,4.32,13.59,8.6,20.3,12.95,1.89,1.22,4.18,2.26,5.46,3.77L391.8,356.8c-1.58-5.4-3.81-10.62-5.71-15.93-.85-2.38-1.75-4.75-2.58-7.14-1.58-4.59-3.61-9.06-5.12-13.67-.75-2.31-1.78-4.55-2.4-6.89-.71-2.62-1.89-5.12-2.73-7.7C372.16,302.1,370.49,298.89,369.66,295.45Z" transform="translate(-62.92 -60.21)"/>
          <path class="cls-6" d="M248.21,355.65q12.39.5,24.78,1,31,1.31,62.1,2.63c13.07.58,26.09,1.23,39.13,1.84L356,365.58c-12.5,2.09-24.63,2.94-36.88,4.22q-30.74,3.21-61.43,6.34c-2.89.29-5.73.45-8.62.76a3.84,3.84,0,0,1-.92,0,1.06,1.06,0,0,1-.53-.34c-.33-2.85-.09-5.81-.21-8.7-.15-3.44-.21-6.89-.1-10.37a1.94,1.94,0,0,1,.49-1.53Z" transform="translate(-62.92 -60.21)"/>
          <path class="cls-7" d="M181.87,387.32a6.39,6.39,0,0,0-1,.07c-3.6.94-7.24,1.82-10.8,2.85-13.7,4-27.52,7.63-41.25,11.53l-1.08.31,4.53,18.43,42.5-10.44a4,4,0,0,0,1.72-2c2.14-6,3.8-12,6.26-18C183.22,389,183.9,387.77,181.87,387.32Z" transform="translate(-62.92 -60.21)"/>
          <path class="cls-8" d="M174.81,410.07C175.88,407,177,404,178,401q2.15-6.29,4.22-12.56c.1-.31-.05-.58-.09-.88a3.73,3.73,0,0,1,1.87-.78q29.15-4.9,58.28-9.69c2-.33,4.36-1,5.95-.35h0c.69.58-.43,1.19-1.23,1.76-9.48,6.71-19,13.41-28.54,20.12a27.91,27.91,0,0,1-3.05,1.51Z" transform="translate(-62.92 -60.21)"/>
          <path class="cls-9" d="M248.84,376.56q22.34-2.34,44.67-4.67,30.57-3.17,61.12-6.28c.48,0,.94,0,1.41,0l-50.91,12.5c-9.4.48-18.07-.07-27-.21q-12.5-.18-24.93-.45c-1.55,0-3.3.09-4.4-.43C248.65,376.87,248.69,376.72,248.84,376.56Z" transform="translate(-62.92 -60.21)"/>
          <path class="cls-10" d="M248.91,376.84l41.07.77c4.19.08,8.39.14,12.59.21a5.65,5.65,0,0,1,2.56.26l-45.46,11.16a3.35,3.35,0,0,1-2.36-1c-3-3.15-5.44-6.53-8.57-9.64C248.28,378.09,248,377.55,248.91,376.84Z" transform="translate(-62.92 -60.21)"/>
          <path class="cls-11" d="M248.91,376.84c2,2.44,4,4.9,6.13,7.33,1.48,1.71,3.08,3.38,4.63,5.07L215.42,400.1q15.74-11.07,31.45-22.16a13.84,13.84,0,0,0,1.37-1.23l.6-.15A2.86,2.86,0,0,1,248.91,376.84Z" transform="translate(-62.92 -60.21)"/>
          <path class="cls-12" d="M368.86,294.75c0,.09,0,.18,0,.27-4,1.93-8,3.83-12,5.8q-20.38,10.24-40.69,20.52-27.54,13.88-55.11,27.72c-4.27,2.14-8.66,4.21-13,6.32l-.48-.08a2.21,2.21,0,0,1-1.2-1.6c-.62-4-2.5-7.69-3.58-11.58-1.93-6.93-4.34-13.73-6.43-20.62-1.66-5.49-3.85-10.85-5.16-16.43-.29-1.19-1.29-2.16-1.49-3.37-.13-.72-.45-1.4.28-2.25,1.29-1.07,2.93-1,4.44-1.09,9.23-.37,18.35-.57,27.51-.84L313,296q26.89-.78,53.79-1.55a6.79,6.79,0,0,1,1.86.13Z" transform="translate(-62.92 -60.21)"/>
          <path class="cls-13" d="M184,387.07l-1.82.45h0a6.56,6.56,0,0,1-3.07-.81c-5-3.36-10.55-6.42-15.59-9.76-1.66-1.1-3.81-2-5.2-3.19-.45-.41-1.14-.73-.77-1.4a2.06,2.06,0,0,1,.7-.49c4.71-1.47,9.5-2,14.24-2.9q22.35-4.23,44.7-8.39l26.16-4.89c1.34-.24,2.58-.23,3.89-.42a6.82,6.82,0,0,1,.94.09l0,0,.06.27h0c-3.38,2.68-8.35,4.55-12.74,6.68C221.65,369,208,375.82,194.09,382.5A76.74,76.74,0,0,1,184,387.07Z" transform="translate(-62.92 -60.21)"/>
          <path class="cls-14" d="M428.8,261.7c-4.06,0-8.05-.06-12.14,0q-43.55.48-87.1,1c-3.14,0-6.12-.2-9.42.07a7.29,7.29,0,0,0-3.47.67c-.57.77.24,1.11.86,1.49,4,2.51,8.22,4.95,12.33,7.42,10.92,6.6,22.05,13.09,33,19.69,1.73,1.06,3.15,2.32,6,2.76h0l1.2-.31a52.27,52.27,0,0,0,6.58-2.67c3.45-1.6,6.83-3.25,10.26-4.87,14.37-6.77,28.81-13.5,43.1-20.32Z" transform="translate(-62.92 -60.21)"/>
          <path class="cls-15" d="M429.87,266.05l-29,13.7c-10.29,4.89-20.8,9.63-30.81,14.69q10.71-1.87,21.43-3.76,13.13-2.34,26.26-4.74L434,283Z" transform="translate(-62.92 -60.21)"/>
          <path class="cls-16" d="M184,387.07c3.67-2.45,8.45-4.28,12.7-6.41,9.7-4.87,19.65-9.61,29.47-14.41,6.89-3.37,14-6.57,20.64-10.12a10.12,10.12,0,0,1,1.44-.48c.67,3.09.17,6.4.35,9.58.2,3.43.06,6.92,0,10.39a4,4,0,0,1-.35,1.08c-11.08,1.82-22.17,3.68-33.25,5.45C204.64,383.8,194.24,385.83,184,387.07Z" transform="translate(-62.92 -60.21)"/>
          <path class="cls-17" d="M179.36,385.94c-3.14-2.5-7.24-4.53-10.75-6.84s-7.37-4.35-10.75-6.68a6.83,6.83,0,0,0-3.39,1.43c-9.1,5.67-17.87,11.47-27.07,17.11l-2,1.27,2.55,10.38c7-1.94,14.09-3.83,21.12-5.79,11-3.07,22.07-6.2,33.1-9.3A22.61,22.61,0,0,1,179.36,385.94Z" transform="translate(-62.92 -60.21)"/>
          <path class="cls-18" d="M383.57,77.49l-8.65-2.82a6.08,6.08,0,0,0-3.8-.3,5.48,5.48,0,0,0-2.52,1.89c-3.13,3.15-5.73,6.35-8.8,9.51-6.8,7-13.17,14-19.76,21q-9.14,9.74-18.25,19.47c-2.52,2.69-5.05,5.38-7.49,8.08-.58.65-1.54,1.45.09,1.68a21.78,21.78,0,0,0,3.86-.39c12.12-1.83,24.26-3.8,36.38-5.68,9.3-1.44,18.58-2.77,27.9-4.45a120.81,120.81,0,0,0,12.29-2.25Z" transform="translate(-62.92 -60.21)"/>
          <path class="cls-19" d="M404.49,162.7c-6.77,3.62-13.67,7.17-20.5,10.76-11.36,6-22.69,12-34.15,17.87a2.81,2.81,0,0,0-.66.44.65.65,0,0,0-.19.48c.08.3.39.5.84.64a9.24,9.24,0,0,1,1.15.27c18.78,7.05,38.09,13.77,57.08,20.68a85.65,85.65,0,0,0,9.83,3.41Z" transform="translate(-62.92 -60.21)"/>
          <path class="cls-20" d="M427.72,257.3c-3.17-1.05-6-2.29-9-3.45-4.46-1.73-8.94-3.47-13.58-5.07-6.11-2.11-11.85-4.44-17.71-6.69-6.2-2.38-12.75-4.54-18.67-7.09-2.94-1.26-6.49-2.19-9.3-3.56a5.58,5.58,0,0,0-3.71-.45,6.13,6.13,0,0,0-2.6,1.46c-11.48,9.59-23,19.17-34.83,28.7-.8.65-1.82,1.31-1.74,2l.23.14c37.38-.37,74.89-.93,112.13-1.09Z" transform="translate(-62.92 -60.21)"/>
          <path class="cls-21" d="M150.54,122.38q-9.24-.51-18.53-1l-1.5-.08-50.9,12.5-.3.53Q73.2,144.9,67.23,155.48l3.36,13.67c26.58-14.6,53.25-29.17,79.76-43.81a16.55,16.55,0,0,0,3.06-2,.41.41,0,0,0,0-.43A6,6,0,0,0,150.54,122.38Z" transform="translate(-62.92 -60.21)"/>
          <path class="cls-22" d="M398.14,136.82c-4.31-3.6-8.69-7.18-13-10.79a2.68,2.68,0,0,0-2.66-.75,3.29,3.29,0,0,0-1.72,1.85c-4.83,10.16-9.92,20.33-15,30.5s-9.9,20.32-15.13,30.5c-.63,1.21-1.83,2.57-.65,3.55.81-.35,1.67-.68,2.41-1.06q10-5.24,20-10.48,10.88-5.7,21.76-11.39l10.52-5.48Z" transform="translate(-62.92 -60.21)"/>
          <path class="cls-23" d="M417.91,217.33a20.07,20.07,0,0,0-2.73.44c-7,1.44-14,3-20.95,4.46l-32.79,7a29.17,29.17,0,0,0-5.37,1.45l-.43.27.17.24a9.52,9.52,0,0,1,2.18.38c3.05,1.56,6.83,2.66,10.24,4,8,3.13,16.19,6.15,24.33,9.2,6.29,2.36,12.13,5,18.7,7.19,5.79,1.91,10.6,4.43,16.66,6.16Z" transform="translate(-62.92 -60.21)"/>
          <path class="cls-24" d="M289.54,83a4.37,4.37,0,0,0-.59-.63L229.65,97l0,0c-5.89,5.67-11.5,11.36-17.47,17-.47.45-1.1.94-.56,1.33a2.81,2.81,0,0,0,.85.07,23,23,0,0,0,2.4-.33c13.07-2.49,26.12-5.25,39.17-7.83q15.18-3,30.36-6.09c5-1,10.12-1.78,15.11-3.28a2.3,2.3,0,0,0,.74-.52c.46-.64.16-1.11-.23-1.55C296.26,91.65,293.07,87.28,289.54,83Z" transform="translate(-62.92 -60.21)"/>
          <path class="cls-25" d="M347,70.19c-1.71-.25-3.34-.59-5.11-.79L287.77,82.7l7.46,9.1,4.62,5.69c2.14.32,4.15-.73,6.1-1.36q23.44-7.69,46.89-15.39c5.94-1.95,12.06-3.68,17.69-6.07a8.41,8.41,0,0,0,.85-.42.29.29,0,0,0-.11-.43C363.52,72.3,355.13,71.37,347,70.19Z" transform="translate(-62.92 -60.21)"/>
          <path class="cls-26" d="M167.87,112.14c-5.14,3.16-9.4,6.58-13.88,9.94-.59.44-.63.83.16,1a17.46,17.46,0,0,0,4.37-.29c5.22-.67,10.47-1.42,15.69-2.1,11.06-1.43,22.15-3,33.2-4.38A8.39,8.39,0,0,0,211.6,115a2.93,2.93,0,0,0,1.47-1l17.8-17.32Z" transform="translate(-62.92 -60.21)"/>
          <path class="cls-27" d="M62.92,137.91l4.59,18.72,2.37-4.16q5.41-9.47,10.87-18.94Z" transform="translate(-62.92 -60.21)"/>
          <path class="cls-28" d="M340.31,69.8c8.38,1.22,16.72,2.49,25.23,3.59,1.81.23,3.21,1,5.65.57a4.11,4.11,0,0,0,2.44-2.07q3.06-5.22,6-10.43l-.31-1.25Z" transform="translate(-62.92 -60.21)"/>
          <path class="cls-29" d="M129,121.69l24.19,1.3a.65.65,0,0,0,.6-.15l5-3.69c3.33-2.42,6.68-4.83,10-7.25Z" transform="translate(-62.92 -60.21)"/>
          <path class="cls-30" d="M394.68,122.74c-4.07.86-8.14,1.74-12.22,2.31a.25.25,0,0,0-.14.13c0,.08,0,.13.2.15a7.86,7.86,0,0,1,1.12.65l14.9,12.47Z" transform="translate(-62.92 -60.21)"/>
          <path class="cls-31" d="M379.13,60.26A107.11,107.11,0,0,1,371.19,74h0a2.86,2.86,0,0,0,1.3-.12c1.59-.81,3.31-1.56,4.91-2.36,1.39-.71,2.83-1.4,4.18-2.12l-2.25-9.16Z" transform="translate(-62.92 -60.21)"/>
          <path class="cls-32" d="M381.84,70.42a52.52,52.52,0,0,0-9.44,3.25l-1.21.3c0,.09,0,.18.05.27a.32.32,0,0,0-.18.15c-.05.09,0,.13.27.14a22.07,22.07,0,0,1,2.4.42l10,3.28Z" transform="translate(-62.92 -60.21)"/>
          <path class="cls-33" d="M381.45,68.85c-2.83,1.72-6.69,2.89-9.05,4.82L382,70.92Z" transform="translate(-62.92 -60.21)"/>
          <path class="cls-34" d="M316.8,263.31c1.95,1.26,3.83,2.54,5.85,3.76q11.82,7.14,23.72,14.22c6.87,4.09,13.81,8.14,20.71,12.22.64.38,1.17.82,1.75,1.23-6.72.67-13,.55-19.45.76-23,.74-45.89,1.38-68.81,2q-21.26.61-42.47,1.19c-2.3.07-4.66.24-7,.35-.49,0-1.22.27-1.51,0a.5.5,0,0,1,.22-.46,3.47,3.47,0,0,1,.74-.41c10.21-4.41,20.67-8.58,31-12.84,16.57-6.81,33.11-13.64,49.74-20.39a24.62,24.62,0,0,1,4.56-1.66,2.63,2.63,0,0,1,.89,0Z" transform="translate(-62.92 -60.21)"/>
          <path class="cls-35" d="M229.82,299.1l1.28,0c-.95,1.32-.24,2.34.33,3.29a10.07,10.07,0,0,1,1.3,3.42c.82,4.5,2.71,8.73,4,13.11,1.8,6,3.71,12,5.66,17.93,2,6.15,4.23,12.25,5.72,18.53l-.6.15c-4.48-.22-7.58-1.53-11.21-2.42-11.4-2.79-22.65-5.7-34-8.56-10.56-2.68-21.13-5.34-31.63-8-3.08-.79-6.2-1.55-9.31-2.33-.43-.15-.71-.36-.75-.67a.77.77,0,0,1,.25-.49A17.12,17.12,0,0,1,164,331.2c20.56-10.25,41.22-20.44,61.73-30.72C226.9,299.87,228.08,299,229.82,299.1Z" transform="translate(-62.92 -60.21)"/>
          <path class="cls-36" d="M161.88,333.83c5.13.74,9.32,2.2,14,3.29,6,1.42,11.86,3,17.77,4.54,7.56,1.94,15.11,3.9,22.69,5.82,5.79,1.47,11.66,2.87,17.42,4.36,4.64,1.19,9.56,2.18,13.78,3.67l-28.1,5.19c-7.56,1.41-15.12,2.86-22.68,4.28l-29,5.39c-3.32.62-6.64,1.41-10,1.77l-.32-.08c-.53-1.57-.05-3.34.08-5,.78-10.45,1.71-20.93,2.71-31.42C160.32,335,159.91,334.31,161.88,333.83Z" transform="translate(-62.92 -60.21)"/>
          <path class="cls-37" d="M157.79,372.14a8.18,8.18,0,0,0-3,0c-10.64,1.48-21.28,2.92-31.94,4.44l-1.24.19,4,16.15c2.47-1.57,4.95-3.15,7.48-4.7,8.46-5.19,16.46-10.56,24.85-15.79l-.07-.28Z" transform="translate(-62.92 -60.21)"/>
          <path class="cls-38" d="M382.46,125.05l.06.28c-1.63,4-3.88,8.11-5.88,12.17-3.66,7.41-7,14.81-10.92,22.23-2.56,4.82-4.87,9.62-7.22,14.42-2.86,5.84-6.05,11.71-8.55,17.53l-.58.14c-1.21-.1-1.35-.7-1.68-1.2-4.83-7.25-9.47-14.55-14.22-21.82-6.57-10-13.06-20.08-19.64-30.11-.5-.77-1.06-1.52-.42-2.54.12-.09.24-.18.37-.26,7.46-1.21,14.93-2.44,22.39-3.61Q359.32,128.64,382.46,125.05Z" transform="translate(-62.92 -60.21)"/>
          <path class="cls-39" d="M371.24,74.24l.09.29c-2.81,2.91-5.84,5.81-8.36,8.74-2.8,3.25-6.26,6.43-9.08,9.67-2.6,3-5.63,5.94-8.23,8.94-3.38,3.9-7.32,7.76-11,11.63-2.67,2.82-5.5,5.64-7.88,8.47-2.69,3.2-6.12,6.33-9,9.51-1.3,1.47-2.71,2.93-4.06,4.4h0a1.93,1.93,0,0,1-1.08,0,1.48,1.48,0,0,1-1.06-1c-1.39-4.39-3.05-8.71-4.6-13.06-1.82-5.13-3.46-10.31-5.44-15.4a38.87,38.87,0,0,1-2.4-8.08c0-.3.31-.6.65-.9h0l26.2-8.59,36.7-12C365.57,76,368.3,74.94,371.24,74.24Z" transform="translate(-62.92 -60.21)"/>
          <path class="cls-40" d="M313.17,136l.61-.14c.89,2.83,3.23,5.21,4.84,7.82,3.58,5.82,7.29,11.6,11,17.37,3.16,4.89,6.45,9.72,9.66,14.59s6.46,9.82,9.65,14.74a5,5,0,0,1,.41,1.4,2.5,2.5,0,0,0,.05.29,2.25,2.25,0,0,1-.79.39c-11.47,2-22.89,3.61-34.33,5.37l-37.08,5.73c-3.94.61-7.87,1-11.84,1.81a6.58,6.58,0,0,1-2.82.05.62.62,0,0,1-.47-.54c3.05-4.79,6.86-9.58,10.34-14.37q8.47-11.69,17.13-23.35c5.52-7.46,10.87-14.93,16.48-22.39,1.76-2.34,3.55-4.69,5.22-7a5,5,0,0,1,1.5-1.56Z" transform="translate(-62.92 -60.21)"/>
          <path class="cls-41" d="M348.83,192.26l.59-.15.76.42c.62.29,1.12.62,1.21,1.12.84,4.49,1.41,9,2.19,13.56.7,4.12,1.2,8.29,1.91,12.41.48,2.79.7,5.63,1.4,8.36a2.37,2.37,0,0,1-1.15,2.9h0a6.54,6.54,0,0,1-3.45.74c-17.54.83-35.16,1.83-52.7,2.67-15.49.73-31.08,1.65-46.56,2.37-1.63.07-3.41.31-4.65-.13-.15-.23.06-.47.42-.72,11.81-5.43,24-10.6,36-15.89q29-12.78,58-25.5A30.86,30.86,0,0,1,348.83,192.26Z" transform="translate(-62.92 -60.21)"/>
          <path class="cls-42" d="M417.72,216.58q-28.46-10.29-57-20.53c-3.43-1.22-6.44-2.72-10.54-3.52-.53,3.39.95,6.34,1.22,9.55.4,4.77,1.43,9.41,2.12,14.12.7,4.9,1.81,9.71,2.22,14.68a125.75,125.75,0,0,0,13-2.64c7.67-1.83,15.36-3.15,23-4.94,8.73-2,17.5-3.79,26.26-5.65Z" transform="translate(-62.92 -60.21)"/>
          <path class="cls-43" d="M248.49,236.45l33-1.74,43-2.24,31.26-1.59c0,.1.05.19.07.28l-9.64,7.94-29.39,24.2-.3.08-.3.07a3,3,0,0,1-.78-.08c-4.79-2.24-10.47-3.94-15.63-5.95-4.85-1.89-9.74-3.75-14.36-5.78C278.3,248.52,270.23,246,263,243c-3.44-1.44-6.9-2.86-10.27-4.34a25.32,25.32,0,0,0-4.32-1.28c-.42-.14-.71-.32-.62-.65A1,1,0,0,1,248.49,236.45Z" transform="translate(-62.92 -60.21)"/>
          <path class="cls-44" d="M153.23,123.27c-4.37,2.35-8.78,4.67-13.1,7q-18.5,10.16-36.94,20.34-14.89,8.21-29.82,16.4l-2.91,1.58,2.11,8.61c10.24,0,20.43.13,30.67.14,6.91,0,13.68.23,20.78,0a5.77,5.77,0,0,0,1.39-.43,2.94,2.94,0,0,0,1-.71c2.22-3.73,4-7.44,6-11.16,7.19-13.28,13.9-26.55,21.08-39.83C153.8,124.48,154.48,123.66,153.23,123.27Z" transform="translate(-62.92 -60.21)"/>
          <path class="cls-45" d="M125.76,176.34c.42-2.33,2.21-4.74,3.43-7.12,4.42-8.58,9-17.18,13.57-25.77,3.2-6,6.44-12.09,9.64-18.13.36-.69.55-1.37.83-2l-.06-.28.6-.15q19.29-2.59,38.56-5.19c4.92-.66,9.83-1.26,14.74-1.84a33.74,33.74,0,0,0,4.53-.85c0,.09.05.19.07.28s.25.1.27.19,0,.14,0,.15c-3.1,2.82-7.2,5.41-11,8.07-17.33,12.23-34.45,24.52-51.78,36.76-6.91,4.89-13.67,9.82-20.69,14.67A4.54,4.54,0,0,1,125.76,176.34Z" transform="translate(-62.92 -60.21)"/>
          <path class="cls-46" d="M211.73,115.52l-.06-.28,25.75-5.18c5.26-1.06,10.51-2.15,15.77-3.21,8.28-1.66,16.56-3.28,24.84-4.95,5.46-1.09,10.91-2.25,16.37-3.36,1.82-.37,3.63-.7,5.45-1,0,.19.1.38.14.57-2.27,4.57-6.34,9.14-9.72,13.7-8.6,11.59-17.44,23.18-26.13,34.78a5.65,5.65,0,0,1-2.21,2.16,3.67,3.67,0,0,1-.87.2c-2.37-.42-3.38-1.58-4.75-2.51-7.81-5.33-15.4-10.75-23.37-16-6.95-4.57-13.35-9.4-20.52-13.88C212,116.25,211.63,116,211.73,115.52Z" transform="translate(-62.92 -60.21)"/>
          <path class="cls-47" d="M106.62,176.91q-17.07-.15-34.18-.2L75.71,190q2.7-.67,5.4-1.38c13-3.41,26.09-6.8,39.18-10a8.06,8.06,0,0,0,3.73-1.53C118.36,176.82,112.42,177,106.62,176.91Z" transform="translate(-62.92 -60.21)"/>
          <path class="cls-48" d="M247.91,236.61l.72.41c1,1.17,0,2.68-.44,4.06-3.42,12.16-7,24.35-10.55,36.53-1.72,6-3.47,12-5.16,17.94a3.88,3.88,0,0,1-2.12,3.11l-.6.16a6,6,0,0,1-3.31-.31c-17.55-5.33-35.2-10.58-52.77-15.89-12.05-3.65-24.16-7.25-36.17-10.91-.51-.15-1-.27-1.6-.39a1.24,1.24,0,0,1-.75-.43.53.53,0,0,1,.14-.51,4.82,4.82,0,0,1,1.66-.9c7.93-2.53,16-4.87,24-7.28,9.88-3,19.74-6,29.62-8.93l36.45-11q8.59-2.58,17.18-5.19A7.24,7.24,0,0,1,247.91,236.61Z" transform="translate(-62.92 -60.21)"/>
          <path class="cls-49" d="M136.16,271c5,.81,8.78,2.42,13.08,3.7,11.21,3.32,22.34,6.7,33.5,10l33,9.94c4.65,1.4,9.32,2.78,14,4.17l.06.28c-6.61,3.26-13.25,6.51-19.84,9.78l-47.27,23.56c-.51.25-1.09.46-1.64.69-.74.22-.94,0-1.1-.22-2.26-4.27-3.57-8.8-5.5-13.16-2.55-5.76-4.65-11.63-7.09-17.42-2.15-5.11-4-10.3-6.09-15.42-1.87-4.58-3.62-9.19-5.61-13.74C135.38,272.5,134.93,271.84,136.16,271Z" transform="translate(-62.92 -60.21)"/>
          <path class="cls-50" d="M230.36,298.66c1.23-4.1,2.5-8.21,3.7-12.31,2-6.8,4-13.6,5.88-20.38,2.1-7.67,4.64-15.38,6.57-23,.48-1.93.58-3.87,2.12-5.92a8.81,8.81,0,0,1,4.87,1.15c6.06,2.71,12.27,5.32,18.9,7.68,9.56,3.41,18.29,7.32,27.45,11,4.8,1.91,10.48,3.27,14.77,5.5a4.76,4.76,0,0,1,1.56,1.13L278.6,279q-14.1,5.8-28.23,11.59C243.72,293.28,237,296,230.36,298.66Z" transform="translate(-62.92 -60.21)"/>
          <path class="cls-51" d="M160.39,333c-.49-.63-1.9-.5-3-.55-9.5-.44-19.16-.69-28.74-1.05l-18.34-.67,11.18,45.52c.26-.29.48-.59.74-.86,10.7-11.3,21.44-22.59,32.1-33.89,2.52-2.68,5.57-5.34,6.85-8.09a2.3,2.3,0,0,1-.06-.28Z" transform="translate(-62.92 -60.21)"/>
          <path class="cls-52" d="M161.88,333.83l-.75-.42c-11.83,12.44-23.61,24.89-35.51,37.33-1.51,1.58-2.69,3.2-4.36,4.76l.44,1.79c4.63-.75,9.21-1.22,13.84-1.93,7.43-1.15,14.78-1.88,22.25-3.22.21-.57.67-1.2.6-1.71-.38-2.75.23-5.69.47-8.55s.64-5.94.9-8.9.53-5.73.53-8.55a53,53,0,0,1,.84-7.62C161.28,335.86,160.14,335,161.88,333.83Z" transform="translate(-62.92 -60.21)"/>
          <path class="cls-53" d="M261.65,148.69c3.44-4.61,6.81-9.22,10.46-13.83,3.05-3.86,5.61-7.75,8.51-11.62s6-7.69,8.9-11.54,5.63-7.64,8.41-11.46A6.21,6.21,0,0,1,300,98.07c2.2,5,3.32,10.33,5.62,15.32a53,53,0,0,1,2.16,6.64c1.05,3.33,2.46,6.57,3.4,9.93.58,2,1.49,4,2,6.08h0a11.87,11.87,0,0,1-4.39,1.68c-10.18,2.5-20.34,5-30.52,7.49-4.14,1-8.1,2.47-12.28,3.32C264.38,148.87,262.69,149.35,261.65,148.69Z" transform="translate(-62.92 -60.21)"/>
          <path class="cls-54" d="M262.56,204.73c0,.18.09.37.13.56a1.84,1.84,0,0,1-.66.54c-2.58,1.44-5.79,2-8.71,2.85-14.13,4-28.19,8.24-42.3,12.34-13.8,4-27.62,8-41.37,12.12a33.85,33.85,0,0,1-7.77,1.85c-1.74-.31-.53-1.13.22-1.83,3.45-3.24,7.31-6.41,11.09-9.59,11-9.24,21.72-18.52,32.6-27.78,11.43-9.72,22.73-19.46,34.08-29.19,5.64-4.84,11.51-9.64,16.89-14.53a17.76,17.76,0,0,1,2.53-2c.9-.55,1.85-1,2.75-.49,1.22,1.11.61,2.65.62,4,.12,8.83.28,17.64.4,26.47.1,7.09.12,14.19.48,21.23A8.52,8.52,0,0,1,262.56,204.73Z" transform="translate(-62.92 -60.21)"/>
          <path class="cls-55" d="M262.56,204.73c-.59-3.64-.29-7.46-.39-11.19-.08-3.1-.11-6.21-.15-9.31,0-3.45,0-6.91-.11-10.36-.07-3.29-.28-6.56-.34-9.87-.07-4.13,0-8.29-.08-12.43a15.61,15.61,0,0,0-.31-2.16c-.37,0-.44-.18-.35-.39l.22-.18.6-.15a37,37,0,0,0,8.72-1.88c9.44-2.82,19.08-4.82,28.6-7.27,4.73-1.21,9.48-2.33,14.21-3.49-1.74,3.17-4.51,6.32-6.85,9.48-1.84,2.48-3.49,5-5.26,7.46-1.59,2.21-3.2,4.43-4.85,6.65-2.58,3.49-5.19,7-7.79,10.47-4.49,6-9,12-13.46,18.06-3.17,4.32-6.17,8.64-9.33,13C264.76,202.33,263.59,203.53,262.56,204.73Z" transform="translate(-62.92 -60.21)"/>
          <path class="cls-56" d="M262.1,205.44l.59-.15c8.14-1.23,16.27-2.44,24.41-3.7q18.57-2.86,37.14-5.78,11.61-1.8,23.21-3.54a9.09,9.09,0,0,1,1.38,0c-6,2.69-11.91,5.4-17.93,8.05q-16,7.06-32.13,14.08-16.89,7.38-33.79,14.75c-4.13,1.8-8.19,3.66-12.29,5.49A20.12,20.12,0,0,1,249,236c-1.24-.28-.89-1-.58-1.69,2.46-5.37,4.79-10.74,7.38-16.12,1.73-3.58,3-7.14,4.66-10.73A4.44,4.44,0,0,1,262.1,205.44Z" transform="translate(-62.92 -60.21)"/>
          <path class="cls-57" d="M262.1,205.44a95.36,95.36,0,0,1-4.74,10.95c-1.89,4-3.45,7.9-5.18,11.85-1.14,2.6-2.58,5.23-3.15,7.78l-.54.43-.58.16-18.32,5.5L210.1,248l-24.79,7.49q-12.12,3.65-24.24,7.26l-23.36,7a10.81,10.81,0,0,1-1.16.22c-1.19-.38-.44-1.15,0-1.81,6.25-8.8,12.35-17.6,18.59-26.4,1.51-2.13,2.84-4.27,4.53-6.4a2.5,2.5,0,0,1,1.61-.64c2.39,0,4.57-1.11,6.78-1.72,7.23-2,14.37-4.26,21.56-6.38,5.1-1.51,10.24-2.95,15.35-4.44l29.6-8.63,24-6.94C259.79,206.25,260.94,205.83,262.1,205.44Z" transform="translate(-62.92 -60.21)"/>
          <path class="cls-58" d="M211.73,115.52c2.64.77,3.85,2.23,5.72,3.38,4,2.44,7.56,5.06,11.3,7.6,2.95,2,6.15,3.89,8.92,6,3.59,2.71,7.53,5.26,11.35,7.87,4.1,2.79,8,5.66,12,8.49h0a10.18,10.18,0,0,1-4.12,1.59c-8.62,1.76-17.24,3.55-25.86,5.31-8.31,1.7-16.63,3.37-24.94,5.07l-26.47,5.41q-12.46,2.55-24.94,5.11c-8.32,1.73-16.64,3.37-24.95,5.12a14.75,14.75,0,0,1-4.16.44l-.4-.13.54-.43q11.62-8.26,23.26-16.52c8.81-6.24,17.68-12.47,26.47-18.71,6.65-4.72,13.21-9.47,19.82-14.2q7.63-5.47,15.33-10.93A6.62,6.62,0,0,1,211.73,115.52Z" transform="translate(-62.92 -60.21)"/>
          <path class="cls-59" d="M160.5,232.78c-2.07-3.65-4.41-7.22-6.6-10.84-3.72-6.16-7.49-12.31-11.24-18.46q-7.74-12.71-15.45-25.44a2.49,2.49,0,0,0-1.95-1.27h0l-1.2.29c-7.12,1.82-14.27,3.52-21.36,5.51-9,2.51-18.08,4.44-27.08,6.9l5,20.54c23.47,7.62,47,15.19,70.39,22.87,2.09.69,4.22,1.35,6.41,2,.71.21,1.41.86,2.94,0A1.45,1.45,0,0,0,160.5,232.78Z" transform="translate(-62.92 -60.21)"/>
          <path class="cls-60" d="M160.57,331.38c-2-4.68-4-9.34-5.93-14.05-2-5-3.75-10.18-5.9-15.19-2.22-5.17-4.15-10.41-6.27-15.6-.64-1.59-1.21-3.19-1.84-4.78-1.42-3.62-3-7.2-4.47-10.8l-.69-.14a7.4,7.4,0,0,0-3.73,1.77q-11.1,7.94-22.33,15.83l-8.13,5.73,9.12,37.15,17,.6q16.45.57,32.95,1.1C161.18,332.34,160.77,331.87,160.57,331.38Z" transform="translate(-62.92 -60.21)"/>
          <path class="cls-61" d="M153.05,236.23c-2.76.46-5.45,1.31-8.19,1.87-13,2.64-25.85,5.85-38.78,8.7q-7.78,1.71-15.58,3.46l4.56,18.58,12.49.65c9,.46,17.76,1.26,27.08,1.36a2.08,2.08,0,0,0,.79-.31l1.13-.59a5.91,5.91,0,0,1,1.32-2.37c2.18-3.13,4.4-6.27,6.62-9.4,4-5.63,8.13-11.26,11.94-16.89,1.35-2,3.4-4,3.77-6C157.92,235.14,155.38,236.12,153.05,236.23Z" transform="translate(-62.92 -60.21)"/>
          <path class="cls-62" d="M134.8,270.69a11.46,11.46,0,0,0-4.15.86l-12.25,4.1-20,6.74,3,12.34c5.72-4.05,11.38-8.12,17.19-12.15,5.64-3.91,10.84-7.95,16.86-11.76a2.74,2.74,0,0,1-.05-.28Z" transform="translate(-62.92 -60.21)"/>
          <path class="cls-63" d="M132.94,270.3c-5-.19-10-.51-15-.81-7.65-.46-15.36-.85-23.07-1.24l3.61,14.69,3.51-1.19q16.38-5.55,32.76-11.06A9.56,9.56,0,0,0,132.94,270.3Z" transform="translate(-62.92 -60.21)"/>
          <path class="cls-64" d="M160.2,235.28c-2.26.4-4.49,1.41-6.77,1.36a8.59,8.59,0,0,1,6.06-1.49c1.37-1.56-.39-2.37-1-3.4-2.84-4.92-6.1-9.72-9.07-14.61-3.49-5.75-6.77-11.57-10.25-17.32-2.57-4.25-5.38-8.42-8-12.67-2.09-3.43-4-6.91-6-10.38q13.19-2.66,26.36-5.33l17-3.51q13.65-2.77,27.28-5.54c5.66-1.16,11.32-2.36,17-3.52,8.79-1.79,17.59-3.46,26.37-5.35,7.27-1.58,14.58-2.84,21.83-4.67l.12.56c-4.55,3.21-8,6.63-11.92,10-2.75,2.35-5.6,4.7-8.27,7.08-5.78,5.17-12.09,10.26-18.11,15.39-9.34,7.95-18.62,15.92-27.93,23.88-6.9,5.9-13.83,11.8-20.7,17.71-4.36,3.75-8.63,7.51-12.94,11.27Z" transform="translate(-62.92 -60.21)"/>
          <path class="cls-65" d="M158.57,234.57c-4.48-1.45-9-2.87-13.46-4.32L83.05,210.1l-2.62-.85L90.68,251c7.18-1.61,14.37-3.21,21.53-4.89,13.73-3.22,27.51-6.16,41.22-9.46l6.06-1.49A3.52,3.52,0,0,0,158.57,234.57Z" transform="translate(-62.92 -60.21)"/>
        </g>
      </g>
      <line class="cls-66" x1="169.73" y1="278.36" x2="170.79" y2="278.36"/>
    </g>
  </g>
</svg>
