<svg id="OBJECTS" xmlns="http://www.w3.org/2000/svg" width="254.09" height="358.18" viewBox="0 0 254.09 358.18">
  <defs>
    <style>
      .cls-1 {
        fill: #ffd01f;
      }

      .cls-2 {
        fill: #ffc400;
      }

      .cls-3 {
        fill: #fff;
      }

      .cls-4 {
        fill: #1d262d;
      }
    </style>
  </defs>
  <g>
    <g>
      <path class="cls-1" d="M122.7,197c0-69.71,57-126.22,126.69-126.22S376.8,127.33,376.8,197c0,33-14.36,63-34.48,85.44-17.74,19.82-28.25,45-28.25,71.62v4.57H185.68v-4.51c0-26.65-10.57-51.91-28.37-71.75C137.15,259.94,122.7,230,122.7,197Z" transform="translate(-122.7 -70.82)"/>
      <path class="cls-2" d="M264.55,306.15c-63.55,0-112.89-65.24-108.71-125C160.23,118.34,211.82,77,271,72.8a127.67,127.67,0,0,0-21.64-2C179.68,70.82,122.7,127.33,122.7,197c0,32.93,14.45,62.9,34.61,85.37,17.8,19.84,28.37,45.1,28.37,71.75v4.5H314.07V354.1c0-26.59,10.51-51.8,28.25-71.62.58-.65,1.1-1.36,1.68-2C321.9,296.9,293.92,306.15,264.55,306.15Z" transform="translate(-122.7 -70.82)"/>
    </g>
    <path class="cls-3" d="M338.08,176.72c-3.23-14.11-9.66-28.56-22.81-35.83-6-3.32-11.66,2.44-9.45,8.5,4.55,12.46,8.75,23.84,8.78,37.28,0,11.29-3.27,23.13,1.52,33.7,3.75,8.29,13.83,6.83,18.72,1C344.1,210.28,341.08,189.78,338.08,176.72Z" transform="translate(-122.7 -70.82)"/>
    <path class="cls-3" d="M277.94,99.72c-18.16,0-19.73,28.25-1.48,28.25S296.19,99.72,277.94,99.72Z" transform="translate(-122.7 -70.82)"/>
    <path class="cls-4" d="M186.94,358.06v10.43c0,12.47,7.29,22.57,19.69,22.83,3.14,21.29,20,37.68,42.11,37.68s39.91-16.39,43.05-37.68a22.5,22.5,0,0,0,22-22.83V358.06Z" transform="translate(-122.7 -70.82)"/>
  </g>
</svg>
