<svg id="Layer_1" data-name="Layer 1" xmlns="http://www.w3.org/2000/svg" width="213.15" height="323.46" viewBox="0 0 213.15 323.46">
  <defs>
    <style>
      .cls-1 {
        fill: #ffdb2f;
      }

      .cls-2 {
        fill: #595959;
      }

      .cls-3 {
        fill: #fff;
      }
    </style>
  </defs>
  <g>
    <path class="cls-1" d="M331.58,184A106.61,106.61,0,0,0,212.8,78.05C165,83.35,126,121.26,119.46,168.87A106.43,106.43,0,0,0,174.6,277.73a26.32,26.32,0,0,1,13.83,23.18v29.67h68.41V303.46a26.17,26.17,0,0,1,14.65-23.59A106.57,106.57,0,0,0,331.58,184Z" transform="translate(-118.42 -77.37)"/>
    <path class="cls-2" d="M248.23,220.1c-3.12,4.32-8.2,10.37-12.46,10.1-2.11-.13-3.57-2-4.52-4.11-9-19.71-5.85-8.54-16.07-1.94-5.91,3.81-9.63,1.27-12.86-2.23-3-3-4.44-.33-4.44.93L211,330.08H234.1l17.41-109C252,219.53,250,218.5,248.23,220.1ZM232.09,323.66H213.36l-11.71-99.28s5.83,6.49,13.29,2.56c5.56-2.94,7.89-9.27,9.32-9.17s2.33,4.19,6.23,11.29c5.72,10.41,17.09-4.25,17.09-4.25Z" transform="translate(-118.42 -77.37)"/>
    <path class="cls-3" d="M205.33,127.32a25.46,25.46,0,1,1-25.46-25.45A25.46,25.46,0,0,1,205.33,127.32Z" transform="translate(-118.42 -77.37)"/>
    <path class="cls-2" d="M251.54,340.19H195.7c-8.74,0-15.83-4.48-15.83-10V330c0-5.52,7.09-10,15.83-10h55.84c8.74,0,15.83,4.49,15.83,10v.2C267.37,335.71,260.28,340.19,251.54,340.19Z" transform="translate(-118.42 -77.37)"/>
    <path class="cls-2" d="M251.54,360.4H195.7c-8.74,0-15.83-4.48-15.83-10v-.19c0-5.53,7.09-10,15.83-10h55.84c8.74,0,15.83,4.48,15.83,10v.19C267.37,355.92,260.28,360.4,251.54,360.4Z" transform="translate(-118.42 -77.37)"/>
    <path class="cls-2" d="M251.54,380.61H195.7c-8.74,0-15.83-4.48-15.83-10v-.21c0-5.52,7.09-10,15.83-10h55.84c8.74,0,15.83,4.48,15.83,10v.21C267.37,376.13,260.28,380.61,251.54,380.61Z" transform="translate(-118.42 -77.37)"/>
    <path class="cls-2" d="M251.54,400.83H195.7c-8.74,0-15.83-4.48-15.83-10v-.2c0-5.53,7.09-10,15.83-10h55.84c8.74,0,15.83,4.48,15.83,10v.2C267.37,396.35,260.28,400.83,251.54,400.83Z" transform="translate(-118.42 -77.37)"/>
  </g>
</svg>
