<svg id="Layer_1" data-name="Layer 1" xmlns="http://www.w3.org/2000/svg" viewBox="0 0 772.41 711.14"><defs><style>.cls-1{opacity:0.7;}.cls-2,.cls-3{fill:#93edf2;}.cls-2{opacity:0.33;}.cls-3{opacity:0.59;}.cls-4{fill:#fff;}.cls-5{fill:#47bec4;}.cls-6{fill:#3ea0f3;}.cls-7{fill:#9fd167;}.cls-8{fill:#243346;}.cls-9{fill:#fa8181;}.cls-10{fill:none;stroke:#243346;stroke-linecap:round;stroke-linejoin:round;stroke-width:6.99px;}</style></defs><g id="Shine"><g class="cls-1"><circle class="cls-2" cx="954.28" cy="540.99" r="354.55" transform="translate(-676.55 648.83) rotate(-45)"/><circle class="cls-2" cx="380.76" cy="356.59" r="309.7"/><circle class="cls-3" cx="954.28" cy="540.99" r="261.31" transform="translate(-676.55 648.83) rotate(-45)"/></g><path class="cls-4" d="M851.83,277.14a4.88,4.88,0,1,1-4.88-4.88A4.89,4.89,0,0,1,851.83,277.14Z" transform="translate(-573.52 -184.41)"/><path class="cls-5" d="M583.27,659.91a4.88,4.88,0,1,1-4.88-4.88A4.87,4.87,0,0,1,583.27,659.91Z" transform="translate(-573.52 -184.41)"/><path class="cls-4" d="M582,438.91a4.88,4.88,0,1,1-5.45,4.22A4.88,4.88,0,0,1,582,438.91Z" transform="translate(-573.52 -184.41)"/><polygon class="cls-5" points="685.46 0.69 688.12 9.79 697.22 12.45 688.12 15.1 685.46 24.2 682.8 15.1 673.7 12.45 682.8 9.79 685.46 0.69"/><polygon class="cls-5" points="16.56 104.85 19.21 113.95 28.32 116.61 19.21 119.27 16.56 128.37 13.9 119.27 4.8 116.61 13.9 113.95 16.56 104.85"/><polygon class="cls-4" points="88.26 0 90.92 9.1 100.02 11.76 90.92 14.42 88.26 23.52 85.6 14.42 76.5 11.76 85.6 9.1 88.26 0"/><polygon class="cls-4" points="760.65 221.51 763.31 230.61 772.41 233.27 763.31 235.93 760.65 245.03 758 235.93 748.89 233.27 758 230.61 760.65 221.51"/><polygon class="cls-4" points="449.94 59.68 452.59 68.78 461.69 71.44 452.59 74.1 449.94 83.2 447.28 74.1 438.18 71.44 447.28 68.78 449.94 59.68"/><polygon class="cls-4" points="74.94 619.88 77.6 628.98 86.7 631.64 77.6 634.3 74.94 643.4 72.28 634.3 63.18 631.64 72.28 628.98 74.94 619.88"/><polygon class="cls-4" points="658.32 642.65 660.98 651.75 670.08 654.41 660.98 657.07 658.32 666.17 655.66 657.07 646.56 654.41 655.66 651.75 658.32 642.65"/><polygon class="cls-5" points="756.89 524.04 759.55 533.14 768.65 535.79 759.55 538.45 756.89 547.55 754.23 538.45 745.13 535.79 754.23 533.14 756.89 524.04"/></g><g id="Earth"><path class="cls-6" d="M1016.25,733.25c-5.44-19.39,3.82-40.13,3.82-40.13,4.44-15.33,20.28-20.86,29.37-22.94,12.19-2.78,24.09-9.52,29.67-27.33s53.29-5.65,62.92.39c3,1.86,11.14,4.26,20.93,7.39a229.26,229.26,0,0,0,22.89-62.79,27,27,0,0,1-7.32-.41c-25.63-4.53-24.12-35.43-24.12-46.73s-29-19.28-32.22-10.49c-1.31,3.62,4.92,15.39,6.43,19.16s4.68,22.23-19.44,21.47-35.42-41.45-35.42-60.29,18.84-12.82,36.18-12.82,6.78-12.06,0-21.86-15.08,6.79-18.09,10.56c-2.22,2.77-29.31-.17-43.48-1.92a26.93,26.93,0,0,0-16,3c-12.09,6.48-35.33,18.31-43,17.76-10.55-.75-15.08-20.35-16.58-32.41-1.1-8.77,32-55.36,50.24-80.16a53.93,53.93,0,0,1,30.62-20.52c18.23-4.45,35.51-7.85,51.62-10.44a230.63,230.63,0,0,0-76.86-41.25q-10.85-3.37-22.13-5.69a233.16,233.16,0,0,0-93.06,0q-11.27,2.31-22.13,5.69a229.09,229.09,0,0,0-36.45,14.88q-10,5.1-19.33,11.11-2.34,1.5-4.65,3.06-4.61,3.1-9,6.44c-1.15.85-2.27,1.73-3.4,2.61.72.36,1.45.74,2.17,1.15,30.21,17.26,48.09,15.41,28.36,39.45s-26.51,30.83-13,41.31S849.26,438,857,430s24.38-8.63,33,10.48,22.81,28.36,0,46.23S840.08,533,824.67,532.35s-29,1.24-24,20.35,21,27.74,35.76,31.44,95.55,23.42,98,47.47-53,104.8-53.63,125.14c0,.43,0,.85,0,1.26q5.12,1.86,10.32,3.49,10.85,3.38,22.13,5.69a233.16,233.16,0,0,0,93.06,0c6.91-1.41,13.69-3.15,20.35-5.16C1021.83,754.08,1019.34,744.26,1016.25,733.25ZM953.06,406c-5.22,3.73-1.49,27.6-23.12,23.12s-20.89-20.89-20.14-38.79S894.25,367.2,877.72,365C863.16,363,868,349.3,868,349.3c3.94-12.09,13.43-13.81,33.56-13.43,41.29.78,46.86-20,81.31-8.21,18.36,6.27,2.24,16.41-3.73,49.24S958.28,402.26,953.06,406Z" transform="translate(-573.52 -184.41)"/><path class="cls-6" d="M847.48,678.66c-13.84-2.68-38-11.16-28.13-28.58s14.29-25,12.06-29.48-9.16-10.12-14.52-24-32.6-18.51-41.54-23.55-13.68-7.42-20.35-31.54c-5.9-21.34-6.23-64.68-11.79-80.9A229.08,229.08,0,0,0,731.63,505c-.08.51-.16,1-.23,1.52A232.9,232.9,0,0,0,728.84,541a230.48,230.48,0,0,0,88.34,181.64c1.45,1.15,2.92,2.27,4.4,3.38q4.44,3.33,9,6.44,2.31,1.54,4.65,3c4.23,2.72,8.57,5.29,13,7.73A137,137,0,0,1,850.61,726C854.63,705,861.33,681.34,847.48,678.66Z" transform="translate(-573.52 -184.41)"/><path class="cls-7" d="M934.4,631.61c-2.47-24.05-83.23-43.77-98-47.47s-30.83-12.33-35.76-31.44,8.63-21,24-20.35S867.2,504.61,890,486.73s8.63-27.12,0-46.23S864.74,422,857,430s-7.67,21-21.24,10.48-6.78-17.26,13-41.31,1.85-22.19-28.36-39.45c-.72-.41-1.45-.79-2.17-1.15-3.25,2.52-6.45,5.13-9.56,7.82a232.33,232.33,0,0,0-27.06,27.72q-1.77,2.13-3.48,4.32a230.76,230.76,0,0,0-34.87,62.2h0c5.56,16.22,5.89,59.56,11.79,80.9,6.67,24.12,11.42,26.51,20.35,31.54s36.18,9.7,41.54,23.55,12.28,19.49,14.52,24-2.24,12.06-12.06,29.48,14.29,25.9,28.13,28.58S854.63,705,850.61,726a137,137,0,0,0-2.35,17.23h0c2.1,1.16,4.21,2.3,6.35,3.39q5,2.55,10.09,4.86c3.41,1.54,6.87,3,10.36,4.38,1.88.75,3.78,1.46,5.68,2.15,0-.41,0-.83,0-1.26C881.38,736.41,936.86,655.65,934.4,631.61Z" transform="translate(-573.52 -184.41)"/><path class="cls-7" d="M982.9,327.66c-34.45-11.75-40,9-81.31,8.21-20.13-.38-29.62,1.34-33.56,13.43,0,0-4.87,13.68,9.69,15.66,16.53,2.24,32.82,7.46,32.08,25.36s-1.49,34.32,20.14,38.79,17.9-19.39,23.12-23.12,20.14,3.73,26.11-29.09S1001.26,333.93,982.9,327.66Z" transform="translate(-573.52 -184.41)"/><path class="cls-7" d="M1023,392.7c-18.19,24.8-51.34,71.39-50.24,80.16,1.5,12.06,6,31.66,16.58,32.41,7.68.55,30.92-11.28,43-17.76a26.93,26.93,0,0,1,16-3c14.17,1.75,41.26,4.69,43.48,1.92,3-3.77,11.3-20.35,18.09-10.56s17.33,21.86,0,21.86-36.18-6-36.18,12.82,11.3,59.54,35.42,60.29,21-17.7,19.44-21.47-7.74-15.54-6.43-19.16c3.18-8.79,32.22-.82,32.22,10.49s-1.51,42.2,24.12,46.73a27,27,0,0,0,7.32.41h0a232.42,232.42,0,0,0-7.37-120.9c-.61-1.79-1.24-3.56-1.88-5.33A229.94,229.94,0,0,0,1148,407.34q-3.23-4.53-6.65-8.89-6.85-8.73-14.51-16.75-5.73-6-11.89-11.61-4.74-4.3-9.72-8.35c-16.11,2.59-33.39,6-51.62,10.44A53.93,53.93,0,0,0,1023,392.7Z" transform="translate(-573.52 -184.41)"/><path class="cls-7" d="M1079.11,642.85c-5.58,17.81-17.48,24.55-29.67,27.33-9.09,2.08-24.93,7.61-29.37,22.94,0,0-9.26,20.74-3.82,40.13,3.09,11,5.58,20.83,10.35,28.78h0l1.78-.53q8.13-2.54,16-5.64c3.5-1.37,6.95-2.84,10.36-4.38a230.3,230.3,0,0,0,47.53-28.85c2.9-2.28,5.76-4.63,8.55-7,1.39-1.21,2.78-2.44,4.14-3.68a232,232,0,0,0,48-61.27h0c-9.79-3.13-18-5.53-20.93-7.39C1132.4,637.2,1084.7,625.05,1079.11,642.85Z" transform="translate(-573.52 -184.41)"/><g id="Face"><path class="cls-8" d="M912.56,495.37h86.73c14.94,0,24.92,15.63,18.36,29.06-9.29,19-27.37,40.36-61.72,40.36s-52.44-21.34-61.73-40.36C887.64,511,897.62,495.37,912.56,495.37Z" transform="translate(-573.52 -184.41)"/><path class="cls-4" d="M927.17,520.56h0a12,12,0,0,1-11.95-11.95v-3.2h23.9v3.2A12,12,0,0,1,927.17,520.56Z" transform="translate(-573.52 -184.41)"/><path class="cls-4" d="M370.46,321h23.9a0,0,0,0,1,0,0v7.78a7.37,7.37,0,0,1-7.37,7.37h-9.16a7.37,7.37,0,0,1-7.37-7.37V321a0,0,0,0,1,0,0Z"/><path class="cls-4" d="M984.68,520.56h0a12,12,0,0,1-11.95-11.95v-3.2h23.9v3.2A12,12,0,0,1,984.68,520.56Z" transform="translate(-573.52 -184.41)"/><path class="cls-9" d="M920,545.37s10.33-9.26,33.28-9.26,34.41,9.26,34.41,9.26S957,564.59,920,545.37Z" transform="translate(-573.52 -184.41)"/><path class="cls-10" d="M995,467.23V462a14.65,14.65,0,0,1,14.65-14.65h0A14.65,14.65,0,0,1,1024.31,462v5.65" transform="translate(-573.52 -184.41)"/><path class="cls-10" d="M887.54,467.23V462a14.65,14.65,0,0,1,14.65-14.65h0A14.65,14.65,0,0,1,916.84,462v5.65" transform="translate(-573.52 -184.41)"/></g></g><g id="Cloud_2" data-name="Cloud 2"><path class="cls-4" d="M734.07,587H586.36s10.82-44.37,49-44.37c28.31,0,43,17.9,48.72,27.18,11.16-4.37,35.2-9.67,50,17.19" transform="translate(-573.52 -184.41)"/></g><g id="Cloud_1" data-name="Cloud 1"><path class="cls-4" d="M644.46,334.1a34.17,34.17,0,0,1,17.15,4.62c9.69-16.9,27.56-28.28,48.07-28.28a55.36,55.36,0,0,1,46.09,25c5.3-18.15,21.71-31.39,41.15-31.39,22.06,0,40.22,17.05,42.67,39A34.23,34.23,0,0,1,876,361.74H610.42C614.05,345.9,627.89,334.1,644.46,334.1Z" transform="translate(-573.52 -184.41)"/></g><g id="Cloud_4" data-name="Cloud 4"><path class="cls-4" d="M1138.38,427.08a24.06,24.06,0,0,1,12.07,3.25,38.71,38.71,0,0,1,66.26-2.32,30.33,30.33,0,0,1,29-22.09c15.52,0,28.3,12,30,27.44a23,23,0,0,1,3.82-.34,24.55,24.55,0,0,1,21.81,13.52h-186.9A24.77,24.77,0,0,1,1138.38,427.08Z" transform="translate(-573.52 -184.41)"/></g><g id="Cloud_5" data-name="Cloud 5"><path class="cls-4" d="M1069.25,661.13a34.14,34.14,0,0,1,17.15,4.62,55,55,0,0,1,94.16-3.31c5.3-18.15,21.71-31.39,41.15-31.39,22.07,0,40.23,17.05,42.67,39a34.15,34.15,0,0,1,36.42,18.73H1035.21C1038.84,672.93,1052.68,661.13,1069.25,661.13Z" transform="translate(-573.52 -184.41)"/></g><g id="Cloud_6" data-name="Cloud 6"><path class="cls-4" d="M853.73,772.05h-192s14.07-57.65,63.71-57.65c36.79,0,55.88,23.26,63.31,35.32,14.51-5.68,45.74-12.56,64.94,22.33" transform="translate(-573.52 -184.41)"/></g></svg>