<svg id="Layer_1" data-name="Layer 1" xmlns="http://www.w3.org/2000/svg" viewBox="0 0 461.77 461.77"><defs><style>.cls-1{fill:#3ea0f3;}.cls-2{fill:#9fd167;}.cls-3{fill:#243346;}.cls-4{fill:#fff;}.cls-5{fill:#fa8181;}.cls-6{fill:none;stroke:#243346;stroke-linecap:round;stroke-linejoin:round;stroke-width:6.99px;}</style></defs><path class="cls-1" d="M974.18,725c-5.43-19.39,3.82-40.13,3.82-40.13,4.44-15.33,20.28-20.86,29.37-22.94,12.19-2.79,24.09-9.52,29.68-27.33s53.28-5.65,62.91.39c3,1.86,11.14,4.26,20.93,7.39a229.26,229.26,0,0,0,22.89-62.79,27.42,27.42,0,0,1-7.32-.41c-25.63-4.53-24.12-35.43-24.12-46.74s-29-19.27-32.22-10.48c-1.31,3.62,4.92,15.39,6.43,19.16s4.69,22.23-19.43,21.47-35.43-41.45-35.43-60.3,18.84-12.81,36.18-12.81,6.78-12.06,0-21.86-15.07,6.79-18.09,10.56c-2.22,2.77-29.3-.17-43.48-1.92a26.89,26.89,0,0,0-16,3c-12.09,6.48-35.34,18.31-43,17.76-10.55-.76-15.07-20.35-16.58-32.41-1.09-8.77,32-55.36,50.24-80.16a54,54,0,0,1,30.63-20.52c18.22-4.45,35.5-7.85,51.61-10.44a230.26,230.26,0,0,0-76.86-41.25q-10.84-3.37-22.12-5.69a233.21,233.21,0,0,0-93.07,0q-11.26,2.31-22.12,5.69a228.82,228.82,0,0,0-36.46,14.88q-9.94,5.1-19.33,11.11-2.34,1.5-4.64,3.06c-3.08,2.07-6.09,4.22-9.06,6.44-1.14.85-2.27,1.73-3.4,2.6.73.37,1.45.75,2.17,1.16,30.21,17.26,48.09,15.41,28.36,39.45s-26.51,30.83-12.94,41.31,13.5-2.47,21.23-10.48,24.39-8.63,33,10.48,22.81,28.36,0,46.23S798,524.72,782.6,524.1s-29,1.24-24,20.35,21,27.74,35.75,31.44,95.56,23.42,98,47.47-53,104.8-53.63,125.14c0,.43,0,.85,0,1.26q5.1,1.86,10.32,3.49,10.85,3.38,22.12,5.69a233.21,233.21,0,0,0,93.07,0q10.35-2.13,20.35-5.16C979.77,745.82,977.27,736,974.18,725ZM911,397.74c-5.23,3.73-1.5,27.6-23.13,23.12S867,400,867.73,382.07,852.18,359,835.66,356.71c-14.57-2-9.7-15.67-9.7-15.67,3.94-12.08,13.43-13.8,33.57-13.42,41.28.78,46.85-20,81.3-8.21,18.36,6.27,2.24,16.41-3.73,49.23S916.22,394,911,397.74Z" transform="translate(-686.77 -301.86)"/><path class="cls-1" d="M805.42,670.41c-13.85-2.68-38-11.17-28.14-28.58s14.29-25,12.06-29.48-9.16-10.12-14.52-24-32.6-18.51-41.53-23.55-13.68-7.43-20.35-31.54c-5.9-21.34-6.23-64.68-11.8-80.9a229.78,229.78,0,0,0-11.57,44.37l-.24,1.52a232.9,232.9,0,0,0-2.56,34.45,230.48,230.48,0,0,0,88.34,181.64c1.45,1.15,2.92,2.27,4.4,3.38,3,2.21,6,4.36,9.06,6.44q2.29,1.54,4.64,3,6.35,4.08,13,7.73a134.51,134.51,0,0,1,2.34-17.23C812.56,696.76,819.26,673.09,805.42,670.41Z" transform="translate(-686.77 -301.86)"/><path class="cls-2" d="M892.33,623.36c-2.46-24.05-83.22-43.77-98-47.47s-30.82-12.33-35.75-31.44,8.63-21,24-20.35,42.54-27.74,65.35-45.62,8.63-27.12,0-46.23-25.28-18.5-33-10.48-7.67,21-21.23,10.48-6.79-17.26,12.94-41.31,1.85-22.19-28.36-39.45c-.72-.41-1.44-.79-2.17-1.16q-4.87,3.8-9.55,7.83a232.41,232.41,0,0,0-27.07,27.72Q737.74,388,736,390.2a230.61,230.61,0,0,0-34.87,62.2h0c5.57,16.22,5.9,59.56,11.8,80.9,6.67,24.11,11.41,26.5,20.35,31.54s36.17,9.7,41.53,23.55,12.29,19.49,14.52,24-2.23,12.06-12.06,29.48,14.29,25.9,28.14,28.58,7.14,26.35,3.12,47.34A134.51,134.51,0,0,0,806.2,735h0q3.15,1.74,6.34,3.39,5,2.55,10.1,4.86T833,747.61q2.82,1.11,5.68,2.15c0-.41,0-.83,0-1.26C839.32,728.16,894.8,647.4,892.33,623.36Z" transform="translate(-686.77 -301.86)"/><path class="cls-2" d="M940.83,319.41c-34.45-11.75-40,9-81.3,8.21C839.39,327.24,829.9,329,826,341c0,0-4.87,13.69,9.7,15.67,16.52,2.24,32.82,7.46,32.07,25.36s-1.49,34.31,20.14,38.79,17.9-19.39,23.13-23.12,20.14,3.73,26.1-29.1S959.19,325.68,940.83,319.41Z" transform="translate(-686.77 -301.86)"/><path class="cls-2" d="M980.93,384.45c-18.19,24.8-51.33,71.39-50.24,80.16,1.51,12.06,6,31.65,16.58,32.41,7.68.55,30.93-11.28,43-17.76a26.89,26.89,0,0,1,16-3c14.18,1.75,41.26,4.69,43.48,1.92,3-3.77,11.31-20.36,18.09-10.56s17.34,21.86,0,21.86-36.18-6-36.18,12.81,11.31,59.55,35.43,60.3,20.94-17.7,19.43-21.47-7.74-15.54-6.43-19.16c3.19-8.79,32.22-.82,32.22,10.48s-1.51,42.21,24.12,46.74a27.42,27.42,0,0,0,7.32.41h0a232.42,232.42,0,0,0-7.37-120.9c-.61-1.79-1.23-3.57-1.88-5.33a229.94,229.94,0,0,0-28.59-54.27q-3.21-4.53-6.64-8.89-6.85-8.73-14.51-16.75-5.74-6-11.89-11.61c-3.16-2.88-6.41-5.65-9.73-8.35-16.11,2.59-33.39,6-51.61,10.44A54,54,0,0,0,980.93,384.45Z" transform="translate(-686.77 -301.86)"/><path class="cls-2" d="M1037.05,634.6c-5.59,17.81-17.49,24.54-29.68,27.33-9.09,2.08-24.93,7.61-29.37,22.94,0,0-9.25,20.74-3.82,40.13,3.09,11,5.59,20.82,10.36,28.78h0l1.77-.53q8.15-2.54,16-5.64,5.25-2.07,10.36-4.38a230.73,230.73,0,0,0,47.53-28.85c2.91-2.28,5.76-4.64,8.55-7q2.1-1.82,4.15-3.68a231.76,231.76,0,0,0,48-61.27h0c-9.79-3.13-18-5.53-20.93-7.39C1090.33,629,1042.64,616.8,1037.05,634.6Z" transform="translate(-686.77 -301.86)"/><g id="Face"><path class="cls-3" d="M870.49,487.12h86.74c14.94,0,24.91,15.63,18.36,29.06-9.29,19-27.37,40.36-61.73,40.36s-52.44-21.35-61.73-40.36C845.58,502.75,855.55,487.12,870.49,487.12Z" transform="translate(-686.77 -301.86)"/><path class="cls-4" d="M885.11,512.31h0a12,12,0,0,1-12-11.95v-3.2h23.89v3.2A12,12,0,0,1,885.11,512.31Z" transform="translate(-686.77 -301.86)"/><path class="cls-4" d="M215.14,195.3H239a0,0,0,0,1,0,0v7.78a7.37,7.37,0,0,1-7.37,7.37h-9.16a7.37,7.37,0,0,1-7.37-7.37V195.3A0,0,0,0,1,215.14,195.3Z"/><path class="cls-4" d="M942.61,512.31h0a12,12,0,0,1-12-11.95v-3.2h23.9v3.2A12,12,0,0,1,942.61,512.31Z" transform="translate(-686.77 -301.86)"/><path class="cls-5" d="M878,537.12s10.32-9.26,33.27-9.26,34.41,9.26,34.41,9.26S915,556.34,878,537.12Z" transform="translate(-686.77 -301.86)"/><path class="cls-6" d="M952.94,459v-5.26a14.65,14.65,0,0,1,14.66-14.65h0a14.65,14.65,0,0,1,14.65,14.65v5.65" transform="translate(-686.77 -301.86)"/><path class="cls-6" d="M845.47,459v-5.26a14.65,14.65,0,0,1,14.65-14.65h0a14.65,14.65,0,0,1,14.65,14.65v5.65" transform="translate(-686.77 -301.86)"/></g></svg>