<svg id="BACKGROUND_1" data-name="BACKGROUND 1" xmlns="http://www.w3.org/2000/svg" width="260.14" height="238.23" viewBox="0 0 260.14 238.23">
  <defs>
    <style>
      .cls-1 {
        fill: #c2e1f0;
      }

      .cls-2 {
        fill: #0093cf;
      }

      .cls-3 {
        fill: #77cdd1;
      }

      .cls-4 {
        fill: #00bfc8;
      }

      .cls-5 {
        fill: #ffd231;
      }
    </style>
  </defs>
  <path class="cls-1" d="M82,251" transform="translate(-119.56 -106.55)"/>
  <g>
    <g>
      <path class="cls-2" d="M340.17,226A90.69,90.69,0,1,1,247,135.36c.83,0,1.67,0,2.5,0A90.65,90.65,0,0,1,340.17,226Z" transform="translate(-119.56 -106.55)"/>
      <path class="cls-3" d="M217.26,161.79c-7.81,6.13-9.53,18.73-18.77,22.25-4.86,1.85-11.58.29-16.74,1.16A58.49,58.49,0,0,0,166,190.64a90.68,90.68,0,0,1,81-55.28C249,150.36,226,154.9,217.26,161.79Zm63.49-20.94c-8.23,10.11-23.62,24.23-7.55,30.51,10,3.91,38.45,8,47.85,1.83a15.7,15.7,0,0,0,1.42-1A90.88,90.88,0,0,0,280.75,140.85Zm-13.66,151c-1.64-6.7.43-15.47-7.28-18.5-9.71-3.84-27.34,7.15-37.54,7.8-15.49,1-21.52-7.16-31.13-17.38-8.31-8.82-15.68-8.9-26.29-5.22A90.73,90.73,0,0,0,288.21,308C278.9,301.48,270.33,305.06,267.09,291.83Zm44.12-35.13c-10.75,8.23-18.25,4.93-27.09,15.11S289,295.66,306,286.52C320.54,278.68,322.47,248.08,311.21,256.7Z" transform="translate(-119.56 -106.55)"/>
    </g>
    <g>
      <path class="cls-4" d="M405.81,271.29" transform="translate(-119.56 -106.55)"/>
      <path class="cls-4" d="M377.88,232.64" transform="translate(-119.56 -106.55)"/>
    </g>
  </g>
  <g>
    <g>
      <path class="cls-5" d="M254.71,110.43v0a3.63,3.63,0,0,1-.29,1.44,3.88,3.88,0,0,1-.22.46,3.19,3.19,0,0,1-.26.38,15.27,15.27,0,0,0-4.47-.29,15.45,15.45,0,0,0-1.77.27,16.82,16.82,0,0,0-2.92.86l-.81.35a25.26,25.26,0,0,0-6.25,4.21A52.1,52.1,0,0,0,228,130.5c-1.84,3.13-3.4,5-5.05,8.78l-5.56,1.88c1.81-4.33,4.88-9.23,6.94-12.81a55.73,55.73,0,0,1,10.42-13.47,29.84,29.84,0,0,1,7.32-5,21,21,0,0,1,5.6-1.73,19.91,19.91,0,0,1,2.9-.27,16.4,16.4,0,0,1,3.35.26,3.14,3.14,0,0,1,.4.66,2.69,2.69,0,0,1,.21.56,3.35,3.35,0,0,1,.11.55A2.92,2.92,0,0,1,254.71,110.43Z" transform="translate(-119.56 -106.55)"/>
      <path class="cls-5" d="M335.47,147.44a3.25,3.25,0,0,0-.45.25,3.47,3.47,0,0,0-.44.31,4.44,4.44,0,0,0-1,1.11,2.38,2.38,0,0,0-.23.45,2.72,2.72,0,0,0-.19.47,4,4,0,0,0-.14.52,4.07,4.07,0,0,0-.07.61,25.21,25.21,0,0,0-7.18-2.24,42,42,0,0,0-6.7-.51,63.51,63.51,0,0,0-9,.7,102.63,102.63,0,0,0-15.67,3.67c-.84.26-7.29,2.06-7.11,2.72a45.41,45.41,0,0,1,1.25,4.85A232.29,232.29,0,0,1,294,193a298.45,298.45,0,0,1,1.3,33c-.08,7.33-.43,14.58-1,21.69,0,.06,0,.2,0,.39a2.82,2.82,0,0,0-.48-.27,4.14,4.14,0,0,0-.49-.19,2.72,2.72,0,0,0-.49-.13,3.1,3.1,0,0,0-.69-.08h-.5a4.18,4.18,0,0,0-.51.07,3.8,3.8,0,0,0-.51.13l0-.39c.6-7,1-14.08,1.07-21.27a290.62,290.62,0,0,0-1.45-32.62,226.11,226.11,0,0,0-5.49-32.1c-.36-1.4-.74-2.8-1.11-4.2-.25-.86-3.92,1.12-4.39,1.32a227.42,227.42,0,0,0-28.87,15.08A286.6,286.6,0,0,0,199,213.63q-4.33,4.26-8.46,8.74c-.22.24-1.41,1.38-2.44,2.45a3.39,3.39,0,0,0-.29-.68,4.25,4.25,0,0,0-.27-.46,3.12,3.12,0,0,0-.32-.4,2.32,2.32,0,0,0-.35-.35,3.88,3.88,0,0,0-.65-.5,2.37,2.37,0,0,0-.47-.25l-.08,0c.57-.62,1.11-1.27,1.66-1.86,1-1.05,2-2.11,3-3.15,2-2.1,4-4.18,6.06-6.2a300.17,300.17,0,0,1,24.93-21.73,295.58,295.58,0,0,1,27.09-19A212.16,212.16,0,0,1,282,152.91l.16-.06.16-.07a.53.53,0,0,1,0-.12c-.84-2.27-1.49-4.61-2.32-6.89a103.11,103.11,0,0,0-6.57-14.69,52.19,52.19,0,0,0-9.37-12.62,25.62,25.62,0,0,0-6.13-4.36,17,17,0,0,0-4-1.37,3.19,3.19,0,0,0,.26-.38,3.88,3.88,0,0,0,.22-.46,3.66,3.66,0,0,0,.29-1.46,2.92,2.92,0,0,0,0-.51,3.35,3.35,0,0,0-.11-.55,2.69,2.69,0,0,0-.21-.56,3.14,3.14,0,0,0-.4-.66,20.56,20.56,0,0,1,5.41,1.72l.53.26a29.56,29.56,0,0,1,7.18,5.17,55.75,55.75,0,0,1,10.06,13.75,105.68,105.68,0,0,1,6.72,15.34c.38,1.08.75,2.17,1.11,3.25.2.64.63,3.26,1.17,3.58s2.85-.95,3.42-1.15c1.21-.42,2.42-.83,3.64-1.22a106.82,106.82,0,0,1,16.28-3.94,66.25,66.25,0,0,1,10-.83,46.13,46.13,0,0,1,7,.52,29.44,29.44,0,0,1,8.48,2.58C335.15,147.26,335.31,147.35,335.47,147.44Z" transform="translate(-119.56 -106.55)"/>
      <path class="cls-5" d="M305.59,249.14a4.44,4.44,0,0,1-1,.57,2.76,2.76,0,0,1-.51.16,4.35,4.35,0,0,1-.52.1,4.07,4.07,0,0,1-.5,0h0a4,4,0,0,1-.7-.06,2.57,2.57,0,0,1-.48-.11,2.81,2.81,0,0,1-.49-.16l-.25-.11Q303.34,249.37,305.59,249.14Z" transform="translate(-119.56 -106.55)"/>
      <path class="cls-5" d="M377.8,227.16c0,.24,0,.48,0,.72a9,9,0,0,1-1.16,3.51,4.72,4.72,0,0,1-.54.13,3.08,3.08,0,0,1-.61.06h-.13l-.44,0h0a3.1,3.1,0,0,1-.53-.1,3.91,3.91,0,0,1-1.07-.39,4.45,4.45,0,0,1-.43-.26,3.12,3.12,0,0,1-.4-.32l-.11-.09a5.44,5.44,0,0,0,1.2-4.41,5.64,5.64,0,0,0-1-2.17,13.5,13.5,0,0,0-2.11-2.22,31.74,31.74,0,0,0-6.59-4.24,92.81,92.81,0,0,0-15.26-5.81c-4-1.17-6.23-1.82-10-2.69l-1-4.51.73.25c3.3.73,5.91,1.51,8.94,2.4l2.47.72a96.9,96.9,0,0,1,16,6,35.58,35.58,0,0,1,7.45,4.77,16.89,16.89,0,0,1,2.79,3,10.14,10.14,0,0,1,.92,1.56A9.09,9.09,0,0,1,377.8,227.16Z" transform="translate(-119.56 -106.55)"/>
      <path class="cls-5" d="M161.93,202.4l-1,4.18c-3.81.78-6.13,1.44-10.11,2.51a92.12,92.12,0,0,0-15.38,5.42,31.64,31.64,0,0,0-6.65,4.06,12.17,12.17,0,0,0-2.39,2.56l-.11.19a.24.24,0,0,0-.06.09c-.07.12-.14.24-.2.36l0,.1a3.42,3.42,0,0,0-.17.4v0h0a3.36,3.36,0,0,0-.21.66h0a3.69,3.69,0,0,0-.1.87,3.81,3.81,0,0,0,.11,1h0a4.26,4.26,0,0,0,.2.67,4,4,0,0,0,.19.43.31.31,0,0,0,.05.1,2.16,2.16,0,0,0,.2.36h0a.41.41,0,0,0,.05.09l0,.07a7.51,7.51,0,0,0,.47.68,3.43,3.43,0,0,1-.48.67,3.15,3.15,0,0,1-.37.36,2.2,2.2,0,0,1-.4.3,2.67,2.67,0,0,1-.43.25,3.77,3.77,0,0,1-1.5.37h-.18l-.4,0a1.78,1.78,0,0,1-.39-.07l-.11-.17a10.93,10.93,0,0,1-.81-1.54h0l-.06-.14c-.08-.19-.15-.39-.22-.6a.75.75,0,0,1,0-.16,5.33,5.33,0,0,1-.2-.74,7.86,7.86,0,0,1-.22-2,11.22,11.22,0,0,1,.14-1.42l0-.14,0-.14c.07-.28.13-.52.21-.75h0a.66.66,0,0,1,0-.15.75.75,0,0,1,0-.16,4.22,4.22,0,0,1,.18-.45.42.42,0,0,1,.06-.14h0a10.6,10.6,0,0,1,.94-1.74,16.34,16.34,0,0,1,3.3-3.52,36.07,36.07,0,0,1,7.61-4.59A96.5,96.5,0,0,1,149.73,205C154,203.88,157.79,203.2,161.93,202.4Z" transform="translate(-119.56 -106.55)"/>
      <path class="cls-5" d="M344,155.77a4.07,4.07,0,0,1-.84-1,2.31,2.31,0,0,0,.1-.28C343.49,154.9,343.74,155.33,344,155.77Z" transform="translate(-119.56 -106.55)"/>
      <path class="cls-5" d="M343.23,154.48a2.31,2.31,0,0,1-.1.28,3.83,3.83,0,0,1-.49-1.18,4,4,0,0,1,.23.34.26.26,0,0,1,.07.11A3.12,3.12,0,0,1,343.23,154.48Z" transform="translate(-119.56 -106.55)"/>
      <path class="cls-5" d="M346.39,170A56,56,0,0,1,342,186.49c-.4.95-.78,1.88-1.14,2.78a63.79,63.79,0,0,1-4,8.7l-.73,1-1.88-5.51a63.52,63.52,0,0,0,3.87-8.62,52,52,0,0,0,4-15.2,25.35,25.35,0,0,0-.44-7.51,16.36,16.36,0,0,0-1.86-4.79c-.07-.13-.14-.26-.22-.38h0a.41.41,0,0,0-.05-.09c-.1-.16-.21-.32-.32-.48s-.25-.35-.38-.52l-.18-.24,0,0a14.78,14.78,0,0,0-2.32-2.36,6.12,6.12,0,0,0-.5-.39,5.2,5.2,0,0,0-.47-.35.24.24,0,0,0-.08-.06c-.12-.09-.25-.17-.38-.25a16.7,16.7,0,0,0-1.79-1h0a4.07,4.07,0,0,1,.07-.61,4,4,0,0,1,.14-.52,2.72,2.72,0,0,1,.19-.47,2.38,2.38,0,0,1,.23-.45,4.44,4.44,0,0,1,1-1.11,3.47,3.47,0,0,1,.44-.31,3.25,3.25,0,0,1,.45-.25,19.62,19.62,0,0,1,2.34,1.41c.14.09.29.19.43.3h0l.09.08.58.43.61.52h0a19.11,19.11,0,0,1,2.11,2.11l.31.38a1.63,1.63,0,0,1,.17.2,4.84,4.84,0,0,1,.33.46l.18.24a3.83,3.83,0,0,0,.49,1.18,4.07,4.07,0,0,0,.84,1,21,21,0,0,1,2,5.44A29.59,29.59,0,0,1,346.39,170Z" transform="translate(-119.56 -106.55)"/>
      <path class="cls-5" d="M334.19,299.94a30,30,0,0,1-1.65,8.7,20.73,20.73,0,0,1-1.81,3.81,18.55,18.55,0,0,1-3.79,4.57c-.12.11-.25.21-.38.31h-.08a4,4,0,0,1-1.11-.4,3.63,3.63,0,0,1-1.14-1,2.29,2.29,0,0,1-.28-.41,3.33,3.33,0,0,1-.24-.46,2.74,2.74,0,0,1-.15-.51,3,3,0,0,1-.1-.52,15.65,15.65,0,0,0,3-3.17c.22-.31.42-.63.61-.95a17.13,17.13,0,0,0,1.34-2.8,25.45,25.45,0,0,0,1.44-7.39,52.1,52.1,0,0,0-1.89-15.6c-.88-3.38-.81-4.79-2.36-8.74l2.7-4.43A93.12,93.12,0,0,1,332,283,56,56,0,0,1,334.19,299.94Z" transform="translate(-119.56 -106.55)"/>
      <path class="cls-5" d="M207,148.06l-4.31,2.59-.68-.25c-2.18-.8-4.19-1.47-6.16-2a53.47,53.47,0,0,0-14.7-2.35h-.88a25.49,25.49,0,0,0-7.47,1.24,17,17,0,0,0-2.07.85,15.82,15.82,0,0,0-4.06,2.8l-.08.08-.27.28,0,0a2.33,2.33,0,0,1-.38-.08,2.18,2.18,0,0,1-.51-.17,2.82,2.82,0,0,1-.46-.23,3.07,3.07,0,0,1-.42-.28,3.84,3.84,0,0,1-.79-.82,4,4,0,0,1-.27-.44,3.92,3.92,0,0,1-.22-.51l-.06-.18a20.61,20.61,0,0,1,5.51-4l.46-.22c.44-.22.9-.41,1.36-.59s.64-.24,1-.35a29.64,29.64,0,0,1,8.68-1.43H181a57.22,57.22,0,0,1,16,2.57c2.28.67,4.62,1.47,7.16,2.45Z" transform="translate(-119.56 -106.55)"/>
      <polygon class="cls-5" points="82.57 146.05 82.57 146.06 82.56 146.05 82.57 146.05"/>
      <polygon class="cls-5" points="84.03 146.19 84.03 146.2 84.02 146.19 84.03 146.19"/>
      <polygon class="cls-5" points="84.03 146.19 84.03 146.2 84.02 146.19 84.03 146.19"/>
      <polygon class="cls-5" points="84.03 146.19 84.03 146.2 84.02 146.19 84.03 146.19"/>
      <polygon class="cls-5" points="84.03 146.19 84.03 146.2 84.02 146.19 84.03 146.19"/>
      <path class="cls-5" d="M202.12,252.6h0Zm-15.6-25.79c-.11-.17.66-1.05,1.56-2a3.39,3.39,0,0,0-.29-.68,4.25,4.25,0,0,0-.27-.46,3.12,3.12,0,0,0-.32-.4,2.32,2.32,0,0,0-.35-.35,3.88,3.88,0,0,0-.65-.5,2.37,2.37,0,0,0-.47-.25l-.08,0a13.13,13.13,0,0,1-1.35,1.34,5.23,5.23,0,0,1-1.29-1.66c-.28-.49-.53-1-.76-1.35-.76-1.18-1.52-2.37-2.26-3.57-1.44-2.31-2.84-4.66-4.18-7a158.67,158.67,0,0,1-7.29-14.5,103,103,0,0,1-5.38-15.19,51.85,51.85,0,0,1-1.92-15.64,25.15,25.15,0,0,1,1.44-7.44,16.75,16.75,0,0,1,3.14-5.32.3.3,0,0,1,.08-.08c.1-.12.2-.23.31-.34l.07-.07a2.33,2.33,0,0,1-.38-.08,2.18,2.18,0,0,1-.51-.17,2.82,2.82,0,0,1-.46-.23,3.07,3.07,0,0,1-.42-.28,3.84,3.84,0,0,1-.79-.82,4,4,0,0,1-.27-.44,3.92,3.92,0,0,1-.22-.51l-.06-.18c-.19.2-.38.41-.56.62a20.63,20.63,0,0,0-3.78,6.49,29.22,29.22,0,0,0-1.65,8.65,55.34,55.34,0,0,0,2.12,16.86,107,107,0,0,0,5.65,15.74,162.2,162.2,0,0,0,7.54,14.83Q176,218,180,223.91c.53.82,1.07,1.63,1.62,2.44.35.51-1.08,1.76-1.37,2.06-.07.08-.15.15-.21.23a.25.25,0,0,0,0,.07c.1.14.2.28.31.41a4.32,4.32,0,0,0,.61.6,2.7,2.7,0,0,0,.4.29,2,2,0,0,0,.45.25,2.18,2.18,0,0,0,.47.21,3.66,3.66,0,0,0,.88.22c.1-.13.21-.25.32-.38l.37-.44.1-.12a1.34,1.34,0,0,0,.11.14q.16.26.36.51l.19.26a2.78,2.78,0,0,0,.5-.11c.16-.06.33-.12.48-.19a2.47,2.47,0,0,0,.46-.23,4.11,4.11,0,0,0,.63-.43,3.76,3.76,0,0,0,.35-.34,2.5,2.5,0,0,0,.34-.39,3.41,3.41,0,0,0,.3-.44h0c-.17-.24-.33-.49-.49-.74S186.74,227.14,186.52,226.81Z" transform="translate(-119.56 -106.55)"/>
      <path class="cls-5" d="M202.12,252.6h0Zm124.36,64.72a4,4,0,0,1-1.11-.4,3.63,3.63,0,0,1-1.14-1,2.29,2.29,0,0,1-.28-.41,3.33,3.33,0,0,1-.24-.46,2.74,2.74,0,0,1-.15-.51,3,3,0,0,1-.1-.52,16.7,16.7,0,0,1-5.09,2.82A25.25,25.25,0,0,1,311,318.1l-1,0a53.59,53.59,0,0,1-14.58-2.31,99.69,99.69,0,0,1-13.26-4.93l-.11-.05-.32-.14-.1-.05-.55-.25-.53-.24a5.81,5.81,0,0,0,.7-1.52l-.11-.14a2.93,2.93,0,0,0-.37-.42,3.26,3.26,0,0,0-.4-.34,2,2,0,0,0-.43-.29,3.6,3.6,0,0,0-.84-.4,2.42,2.42,0,0,0-.48-.13,4,4,0,0,0-.5-.09l-.44,0h0c-.29.72-.67,1.63-.67,1.64-.58-.3-1.16-.59-1.74-.9l-.09.06a2.72,2.72,0,0,0-.42.34,3.32,3.32,0,0,0-.38.37c-.11.13-.21.26-.31.4a4.55,4.55,0,0,0-.48.93,2.75,2.75,0,0,0-.14.49,2.19,2.19,0,0,0-.1.51,3.42,3.42,0,0,0,0,.45l.1.05q.58.33,1.2.63c.37.19.88.25.63.71s-.56,1.06-.83,1.6c-1.09,2.15-2.1,4.34-3.33,6.43a52.16,52.16,0,0,1-9.7,12.42,25.27,25.27,0,0,1-6.28,4.24,15.12,15.12,0,0,1-4.09,1.3h-.06l.15.17a3.72,3.72,0,0,1,.33.45,4,4,0,0,1,.24.46,4.5,4.5,0,0,1,.16.48,3.66,3.66,0,0,1,.14,1,.41.41,0,0,1,0,.11,3.07,3.07,0,0,1-.05.53,2.38,2.38,0,0,1-.14.54,2.08,2.08,0,0,1-.12.32l.32-.06a21.87,21.87,0,0,0,4.85-1.59,29.59,29.59,0,0,0,7.29-4.95,55.44,55.44,0,0,0,10.42-13.42c.89-1.53,1.73-3.1,2.52-4.68.39-.76.76-1.53,1.13-2.3,0,0,0,0,0-.05.19-.41.36-.83.58-1.23s.31-.28.67-.12l1,.45a104.76,104.76,0,0,0,13.81,5.28,56.43,56.43,0,0,0,16.09,2.6h.75a29.5,29.5,0,0,0,8.73-1.42,21.44,21.44,0,0,0,6.77-3.72Z" transform="translate(-119.56 -106.55)"/>
      <path class="cls-5" d="M376.06,231.52a3.08,3.08,0,0,1-.61.06h-.13l-.44,0h0a3.1,3.1,0,0,1-.53-.1,3.91,3.91,0,0,1-1.07-.39,4.45,4.45,0,0,1-.43-.26,3.12,3.12,0,0,1-.4-.32l-.11-.09a12.17,12.17,0,0,1-2,2.08,32.31,32.31,0,0,1-6.69,4.06A92.19,92.19,0,0,1,348.18,242a245.91,245.91,0,0,1-32.57,6c-3.3.42-6.63.79-10,1.13a4.44,4.44,0,0,1-1,.57,2.76,2.76,0,0,1-.51.16,4.35,4.35,0,0,1-.52.1,4.07,4.07,0,0,1-.5,0h0a4,4,0,0,1-.7-.06,2.57,2.57,0,0,1-.48-.11,2.81,2.81,0,0,1-.49-.16l-.25-.11h0a2.2,2.2,0,0,0-.76.07l-.89.07-1.71.14-1.84.14-1.8.14a9.76,9.76,0,0,0,.19-2h0a2.82,2.82,0,0,0-.48-.27,4.14,4.14,0,0,0-.49-.19,2.72,2.72,0,0,0-.49-.13,3.1,3.1,0,0,0-.69-.08h-.5a4.18,4.18,0,0,0-.51.07,3.8,3.8,0,0,0-.51.13s0,0,0,.06a.41.41,0,0,1,0,.11,5.32,5.32,0,0,1-.06.56,4,4,0,0,1-.05.59c0,.46-.08.91-.13,1.37l-1.08.08-1.5.11c-1.76.11-3.52.17-5.27.26-8.65.42-17.6.63-26.6.63-2.23,0-4.47,0-6.7,0-11.31-.18-22.5-.68-33.28-1.5-4.17-.32-8.21-.67-12.15-1.07q-5.11-5.91-9.76-11.92c-2.11-2.74-4.36-5.49-6.27-8.4a3.41,3.41,0,0,1-.3.44,2.5,2.5,0,0,1-.34.39,3.76,3.76,0,0,1-.35.34,4.11,4.11,0,0,1-.63.43,2.47,2.47,0,0,1-.46.23c-.15.07-.32.13-.48.19a2.78,2.78,0,0,1-.5.11,1.43,1.43,0,0,0,.15.22l.09.12.24.34q2.82,3.9,5.9,7.87,3.54,4.56,7.37,9.07c-5.33-.6-10.5-1.28-15.57-2.06-3.57-.56-6.95-1.13-10.16-1.73q2.22-3.24,4.7-6.5,2.63-3.45,5.46-6.85l.25-.3.09-.11,0,0a3.66,3.66,0,0,1-.88-.22,2.18,2.18,0,0,1-.47-.21,2,2,0,0,1-.45-.25,2.7,2.7,0,0,1-.4-.29,4.32,4.32,0,0,1-.61-.6c-.11-.13-.21-.27-.31-.41a.25.25,0,0,1,0-.07,80.06,80.06,0,0,0-5.75,7c-2.06,2.69-4,5.38-5.81,8-6.58-1.33-12.48-2.78-18-4.43a92.3,92.3,0,0,1-15.23-5.82,32.46,32.46,0,0,1-6.55-4.23,12.77,12.77,0,0,1-1.85-1.95,3.43,3.43,0,0,1-.48.67,3.15,3.15,0,0,1-.37.36,2.2,2.2,0,0,1-.4.3,2.67,2.67,0,0,1-.43.25,3.77,3.77,0,0,1-1.5.37h-.18l-.4,0a1.78,1.78,0,0,1-.39-.07,16.8,16.8,0,0,0,3.09,3.44,36.37,36.37,0,0,0,7.49,4.78,96.71,96.71,0,0,0,16,6c5.22,1.5,10.73,2.84,16.79,4-.41.65-.82,1.3-1.21,1.94a106.54,106.54,0,0,0-7.71,14.85,55.3,55.3,0,0,0-4.37,16.42,29.66,29.66,0,0,0,.47,8.79,19.66,19.66,0,0,0,10.87,13.9,29.66,29.66,0,0,0,8.42,2.58,45.6,45.6,0,0,0,7.06.52,67.1,67.1,0,0,0,9.92-.8,91.17,91.17,0,0,0,12.34-2.46l-4.32-2.83c-4.1,1.13-4.9.79-8.6,1.34a62.5,62.5,0,0,1-9.12.72,42.53,42.53,0,0,1-6.64-.5,25.53,25.53,0,0,1-7.24-2.24,15.82,15.82,0,0,1-8.68-11.11,25.39,25.39,0,0,1-.43-7.56,52.16,52.16,0,0,1,4-15.24,103,103,0,0,1,7.37-14.32c.65-1.06,1.32-2.13,2-3.2,3.77.7,7.76,1.35,12,2,6.45,1,13,1.76,19.92,2.44,3.42,3.88,7,7.72,10.65,11.48a295.93,295.93,0,0,0,24.29,22.44A230.74,230.74,0,0,0,264,305.81c3.17,1.93,6.24,3.68,9.28,5.28a3.42,3.42,0,0,1,0-.45,2.19,2.19,0,0,1,.1-.51,2.75,2.75,0,0,1,.14-.49,4.55,4.55,0,0,1,.48-.93c.1-.14.2-.27.31-.4a3.32,3.32,0,0,1,.38-.37,2.72,2.72,0,0,1,.42-.34l.09-.06q-4.67-2.42-9.19-5.11a227.3,227.3,0,0,1-26.58-18.82,293.27,293.27,0,0,1-24.09-22q-4.06-4.19-7.91-8.47c2.66.23,5.36.45,8.12.64,10.87.77,22.14,1.23,33.5,1.35q4.28.06,8.54.06c8.45,0,16.86-.19,25-.56,1.88-.09,3.77-.18,5.65-.29l.83,0h.13l.67,0a10.09,10.09,0,0,0-.17,1.41v0q-.17,1.47-.36,2.94a226.2,226.2,0,0,1-6.3,32A159.08,159.08,0,0,1,278,306c0,.07-.16.42-.33.83l.44,0a4,4,0,0,1,.5.09,2.42,2.42,0,0,1,.48.13,3.6,3.6,0,0,1,.84.4,2,2,0,0,1,.43.29,3.26,3.26,0,0,1,.4.34,2.93,2.93,0,0,1,.37.42l.11.14c.42-1.13.9-2.52,1-2.77,1.07-2.87,2-5.78,3-8.71q.84-2.77,1.61-5.57a231.21,231.21,0,0,0,6.29-32.52c.13-1,.27-2.08.39-3.12.08-.66.14-1.31.19-2l2.13-.13c3.17-.21,6.33-.52,9.49-.81,3.6-.34,7.21-.73,10.81-1.17a251.15,251.15,0,0,0,33.13-6,97,97,0,0,0,16.11-5.59,36,36,0,0,0,7.57-4.58,16.58,16.58,0,0,0,2.14-2,12.68,12.68,0,0,0,1.56-2.22A4.72,4.72,0,0,1,376.06,231.52ZM203.59,252.75h0Zm84.64,1.05,0,.06,0-.06Z" transform="translate(-119.56 -106.55)"/>
      <polygon class="cls-5" points="84.03 146.19 84.03 146.2 84.02 146.19 84.03 146.19"/>
      <polygon class="cls-5" points="84.03 146.19 84.03 146.2 84.02 146.19 84.03 146.19"/>
      <polygon class="cls-5" points="84.03 146.19 84.03 146.2 84.02 146.19 84.03 146.19"/>
    </g>
    <g>
      <path class="cls-5" d="M170.75,147.47v.09a3.31,3.31,0,0,1-.06.55,3.87,3.87,0,0,1-3.82,3.24,3.08,3.08,0,0,1-.61-.06,2.33,2.33,0,0,1-.38-.08,2.18,2.18,0,0,1-.51-.17,2.82,2.82,0,0,1-.46-.23,3.07,3.07,0,0,1-.42-.28,3.84,3.84,0,0,1-.79-.82,4,4,0,0,1-.27-.44,3.92,3.92,0,0,1-.22-.51l-.06-.18a2.23,2.23,0,0,1-.09-.39,3.38,3.38,0,0,1-.07-.72,3.88,3.88,0,0,1,5.65-3.45,3.48,3.48,0,0,1,.48.3h0a3.31,3.31,0,0,1,.41.35,2.6,2.6,0,0,1,.36.38,3.83,3.83,0,0,1,.56,1,2.44,2.44,0,0,1,.15.48,2.88,2.88,0,0,1,.1.51A3.55,3.55,0,0,1,170.75,147.47Z" transform="translate(-119.56 -106.55)"/>
      <path class="cls-5" d="M127.32,225.33c0,4.9-7.76,5.09-7.76,0,0-3.34,4.56-5.19,6.76-2.59A3.8,3.8,0,0,1,127.32,225.33Z" transform="translate(-119.56 -106.55)"/>
      <path class="cls-5" d="M379.7,227.2a4.38,4.38,0,0,1-3.1,4.19,4.72,4.72,0,0,1-.54.13,3.08,3.08,0,0,1-.61.06h-.13l-.44,0h0a3.1,3.1,0,0,1-.53-.1,3.91,3.91,0,0,1-1.07-.39,4.45,4.45,0,0,1-.43-.26,3.12,3.12,0,0,1-.4-.32l-.11-.09a3.07,3.07,0,0,1-.25-.26,4.35,4.35,0,0,1,0-5.88,3.15,3.15,0,0,1,.37-.36.39.39,0,0,1,.1-.08,2.09,2.09,0,0,1,.29-.23,2.34,2.34,0,0,1,.43-.26,3.93,3.93,0,0,1,1.07-.4,3.1,3.1,0,0,1,.53-.1l.46,0h.11a4.07,4.07,0,0,1,.61,0,4.2,4.2,0,0,1,.79.22A4.38,4.38,0,0,1,379.7,227.2Z" transform="translate(-119.56 -106.55)"/>
      <path class="cls-5" d="M341.72,151.39a4.2,4.2,0,0,1-1.08,2.91,4.39,4.39,0,0,1-3.27,1.47c-4.74,0-6.13-7.36-1.29-8.57a4.2,4.2,0,0,1,1.29-.2A4.42,4.42,0,0,1,341.72,151.39Z" transform="translate(-119.56 -106.55)"/>
      <path class="cls-5" d="M282.05,311.18a2.81,2.81,0,0,1,0,.29,2.85,2.85,0,0,1-.07.51,4.05,4.05,0,0,1-.12.5,4.41,4.41,0,0,1-.46,1,3.19,3.19,0,0,1-.3.42,3.25,3.25,0,0,1-.35.39,3.11,3.11,0,0,1-.33.29l-.07.06a4.35,4.35,0,0,1-2.19.89h-.08l-.41,0h-.16a3.07,3.07,0,0,1-.53-.05,2.78,2.78,0,0,1-.5-.11,4,4,0,0,1-.89-.36,3.12,3.12,0,0,1-.43-.27,4.31,4.31,0,0,1-.4-.32,3.23,3.23,0,0,1-.37-.37,4.33,4.33,0,0,1-1.1-2.9v-.09a3.42,3.42,0,0,1,0-.45,2.19,2.19,0,0,1,.1-.51,2.75,2.75,0,0,1,.14-.49,4.55,4.55,0,0,1,.48-.93c.1-.14.2-.27.31-.4a3.32,3.32,0,0,1,.38-.37,2.72,2.72,0,0,1,.42-.34l.09-.06a4.32,4.32,0,0,1,2.33-.74h.09l.44,0a4,4,0,0,1,.5.09,2.42,2.42,0,0,1,.48.13,3.6,3.6,0,0,1,.84.4,2,2,0,0,1,.43.29,3.26,3.26,0,0,1,.4.34,2.93,2.93,0,0,1,.37.42l.11.14a4.26,4.26,0,0,1,.8,2.2.28.28,0,0,1,0,.09A2.26,2.26,0,0,1,282.05,311.18Z" transform="translate(-119.56 -106.55)"/>
      <path class="cls-5" d="M330.93,313.65a3.75,3.75,0,0,1-3.74,3.74h0a2.88,2.88,0,0,1-.59-.06h-.08a4,4,0,0,1-1.11-.4,3.63,3.63,0,0,1-1.14-1,2.29,2.29,0,0,1-.28-.41,3.33,3.33,0,0,1-.24-.46,2.74,2.74,0,0,1-.15-.51,3,3,0,0,1-.1-.52c0-.13,0-.25,0-.38a3.74,3.74,0,0,1,3.59-3.74h.35a2.35,2.35,0,0,1,.54.07,2.72,2.72,0,0,1,.49.13,2.67,2.67,0,0,1,.46.2,3.52,3.52,0,0,1,1.17.93,3.61,3.61,0,0,1,.33.44,3.11,3.11,0,0,1,.27.55l.09.22a2.75,2.75,0,0,1,.11.41A3.42,3.42,0,0,1,330.93,313.65Z" transform="translate(-119.56 -106.55)"/>
      <g>
        <path class="cls-5" d="M251.94,341a.41.41,0,0,1,0,.11,3.83,3.83,0,0,1-.18,1.07h0a2.08,2.08,0,0,1-.12.32,17.55,17.55,0,0,1-4.85.27,19.21,19.21,0,0,1-2-.27l-.54-.1a21.43,21.43,0,0,1-4.8-1.64l-.28-.14a29.68,29.68,0,0,1-7.15-5.13,55.33,55.33,0,0,1-10.06-13.69,88.23,88.23,0,0,1-5.51-11.39l5.15,1.84a48.32,48.32,0,0,0,3.87,7.62,52.28,52.28,0,0,0,9.36,12.67A25.49,25.49,0,0,0,241,337a17.52,17.52,0,0,0,4.5,1.5l.33.06a15.17,15.17,0,0,0,5.12-.06l.15.17a3.72,3.72,0,0,1,.33.45,4,4,0,0,1,.24.46,4.5,4.5,0,0,1,.16.48A3.66,3.66,0,0,1,251.94,341Z" transform="translate(-119.56 -106.55)"/>
        <path class="cls-5" d="M251.94,341a.41.41,0,0,1,0,.11,3.83,3.83,0,0,1-.18,1.07h0a2.08,2.08,0,0,1-.12.32,2.29,2.29,0,0,1-.1.23h0a3.74,3.74,0,0,1-6.57.11,3.59,3.59,0,0,1-.17-.34,1.8,1.8,0,0,1-.08-.21,2.38,2.38,0,0,1-.15-.52h0a3.07,3.07,0,0,1-.07-.53,1.93,1.93,0,0,1,0-.24,3.74,3.74,0,0,1,.11-.89,4.42,4.42,0,0,1,.15-.48h0a2.67,2.67,0,0,1,.2-.46,3.76,3.76,0,0,1,.32-.46l.23-.27a3.72,3.72,0,0,1,5.45,0l.15.17a3.72,3.72,0,0,1,.33.45,4,4,0,0,1,.24.46,4.5,4.5,0,0,1,.16.48A3.66,3.66,0,0,1,251.94,341Z" transform="translate(-119.56 -106.55)"/>
      </g>
      <path class="cls-5" d="M296.28,251.84h0a4.38,4.38,0,0,1-.08.82,2.72,2.72,0,0,1-.13.51,2.36,2.36,0,0,1-.21.52.61.61,0,0,1-.07.14,2.82,2.82,0,0,1-.21.38,4.5,4.5,0,0,1-1.07,1.15,4.37,4.37,0,0,1-1,.57h0a2.76,2.76,0,0,1-.51.16,4.35,4.35,0,0,1-.52.1,4.07,4.07,0,0,1-.5,0h0a4,4,0,0,1-.7-.06,2.57,2.57,0,0,1-.48-.11,2.81,2.81,0,0,1-.49-.16l-.25-.11h0l-.22-.12h0a4.3,4.3,0,0,1-1.19-1h0a3.9,3.9,0,0,1-.25-.36v0a.59.59,0,0,1-.08-.11h0a2.77,2.77,0,0,1-.26-.48,3.07,3.07,0,0,1-.2-.5,4.8,4.8,0,0,1-.18-.77,4,4,0,0,1,0-.5v-.09c0-.14,0-.27,0-.41a3,3,0,0,1,.08-.51,2.26,2.26,0,0,1,.11-.37,4.33,4.33,0,0,1,2.84-2.88,3.8,3.8,0,0,1,.51-.13,4.18,4.18,0,0,1,.51-.07h.5a3.1,3.1,0,0,1,.69.08,2.72,2.72,0,0,1,.49.13,4.14,4.14,0,0,1,.49.19,2.82,2.82,0,0,1,.48.27h0a4.18,4.18,0,0,1,1.61,1.82c.06.12.11.25.16.38a2.54,2.54,0,0,1,.15.49,4,4,0,0,1,.09.5A3.91,3.91,0,0,1,296.28,251.84Z" transform="translate(-119.56 -106.55)"/>
      <path class="cls-5" d="M289,153.63a1.34,1.34,0,0,1,0,.2c-.39,2.76-3,5-5.83,3.82a4.33,4.33,0,0,1-2.31-6.14,4.35,4.35,0,0,1,8.07,1.28,4.34,4.34,0,0,1,.07.52C289,153.42,289,153.52,289,153.63Z" transform="translate(-119.56 -106.55)"/>
      <path class="cls-5" d="M254.71,110.43v0a3.63,3.63,0,0,1-.29,1.44,3.88,3.88,0,0,1-.22.46,3.19,3.19,0,0,1-.26.38l0,.06a2.93,2.93,0,0,1-.37.42,3.87,3.87,0,0,1-5.69-.31,1.33,1.33,0,0,1-.14-.19,2.11,2.11,0,0,1-.18-.27,2.73,2.73,0,0,1-.25-.48,2.48,2.48,0,0,1-.17-.48,3.6,3.6,0,0,1-.15-1c0-.14,0-.29,0-.43a3,3,0,0,1,.11-.52,2.52,2.52,0,0,1,.17-.53,3.55,3.55,0,0,1,.28-.55l.17-.24a3.84,3.84,0,0,1,6.25,0,3.14,3.14,0,0,1,.4.66,2.69,2.69,0,0,1,.21.56,3.35,3.35,0,0,1,.11.55A2.92,2.92,0,0,1,254.71,110.43Z" transform="translate(-119.56 -106.55)"/>
      <path class="cls-5" d="M188.32,226.24a4.54,4.54,0,0,1-3.16,4.23,4.48,4.48,0,0,1-5.36-2.23,2.91,2.91,0,0,1-.22-.51,4.36,4.36,0,0,1-.26-1.49,4.46,4.46,0,0,1,.62-2.27l0-.06a2.65,2.65,0,0,1,.26-.39,4.54,4.54,0,0,1,5-1.54,4.47,4.47,0,0,1,2.54,2.16,3.39,3.39,0,0,1,.29.68A4.15,4.15,0,0,1,188.32,226.24Z" transform="translate(-119.56 -106.55)"/>
    </g>
  </g>
</svg>
