<svg id="Layer_1" data-name="Layer 1" xmlns="http://www.w3.org/2000/svg" width="317.02" height="596.76" viewBox="0 0 317.02 596.76">
  <defs>
    <style>
      .cls-1 {
        fill: #2b478b;
      }

      .cls-2 {
        fill: #c0d8fb;
      }

      .cls-3 {
        fill: #cbe1fd;
      }
    </style>
  </defs>
  <g>
    <rect class="cls-1" width="317.02" height="596.76" rx="34.86"/>
    <g>
      <path class="cls-2" d="M602.29,286.46V787.79a30.9,30.9,0,0,1-30.7,30.92H347.38a30.9,30.9,0,0,1-30.69-30.92V286.46a30.9,30.9,0,0,1,30.69-30.92H571.61A30.9,30.9,0,0,1,602.29,286.46Z" transform="translate(-300.98 -240.75)"/>
      <path class="cls-3" d="M571.61,255.54,350.16,818.72h-2.78a30.9,30.9,0,0,1-30.69-30.92V286.46a30.9,30.9,0,0,1,30.69-30.92Z" transform="translate(-300.98 -240.75)"/>
    </g>
    <rect class="cls-1" x="97.78" y="3.5" width="121.46" height="29.94" rx="11.59"/>
  </g>
</svg>
