<svg id="Слой_1" data-name="Слой 1" xmlns="http://www.w3.org/2000/svg" width="700.97" height="1319.53" viewBox="0 0 700.97 1319.53">
  <defs>
    <style>
      .cls-1 {
        fill: #2b478b;
      }

      .cls-2 {
        fill: #c0d8fb;
      }

      .cls-3 {
        fill: #cbe1fd;
      }
    </style>
  </defs>
  <g>
    <rect class="cls-1" width="700.97" height="1319.53" rx="77.08"/>
    <g>
      <path class="cls-2" d="M1296.83,454.47V1563c0,37.61-30.55,68.37-67.88,68.37H733.2c-37.32,0-67.86-30.76-67.86-68.37V454.47c0-37.61,30.54-68.37,67.86-68.37H1229C1266.28,386.1,1296.83,416.86,1296.83,454.47Z" transform="translate(-630.6 -353.4)"/>
      <path class="cls-3" d="M1229,386.1,739.34,1631.39H733.2c-37.32,0-67.86-30.76-67.86-68.37V454.47c0-37.61,30.54-68.37,67.86-68.37Z" transform="translate(-630.6 -353.4)"/>
    </g>
    <rect class="cls-1" x="216.2" y="7.73" width="268.57" height="66.2" rx="25.62"/>
  </g>
</svg>
