<svg id="Layer_1" data-name="Layer 1" xmlns="http://www.w3.org/2000/svg" viewBox="0 0 63.22 41.4"><defs><style>.cls-1{fill:#96745a;}.cls-2{opacity:0.65;}.cls-3{opacity:0.76;}.cls-4{fill:#835f46;}.cls-5{fill:#4d4d4d;}</style></defs><path class="cls-1" d="M988.08,535l-57,.23a2.71,2.71,0,0,0-2.93,2.55c0,.33,0,.74,0,1.25l-.38,16.26c0,1.57-.13,3-.05,4a1.82,1.82,0,0,0,1.93,1.48l58.83-.14a2.16,2.16,0,0,0,2.28-1.77c.07-.78.07-1.8.07-3.08l0-8.83C990.84,540.33,991.79,534.94,988.08,535Zm-52.91,3.55a1.09,1.09,0,1,1,1.28-1.08A1.18,1.18,0,0,1,935.17,538.5Zm47.46-.11a1.1,1.1,0,1,1,1.28-1.08A1.2,1.2,0,0,1,982.63,538.39Z" transform="translate(-927.74 -519.28)"/><g class="cls-2"><g class="cls-3"><path class="cls-4" d="M941.38,541.43c-1.14.05-2.14.12-2.88.21C938.5,541.64,939.58,541.54,941.38,541.43Z" transform="translate(-927.74 -519.28)"/><path class="cls-4" d="M938.5,541.68v-.07c.7-.1,1.67-.17,2.89-.22v.08C939.61,541.57,938.51,541.68,938.5,541.68Z" transform="translate(-927.74 -519.28)"/></g><g class="cls-3"><path class="cls-4" d="M956.61,541.53a109.91,109.91,0,0,0-15.23-.1C947.13,541.2,956.61,541.53,956.61,541.53Z" transform="translate(-927.74 -519.28)"/><path class="cls-4" d="M956.61,541.57c-.1,0-9.54-.33-15.23-.1v-.08a113.13,113.13,0,0,1,15.24.1Zm-10.76-.26c3.36,0,6.89.07,8.95.13-3.66-.23-7.23-.21-10-.12Z" transform="translate(-927.74 -519.28)"/></g><g class="cls-3"><path class="cls-4" d="M930.27,543.17c2.59.13,5.14,0,7.69,0-3.11,0-8.22-.1-8.22-.13S930,543.16,930.27,543.17Z" transform="translate(-927.74 -519.28)"/><path class="cls-4" d="M933.37,543.28c-1,0-2.07,0-3.1-.07-.56,0-.57-.12-.58-.15h0v0c.15,0,4.89.09,8.21.12v.08l-2.13,0ZM930,543.1a1.37,1.37,0,0,0,.33,0c1.53.08,3.08.08,4.59,0l-2.18,0C931,543.13,930.28,543.12,930,543.1Z" transform="translate(-927.74 -519.28)"/></g><g class="cls-3"><path class="cls-4" d="M938,543.18l2.27,0C939.47,543.18,938.72,543.18,938,543.18Z" transform="translate(-927.74 -519.28)"/><path class="cls-4" d="M940.21,543.24l-2.25,0v-.08c.88,0,1.6,0,2.27,0v.08Z" transform="translate(-927.74 -519.28)"/></g><g class="cls-3"><path class="cls-4" d="M933.15,542.07l-.86-.11-.08.09A7.41,7.41,0,0,0,933.15,542.07Z" transform="translate(-927.74 -519.28)"/><path class="cls-4" d="M932.86,542.12c-.22,0-.44,0-.65,0h-.08l.14-.16,1.34.17-.46,0Zm-.56-.1h.23l-.22,0Z" transform="translate(-927.74 -519.28)"/></g><g class="cls-3"><path class="cls-4" d="M969.05,542c5-.25,13.13.06,13.13.06A82.11,82.11,0,0,0,969.05,542Z" transform="translate(-927.74 -519.28)"/><path class="cls-4" d="M982.17,542.09c-.08,0-8.22-.31-13.12-.06V542a83,83,0,0,1,13.13.06Zm-8.74-.24c2.73,0,5.52.06,7.19.11a79.27,79.27,0,0,0-8.63-.09Z" transform="translate(-927.74 -519.28)"/></g><g class="cls-3"><path class="cls-4" d="M969.05,542c-1,0-1.84.12-2.48.22C966.57,542.21,967.5,542.1,969.05,542Z" transform="translate(-927.74 -519.28)"/><path class="cls-4" d="M966.57,542.25v-.08c.6-.09,1.44-.17,2.49-.22V542C967.52,542.14,966.58,542.25,966.57,542.25Z" transform="translate(-927.74 -519.28)"/></g><g class="cls-3"><path class="cls-4" d="M961.43,542.68l-3.53,0-7.15-.07,11.6.24a16.81,16.81,0,0,0,2.46,0A19.68,19.68,0,0,0,961.43,542.68Z" transform="translate(-927.74 -519.28)"/><path class="cls-4" d="M963.63,542.87l-.91,0h-.37l-11.6-.24v-.07l10.69.11h.89a11.9,11.9,0,0,1,2.49.09l.18,0-.19,0A7.38,7.38,0,0,1,963.63,542.87Zm-5-.18,3.72.08h.37a16.24,16.24,0,0,0,1.85,0,14.72,14.72,0,0,0-2.24,0h-.9Z" transform="translate(-927.74 -519.28)"/></g><g class="cls-3"><path class="cls-4" d="M967.28,541.17c-1.65,0-3.31-.06-5-.09a2.38,2.38,0,0,0,.94.16A33.68,33.68,0,0,0,967.28,541.17Z" transform="translate(-927.74 -519.28)"/><path class="cls-4" d="M964.78,541.31l-1.52,0a2.25,2.25,0,0,1-1-.17l-.16-.07h.18l1.45,0c1.15,0,2.34,0,3.51,0v.07C966.5,541.27,965.66,541.31,964.78,541.31Zm-2.22-.19a2.59,2.59,0,0,0,.7.08c1,0,2,0,2.87,0l-2.36-.05Z" transform="translate(-927.74 -519.28)"/></g><g class="cls-3"><path class="cls-4" d="M986.63,541.32l.67,0C987.08,541.29,986.85,541.3,986.63,541.32Z" transform="translate(-927.74 -519.28)"/><path class="cls-4" d="M986.63,541.36v-.08l.67,0v.08Z" transform="translate(-927.74 -519.28)"/></g><g class="cls-3"><path class="cls-4" d="M984.1,541.46a18,18,0,0,0,2.53-.14C985.78,541.35,984.93,541.38,984.1,541.46Z" transform="translate(-927.74 -519.28)"/><path class="cls-4" d="M984.55,541.51h-.46l-.45,0,.45,0c.74-.07,1.51-.1,2.25-.13h.29v.08l-.69.06A12.81,12.81,0,0,1,984.55,541.51Z" transform="translate(-927.74 -519.28)"/></g><g class="cls-3"><path class="cls-4" d="M981.24,543.15a7.38,7.38,0,0,0,.94,0l-.86-.11Z" transform="translate(-927.74 -519.28)"/><path class="cls-4" d="M981.89,543.22c-.22,0-.44,0-.65,0h-.08l.14-.16,1.34.16-.46,0Zm-.56-.1.23,0-.22,0Z" transform="translate(-927.74 -519.28)"/></g><g class="cls-3"><path class="cls-4" d="M984.12,536.36l0,0-.15.11,3.86.1C986.57,536.49,985.33,536.41,984.12,536.36Z" transform="translate(-927.74 -519.28)"/><path class="cls-4" d="M980.67,536.28c-3.23,0-6.1.09-8.09.21,2.42-.1,5.5-.09,8.26-.06Z" transform="translate(-927.74 -519.28)"/><path class="cls-4" d="M980.79,536.39l-3.74,0H976c1.41,0,3-.07,4.73-.06l-.08-.08c-3.32,0-6.22.1-8,.21v.08c2.43-.1,5.53-.09,8.31-.06Z" transform="translate(-927.74 -519.28)"/><path class="cls-4" d="M984.16,536.33l-.06,0,0,0,1.93.1-2,0-.11.08c2.27,0,3.87.1,3.91.1v-.08C986.59,536.45,985.36,536.38,984.16,536.33Z" transform="translate(-927.74 -519.28)"/></g><g class="cls-3"><path class="cls-4" d="M982.42,539.44c-2.65,0-5.31,0-8,0a9.84,9.84,0,0,0,1.5.1C978.11,539.52,980.29,539.51,982.42,539.44Z" transform="translate(-927.74 -519.28)"/><path class="cls-4" d="M978.4,539.55l-2.44,0a9.8,9.8,0,0,1-1.51-.09l-.45-.08h.46l2.33,0c1.84,0,3.76,0,5.63,0v.08C981.16,539.52,979.81,539.54,978.4,539.55Zm-3-.1h0Z" transform="translate(-927.74 -519.28)"/></g></g><g class="cls-2"><g class="cls-3"><path class="cls-4" d="M975.67,546.46c1.14-.05,2.14-.11,2.88-.21C978.55,546.25,977.47,546.35,975.67,546.46Z" transform="translate(-927.74 -519.28)"/><path class="cls-4" d="M975.67,546.5v-.08c1.77-.1,2.87-.21,2.88-.21v.08C977.86,546.38,976.89,546.45,975.67,546.5Z" transform="translate(-927.74 -519.28)"/></g><g class="cls-3"><path class="cls-4" d="M960.44,546.36a109.91,109.91,0,0,0,15.23.1C969.92,546.7,960.44,546.36,960.44,546.36Z" transform="translate(-927.74 -519.28)"/><path class="cls-4" d="M968.74,546.71c-2.56,0-5.44-.07-8.31-.31v-.08c.1,0,9.54.33,15.23.1v.08C974,546.6,971.59,546.71,968.74,546.71Zm-6.49-.26c3.66.23,7.23.21,10,.13C968.61,546.61,964.53,546.52,962.25,546.45Z" transform="translate(-927.74 -519.28)"/></g><g class="cls-3"><path class="cls-4" d="M986.78,544.72c-2.59-.13-5.14,0-7.69,0,3.11,0,8.22.1,8.22.13S987,544.73,986.78,544.72Z" transform="translate(-927.74 -519.28)"/><path class="cls-4" d="M987.3,544.87c-.15,0-4.89-.09-8.21-.12v-.08l2.13,0c1.81,0,3.69,0,5.56,0,.57,0,.57.12.58.15h-.05Zm-5.12-.16,2.18,0c1.68,0,2.41,0,2.74,0a2.19,2.19,0,0,0-.33,0C985.24,544.68,983.69,544.69,982.18,544.71Z" transform="translate(-927.74 -519.28)"/></g><g class="cls-3"><path class="cls-4" d="M979.09,544.71l-2.27,0C977.58,544.71,978.33,544.71,979.09,544.71Z" transform="translate(-927.74 -519.28)"/><path class="cls-4" d="M978.74,544.75l-1.92,0v-.08l2.27,0v.08Z" transform="translate(-927.74 -519.28)"/></g><g class="cls-3"><path class="cls-4" d="M983.9,545.82l.86.11.08-.09A7.38,7.38,0,0,0,983.9,545.82Z" transform="translate(-927.74 -519.28)"/><path class="cls-4" d="M984.78,546l-1.34-.17.46,0c.31,0,.63,0,.94,0h.08Zm-.26-.11.22,0v0Z" transform="translate(-927.74 -519.28)"/></g><g class="cls-3"><path class="cls-4" d="M948,545.9c-5,.25-13.13-.06-13.13-.06A82.11,82.11,0,0,0,948,545.9Z" transform="translate(-927.74 -519.28)"/><path class="cls-4" d="M941.72,546.17a68.1,68.1,0,0,1-6.85-.29v-.08c.08,0,8.22.31,13.12.06v.08C946.54,546.05,944.3,546.17,941.72,546.17Zm-5.29-.24a82.13,82.13,0,0,0,8.63.1C941.91,546.07,938.4,546,936.43,545.93Z" transform="translate(-927.74 -519.28)"/></g><g class="cls-3"><path class="cls-4" d="M948,545.9c1,0,1.84-.12,2.49-.22C950.49,545.68,949.55,545.79,948,545.9Z" transform="translate(-927.74 -519.28)"/><path class="cls-4" d="M948,545.94v-.08c1.53-.11,2.47-.22,2.48-.22v.08C949.89,545.81,949.05,545.89,948,545.94Z" transform="translate(-927.74 -519.28)"/></g><g class="cls-3"><path class="cls-4" d="M955.62,545.21l3.53,0,7.15.08-11.6-.24a15.53,15.53,0,0,0-2.46,0A19.68,19.68,0,0,0,955.62,545.21Z" transform="translate(-927.74 -519.28)"/><path class="cls-4" d="M966.3,545.36l-10.69-.11h-.89a11.28,11.28,0,0,1-2.49-.09l-.18,0,.19,0a12.05,12.05,0,0,1,2.09-.06h.38l11.59.24Zm-10.81-.19h.13l2.8,0-3.72-.07h-.37a14.24,14.24,0,0,0-1.85,0,14.62,14.62,0,0,0,2.24.05Z" transform="translate(-927.74 -519.28)"/></g><g class="cls-3"><path class="cls-4" d="M949.77,546.73c1.65,0,3.31,0,5,.08a2.38,2.38,0,0,0-.94-.16A31.7,31.7,0,0,0,949.77,546.73Z" transform="translate(-927.74 -519.28)"/><path class="cls-4" d="M954.91,546.85h-.18l-1.45,0c-1.15,0-2.34-.06-3.51-.06v-.07a33,33,0,0,1,4-.08,2.25,2.25,0,0,1,1,.17Zm-4-.16,2.36,0,1.21,0a3.06,3.06,0,0,0-.7-.08C952.79,546.65,951.83,546.65,950.92,546.69Z" transform="translate(-927.74 -519.28)"/></g><g class="cls-3"><path class="cls-4" d="M930.42,546.57l-.67,0C930,546.6,930.2,546.59,930.42,546.57Z" transform="translate(-927.74 -519.28)"/><path class="cls-4" d="M929.75,546.64v-.08l.67,0v.08Z" transform="translate(-927.74 -519.28)"/></g><g class="cls-3"><path class="cls-4" d="M933,546.43a18,18,0,0,0-2.53.14C931.27,546.54,932.12,546.51,933,546.43Z" transform="translate(-927.74 -519.28)"/><path class="cls-4" d="M930.42,546.61v-.08l.69-.06a11.46,11.46,0,0,1,1.85-.08l.45,0-.45,0c-.74.07-1.51.1-2.25.13Z" transform="translate(-927.74 -519.28)"/></g><g class="cls-3"><path class="cls-4" d="M935.81,544.74a5.9,5.9,0,0,0-.94,0l.86.1Z" transform="translate(-927.74 -519.28)"/><path class="cls-4" d="M935.75,544.87l-1.34-.17.46,0a5.9,5.9,0,0,1,.94,0h.08Zm-.26-.12.22,0h0Z" transform="translate(-927.74 -519.28)"/></g></g><g class="cls-2"><g class="cls-3"><path class="cls-4" d="M955.05,551.6c-1.14,0-2.14.11-2.88.21C952.17,551.81,953.25,551.71,955.05,551.6Z" transform="translate(-927.74 -519.28)"/><path class="cls-4" d="M952.17,551.85v-.08c.7-.09,1.67-.16,2.89-.21v.08C953.28,551.74,952.18,551.85,952.17,551.85Z" transform="translate(-927.74 -519.28)"/></g><g class="cls-3"><path class="cls-4" d="M970.28,551.7a109.91,109.91,0,0,0-15.23-.1C960.8,551.36,970.28,551.7,970.28,551.7Z" transform="translate(-927.74 -519.28)"/><path class="cls-4" d="M970.28,551.74c-.1,0-9.54-.33-15.23-.1v-.08a111.32,111.32,0,0,1,15.23.1Zm-10.76-.26c3.36,0,6.89.07,9,.13-3.66-.23-7.23-.21-10-.13Z" transform="translate(-927.74 -519.28)"/></g><g class="cls-3"><path class="cls-4" d="M943.94,553.34c2.59.13,5.14,0,7.69,0-3.11,0-8.22-.1-8.22-.13S943.71,553.33,943.94,553.34Z" transform="translate(-927.74 -519.28)"/><path class="cls-4" d="M947,553.44c-1,0-2.07,0-3.1-.06-.57,0-.58-.12-.58-.15h0v0c.15,0,4.88.09,8.21.12v.08l-2.13,0Zm-3.42-.17a2,2,0,0,0,.32,0c1.54.08,3.09.07,4.6.05l-2.19,0C944.68,553.3,943.94,553.29,943.62,553.27Z" transform="translate(-927.74 -519.28)"/></g><g class="cls-3"><path class="cls-4" d="M951.63,553.35l2.27,0C953.14,553.35,952.39,553.35,951.63,553.35Z" transform="translate(-927.74 -519.28)"/><path class="cls-4" d="M953.88,553.41l-2.25,0v-.08c.87,0,1.59,0,2.27,0v.08Z" transform="translate(-927.74 -519.28)"/></g><g class="cls-3"><path class="cls-4" d="M946.82,552.24l-.86-.11-.08.09A7.38,7.38,0,0,0,946.82,552.24Z" transform="translate(-927.74 -519.28)"/><path class="cls-4" d="M946.53,552.29c-.22,0-.44,0-.65,0h-.08l.14-.16,1.34.17-.46,0Zm-.56-.1h.23l-.22,0Z" transform="translate(-927.74 -519.28)"/></g><g class="cls-3"><path class="cls-4" d="M976.65,548.52c5-.25,13.12.06,13.12.06A82,82,0,0,0,976.65,548.52Z" transform="translate(-927.74 -519.28)"/><path class="cls-4" d="M989.77,548.62c-.08,0-8.22-.31-13.12-.06v-.08a83.17,83.17,0,0,1,13.14.06Zm-8.74-.24c2.73,0,5.51.06,7.18.11a82.13,82.13,0,0,0-8.63-.1Z" transform="translate(-927.74 -519.28)"/></g><g class="cls-3"><path class="cls-4" d="M982.72,552.16c-1,.05-1.84.12-2.49.22C980.23,552.38,981.17,552.27,982.72,552.16Z" transform="translate(-927.74 -519.28)"/><path class="cls-4" d="M980.24,552.42l0-.08c.61-.09,1.45-.17,2.5-.22v.08C981.19,552.31,980.25,552.42,980.24,552.42Z" transform="translate(-927.74 -519.28)"/></g><g class="cls-3"><path class="cls-4" d="M975.1,552.85l-3.54,0-7.14-.08L976,553a15.49,15.49,0,0,0,2.46,0A19.59,19.59,0,0,0,975.1,552.85Z" transform="translate(-927.74 -519.28)"/><path class="cls-4" d="M977.3,553l-.91,0H976l-11.59-.24v-.07l10.68.11h.9a11.28,11.28,0,0,1,2.49.09l.17.05-.18,0A7.38,7.38,0,0,1,977.3,553Zm-5-.18,3.72.08h.37a14.09,14.09,0,0,0,1.84,0,15.83,15.83,0,0,0-2.23,0l-.9,0Z" transform="translate(-927.74 -519.28)"/></g><g class="cls-3"><path class="cls-4" d="M983.57,551.33c-2.53,0-5.06-.05-7.58-.08a5.36,5.36,0,0,0,1.43.16C979.46,551.46,981.54,551.44,983.57,551.33Z" transform="translate(-927.74 -519.28)"/><path class="cls-4" d="M979.74,551.48l-2.32,0a5.37,5.37,0,0,1-1.45-.16l-.25-.08H976l2.21,0c1.76,0,3.58.06,5.36,0v.08C982.37,551.44,981.08,551.47,979.74,551.48Zm-3.4-.19a7.3,7.3,0,0,0,1.08.08q2.31.06,4.38,0l-3.6,0Z" transform="translate(-927.74 -519.28)"/></g><g class="cls-3"><path class="cls-4" d="M972.44,537.86a18.11,18.11,0,0,0,2.54-.14C974.13,537.76,973.28,537.78,972.44,537.86Z" transform="translate(-927.74 -519.28)"/><path class="cls-4" d="M972.9,537.92l-.46,0-.46,0,.46,0c.74-.07,1.51-.1,2.25-.13H975v.08l-.7.06C973.83,537.87,973.36,537.91,972.9,537.92Z" transform="translate(-927.74 -519.28)"/></g><g class="cls-3"><path class="cls-4" d="M969.59,539.56a7.34,7.34,0,0,0,.94,0l-.87-.11Z" transform="translate(-927.74 -519.28)"/><path class="cls-4" d="M970.23,539.63l-.65,0h-.08l.14-.16,1.34.17-.45,0Zm-.56-.1h.23l-.22,0Z" transform="translate(-927.74 -519.28)"/></g></g><g class="cls-2"><g class="cls-3"><path class="cls-4" d="M987.88,551.32c1.14,0,2.14-.11,2.88-.21C990.76,551.11,989.68,551.22,987.88,551.32Z" transform="translate(-927.74 -519.28)"/><path class="cls-4" d="M987.88,551.36v-.07c1.77-.11,2.87-.22,2.88-.22v.08C990.07,551.24,989.1,551.31,987.88,551.36Z" transform="translate(-927.74 -519.28)"/></g><g class="cls-3"><path class="cls-4" d="M974.11,556.6a111.51,111.51,0,0,0,15.23.1C983.58,556.93,974.11,556.6,974.11,556.6Z" transform="translate(-927.74 -519.28)"/><path class="cls-4" d="M982.41,557c-2.56,0-5.44-.07-8.31-.32v-.07c.09,0,9.54.33,15.22.1v.07C987.71,556.83,985.25,556.94,982.41,557Zm-6.5-.26c3.67.23,7.24.21,10,.12C982.27,556.84,978.2,556.75,975.91,556.69Z" transform="translate(-927.74 -519.28)"/></g><g class="cls-3"><path class="cls-4" d="M936.53,538.27c11.7,0,27.05.05,27.06.07a11.16,11.16,0,0,0-2-.12c-8.4-.09-16.7,0-25,0Z" transform="translate(-927.74 -519.28)"/><path class="cls-4" d="M933.92,538.26h0Z" transform="translate(-927.74 -519.28)"/><path class="cls-4" d="M933.86,538.22h-1.49v.08H934Z" transform="translate(-927.74 -519.28)"/><path class="cls-4" d="M961.56,538.19c-7.09-.09-14.22,0-21.11,0l-3.81,0-.2.1c12.3,0,26.92.05,27.14.07v0h0S963.59,538.21,961.56,538.19Zm1.17.1h-2.36l-8,0h-8.29c5.74,0,11.61,0,17.45,0l1.22,0Z" transform="translate(-927.74 -519.28)"/></g><g class="cls-3"><path class="cls-4" d="M987.79,552.84l-2.27,0C986.28,552.84,987,552.84,987.79,552.84Z" transform="translate(-927.74 -519.28)"/><path class="cls-4" d="M987.45,552.88l-1.93,0v-.08l2.27,0v.08Z" transform="translate(-927.74 -519.28)"/></g><g class="cls-3"><path class="cls-4" d="M962.67,549.38l3.27.11.29-.09C965.05,549.37,963.86,549.37,962.67,549.38Z" transform="translate(-927.74 -519.28)"/><path class="cls-4" d="M966,549.52l-3.28-.1v-.08c1.18,0,2.38,0,3.56,0h.24Zm-.94-.1.92,0,.05,0Z" transform="translate(-927.74 -519.28)"/></g><g class="cls-3"><path class="cls-4" d="M961.67,556.14c-5,.25-13.13-.06-13.13-.06A82.11,82.11,0,0,0,961.67,556.14Z" transform="translate(-927.74 -519.28)"/><path class="cls-4" d="M955.39,556.41c-2.13,0-4.5-.07-6.85-.29V556c.09,0,8.23.3,13.12.06v.08C960.21,556.28,958,556.4,955.39,556.41Zm-5.29-.24a81.89,81.89,0,0,0,8.63.09C955.58,556.3,952.07,556.22,950.1,556.17Z" transform="translate(-927.74 -519.28)"/></g><g class="cls-3"><path class="cls-4" d="M961.67,556.14a22.48,22.48,0,0,0,2.48-.23S963.22,556,961.67,556.14Z" transform="translate(-927.74 -519.28)"/><path class="cls-4" d="M961.67,556.18v-.08c1.53-.11,2.48-.22,2.49-.22V556C963.56,556.05,962.72,556.12,961.67,556.18Z" transform="translate(-927.74 -519.28)"/></g><g class="cls-3"><path class="cls-4" d="M969.28,555.45l3.54,0,7.15.08-11.6-.24a14.4,14.4,0,0,0-2.46,0A20.65,20.65,0,0,0,969.28,555.45Z" transform="translate(-927.74 -519.28)"/><path class="cls-4" d="M980,555.6l-10.69-.12-.89,0a11.87,11.87,0,0,1-2.49-.09l-.18,0,.18,0a12.17,12.17,0,0,1,2.1-.06h.37l11.6.24Zm-10.69-.19,2.81,0-3.72-.08H968a14.1,14.1,0,0,0-1.84,0,16,16,0,0,0,2.23,0C968.72,555.41,969,555.4,969.28,555.41Z" transform="translate(-927.74 -519.28)"/></g><g class="cls-3"><path class="cls-4" d="M963.44,557c1.65,0,3.31,0,5,.08a2.58,2.58,0,0,0-.94-.16A33.63,33.63,0,0,0,963.44,557Z" transform="translate(-927.74 -519.28)"/><path class="cls-4" d="M968.58,557.09h-.18l-1.45,0c-1.15,0-2.34-.06-3.51,0v-.08a35.11,35.11,0,0,1,4-.08,2.61,2.61,0,0,1,1,.17Zm-4-.17L967,557l1.21,0a3.06,3.06,0,0,0-.7-.08C966.45,556.88,965.49,556.89,964.59,556.92Z" transform="translate(-927.74 -519.28)"/></g><g class="cls-3"><path class="cls-4" d="M944.09,556.81c-.23,0-.45,0-.67,0Z" transform="translate(-927.74 -519.28)"/><path class="cls-4" d="M943.42,556.87v-.07l.68,0v.08C943.83,556.87,943.62,556.87,943.42,556.87Z" transform="translate(-927.74 -519.28)"/></g><g class="cls-3"><path class="cls-4" d="M946.62,556.67a16.58,16.58,0,0,0-2.53.14C944.93,556.77,945.78,556.75,946.62,556.67Z" transform="translate(-927.74 -519.28)"/><path class="cls-4" d="M944.09,556.85v-.08l.7-.06a10.42,10.42,0,0,1,1.85-.08l.45,0-.45.05c-.75.07-1.51.1-2.25.12Z" transform="translate(-927.74 -519.28)"/></g><g class="cls-3"><path class="cls-4" d="M949.48,555a7.41,7.41,0,0,0-.94,0l.86.11Z" transform="translate(-927.74 -519.28)"/><path class="cls-4" d="M949.42,555.1l-1.34-.17.46,0a7.38,7.38,0,0,1,.94,0h.08Zm-.26-.11.22,0v0Z" transform="translate(-927.74 -519.28)"/></g></g><g class="cls-2"><path class="cls-4" d="M953.55,549.59c-10.53,0-19-.08-19-.08,6.44.15,12.87.21,19,.23Z" transform="translate(-927.74 -519.28)"/><path class="cls-4" d="M953.59,549.78h0c-6.68,0-13.06-.09-19-.23v-.07c.08,0,8.55.07,19,.09h.05Zm-13-.2c4.12.07,8.43.11,12.86.12v-.07Z" transform="translate(-927.74 -519.28)"/></g><g class="cls-2"><path class="cls-4" d="M927.9,552.51v.15c2.91,0,5.51-.1,7.29-.23C933.05,552.53,930.32,552.54,927.9,552.51Z" transform="translate(-927.74 -519.28)"/><path class="cls-4" d="M928.91,552.7h-1.06v-.23h0c3,0,5.47,0,7.29-.08v.08C933.7,552.57,931.46,552.7,928.91,552.7Zm-1-.08c1.57,0,3,0,4.32-.07-1.27,0-2.71,0-4.31,0A.17.17,0,0,1,927.94,552.62Z" transform="translate(-927.74 -519.28)"/></g><g class="cls-2"><path class="cls-4" d="M937,553.25c1.65,0,3.31,0,5,.09a2.58,2.58,0,0,0-.94-.17A33.68,33.68,0,0,0,937,553.25Z" transform="translate(-927.74 -519.28)"/><path class="cls-4" d="M942.1,553.38h-.18l-1.45,0c-1.15,0-2.34-.06-3.51-.05v-.08a35.11,35.11,0,0,1,4-.08,2.65,2.65,0,0,1,1,.17Zm-4-.16c.79,0,1.59,0,2.36,0l1.21,0a3.74,3.74,0,0,0-.7-.08C940,553.17,939,553.18,938.11,553.22Z" transform="translate(-927.74 -519.28)"/></g><g class="cls-2"><path class="cls-4" d="M939.44,555.45c-2.79-.05-5.64.09-8.46.16C933.81,555.57,936.65,555.54,939.44,555.45Z" transform="translate(-927.74 -519.28)"/><path class="cls-4" d="M931,555.65v-.08l2.33-.07c2-.06,4.11-.13,6.13-.08v.07c-2.48.08-5,.11-7.5.14Z" transform="translate(-927.74 -519.28)"/></g><g class="cls-2"><path class="cls-4" d="M952.18,559c-6.07,0-12.19,0-18.29,0l16.81.07Z" transform="translate(-927.74 -519.28)"/><path class="cls-4" d="M950.71,559.09,933.89,559v-.08c6.08,0,12.24,0,18.29,0V559Zm-4.78-.1,4.78,0h-4.78Z" transform="translate(-927.74 -519.28)"/></g><path class="cls-5" d="M934.73,519.4l0,17.57a.52.52,0,1,0,1,0l0-17.57Z" transform="translate(-927.74 -519.28)"/><path class="cls-5" d="M982.16,519.28l0,17.58a.52.52,0,1,0,1,0l0-17.57Z" transform="translate(-927.74 -519.28)"/><path d="M948.57,540.77h1V544a1.63,1.63,0,0,0,.07.59.6.6,0,0,0,.24.28.76.76,0,0,0,.41.1.8.8,0,0,0,.44-.11.65.65,0,0,0,.25-.3,2.09,2.09,0,0,0,.07-.68v-3.13h1v3a4.2,4.2,0,0,1-.09,1.06,1.4,1.4,0,0,1-.32.56,1.48,1.48,0,0,1-.56.41,1.83,1.83,0,0,1-.73.13,1.75,1.75,0,0,1-.95-.25,1.51,1.51,0,0,1-.58-.63,3.24,3.24,0,0,1-.18-1.28Z" transform="translate(-927.74 -519.28)"/><path d="M953.09,540.77H954l2.15,3.3v-3.3h1v5h-.92l-2.15-3.29v3.29h-1Z" transform="translate(-927.74 -519.28)"/><path d="M958.27,540.77h1.14A3.7,3.7,0,0,1,961,541a2.07,2.07,0,0,1,.88.88,3,3,0,0,1,.15,2.5,2.15,2.15,0,0,1-.53.81,1.93,1.93,0,0,1-.73.44,5.47,5.47,0,0,1-1.38.12h-1.15Zm1,.92v3.17h.45a2.25,2.25,0,0,0,1-.15,1.14,1.14,0,0,0,.48-.51,1.78,1.78,0,0,0,.19-.87,1.68,1.68,0,0,0-.45-1.25,1.81,1.81,0,0,0-1.29-.39Z" transform="translate(-927.74 -519.28)"/><path d="M963.17,540.77h2.75v.93h-1.8v.91h1.8v.92h-1.8v1.32h1.8v.94h-2.75Z" transform="translate(-927.74 -519.28)"/><path d="M966.88,540.77h1a3.44,3.44,0,0,1,1.19.14,1.23,1.23,0,0,1,.56.5,1.45,1.45,0,0,1,.22.81,1.36,1.36,0,0,1-.24.83,1.47,1.47,0,0,1-.71.51l1.19,2.23h-1.05l-1.13-2.13h-.09v2.13h-1Zm1,2h.3a1.15,1.15,0,0,0,.63-.12.44.44,0,0,0,.17-.4.51.51,0,0,0-.08-.28.58.58,0,0,0-.23-.18,2,2,0,0,0-.53,0h-.26Z" transform="translate(-927.74 -519.28)"/><path d="M937.84,550.05l-.67.64a2.09,2.09,0,0,0-1.54-.72,1.62,1.62,0,0,0-1.21.49,1.65,1.65,0,0,0-.5,1.21,1.77,1.77,0,0,0,.22.9,1.58,1.58,0,0,0,.62.61,1.75,1.75,0,0,0,.89.22,1.91,1.91,0,0,0,.76-.15,3.05,3.05,0,0,0,.76-.57l.64.68a3.56,3.56,0,0,1-1,.75,2.88,2.88,0,0,1-1.13.21,2.63,2.63,0,0,1-1.92-.74,2.65,2.65,0,0,1,.57-4.19,2.81,2.81,0,0,1,1.36-.35,2.91,2.91,0,0,1,1.2.26A3,3,0,0,1,937.84,550.05Z" transform="translate(-927.74 -519.28)"/><path d="M941.05,549a2.5,2.5,0,0,1,1.83.77,2.59,2.59,0,0,1,.77,1.89,2.53,2.53,0,0,1-.76,1.86,2.63,2.63,0,0,1-3.72,0,2.59,2.59,0,0,1-.75-1.86,2.64,2.64,0,0,1,.35-1.33,2.6,2.6,0,0,1,1-1A2.66,2.66,0,0,1,941.05,549Zm0,.94a1.6,1.6,0,0,0-1.18.48,1.74,1.74,0,0,0-.47,1.24,1.66,1.66,0,0,0,1.66,1.69,1.54,1.54,0,0,0,1.16-.49,1.67,1.67,0,0,0,.48-1.21,1.69,1.69,0,0,0-.48-1.22A1.56,1.56,0,0,0,941,550Z" transform="translate(-927.74 -519.28)"/><path d="M944.56,549.17h.91l2.15,3.3v-3.3h1v5h-.92l-2.15-3.29v3.29h-1Z" transform="translate(-927.74 -519.28)"/><path d="M952.37,549.85l-.71.62a1,1,0,0,0-.76-.51.45.45,0,0,0-.31.1.28.28,0,0,0-.12.22.36.36,0,0,0,.09.24,5.61,5.61,0,0,0,.7.65c.36.3.59.5.66.58a2,2,0,0,1,.42.56,1.4,1.4,0,0,1,.12.58,1.37,1.37,0,0,1-.43,1,1.57,1.57,0,0,1-1.12.4,1.69,1.69,0,0,1-.93-.26,2.06,2.06,0,0,1-.68-.83l.8-.49c.24.45.52.67.84.67a.64.64,0,0,0,.41-.14.45.45,0,0,0,.17-.33.56.56,0,0,0-.13-.35,3.87,3.87,0,0,0-.56-.52,6.11,6.11,0,0,1-1.06-1,1.35,1.35,0,0,1-.24-.73,1.18,1.18,0,0,1,.4-.9,1.38,1.38,0,0,1,1-.37,1.62,1.62,0,0,1,.72.17A2.7,2.7,0,0,1,952.37,549.85Z" transform="translate(-927.74 -519.28)"/><path d="M952.87,549.17h2.78v.94h-.91v4.08h-1v-4.08h-.9Z" transform="translate(-927.74 -519.28)"/><path d="M956.37,549.17h1a3.33,3.33,0,0,1,1.18.14,1.2,1.2,0,0,1,.57.5,1.45,1.45,0,0,1,.22.81,1.36,1.36,0,0,1-.24.83,1.45,1.45,0,0,1-.72.51l1.2,2.23h-1.05l-1.13-2.13h-.09v2.13h-1Zm1,2h.3a1.15,1.15,0,0,0,.63-.12.44.44,0,0,0,.17-.4.51.51,0,0,0-.08-.28.58.58,0,0,0-.23-.18,2,2,0,0,0-.53,0h-.26Z" transform="translate(-927.74 -519.28)"/><path d="M960.34,549.17h1v3.25a1.67,1.67,0,0,0,.07.59.6.6,0,0,0,.24.28.78.78,0,0,0,.41.1.9.9,0,0,0,.44-.11.65.65,0,0,0,.25-.3,2.09,2.09,0,0,0,.07-.68v-3.13h1v3a4.92,4.92,0,0,1-.08,1.06,1.56,1.56,0,0,1-.33.56,1.48,1.48,0,0,1-.56.41,1.83,1.83,0,0,1-.73.13,1.75,1.75,0,0,1-.95-.25,1.51,1.51,0,0,1-.58-.63,3.28,3.28,0,0,1-.17-1.28Z" transform="translate(-927.74 -519.28)"/><path d="M969.47,550.05l-.67.64a2.05,2.05,0,0,0-1.53-.72,1.66,1.66,0,0,0-1.22.49,1.64,1.64,0,0,0-.49,1.21,1.77,1.77,0,0,0,.22.9,1.52,1.52,0,0,0,.62.61,1.74,1.74,0,0,0,.88.22,1.84,1.84,0,0,0,.76-.15,2.88,2.88,0,0,0,.76-.57l.65.68a3.56,3.56,0,0,1-1.05.75,2.88,2.88,0,0,1-1.13.21,2.63,2.63,0,0,1-1.92-.74,2.81,2.81,0,0,1-.41-3.25,2.61,2.61,0,0,1,1-.94,2.78,2.78,0,0,1,1.36-.35,2.91,2.91,0,0,1,1.2.26A3,3,0,0,1,969.47,550.05Z" transform="translate(-927.74 -519.28)"/><path d="M969.81,549.17h2.78v.94h-.91v4.08h-1v-4.08h-.9Z" transform="translate(-927.74 -519.28)"/><path d="M973.18,549.17h1v5h-1Z" transform="translate(-927.74 -519.28)"/><path d="M977.58,549a2.54,2.54,0,0,1,1.84.77,2.71,2.71,0,0,1,0,3.75,2.63,2.63,0,0,1-3.72,0,2.59,2.59,0,0,1-.75-1.86,2.54,2.54,0,0,1,.35-1.33,2.62,2.62,0,0,1,2.27-1.31Zm0,.94a1.58,1.58,0,0,0-1.17.48,1.7,1.7,0,0,0-.48,1.24,1.59,1.59,0,0,0,.6,1.31,1.61,1.61,0,0,0,1.07.38,1.56,1.56,0,0,0,1.16-.49,1.67,1.67,0,0,0,.48-1.21,1.69,1.69,0,0,0-.48-1.22A1.6,1.6,0,0,0,977.57,550Z" transform="translate(-927.74 -519.28)"/><path d="M981.09,549.17H982l2.15,3.3v-3.3h1v5h-.92l-2.15-3.29v3.29h-1Z" transform="translate(-927.74 -519.28)"/></svg>