<svg id="Layer_1" data-name="Layer 1" xmlns="http://www.w3.org/2000/svg" viewBox="0 0 772.41 666.17"><defs><style>.cls-1{fill:#fff;}.cls-2{fill:#47bec4;}</style></defs><g id="Shine"><path class="cls-1" d="M851.83,277.14a4.88,4.88,0,1,1-4.88-4.88A4.89,4.89,0,0,1,851.83,277.14Z" transform="translate(-573.52 -184.41)"/><path class="cls-2" d="M583.27,659.91a4.88,4.88,0,1,1-4.88-4.88A4.87,4.87,0,0,1,583.27,659.91Z" transform="translate(-573.52 -184.41)"/><path class="cls-1" d="M582,438.91a4.88,4.88,0,1,1-5.45,4.22A4.88,4.88,0,0,1,582,438.91Z" transform="translate(-573.52 -184.41)"/><polygon class="cls-2" points="685.46 0.69 688.12 9.79 697.22 12.45 688.12 15.1 685.46 24.2 682.8 15.1 673.7 12.45 682.8 9.79 685.46 0.69"/><polygon class="cls-2" points="16.56 104.85 19.21 113.95 28.32 116.61 19.21 119.27 16.56 128.37 13.9 119.27 4.8 116.61 13.9 113.95 16.56 104.85"/><polygon class="cls-1" points="88.26 0 90.92 9.1 100.02 11.76 90.92 14.42 88.26 23.52 85.6 14.42 76.5 11.76 85.6 9.1 88.26 0"/><polygon class="cls-1" points="760.65 221.51 763.31 230.61 772.41 233.27 763.31 235.93 760.65 245.03 758 235.93 748.89 233.27 758 230.61 760.65 221.51"/><polygon class="cls-1" points="449.94 59.68 452.59 68.78 461.69 71.44 452.59 74.1 449.94 83.2 447.28 74.1 438.18 71.44 447.28 68.78 449.94 59.68"/><polygon class="cls-1" points="74.94 619.88 77.6 628.98 86.7 631.64 77.6 634.3 74.94 643.4 72.28 634.3 63.18 631.64 72.28 628.98 74.94 619.88"/><polygon class="cls-1" points="658.32 642.65 660.98 651.75 670.08 654.41 660.98 657.07 658.32 666.17 655.66 657.07 646.56 654.41 655.66 651.75 658.32 642.65"/><polygon class="cls-2" points="756.89 524.04 759.55 533.14 768.65 535.79 759.55 538.45 756.89 547.55 754.23 538.45 745.13 535.79 754.23 533.14 756.89 524.04"/></g></svg>