<svg id="Layer_1" data-name="Layer 1" xmlns="http://www.w3.org/2000/svg" viewBox="0 0 429.64 100.34"><defs><style>.cls-1{fill:#353535;}</style></defs><path class="cls-1" d="M803.49,425.74c1.1-1.57,3-2.51,5.85-2.84a13.73,13.73,0,0,1,1.86-.14,8.34,8.34,0,0,1,4.93,1.41c-.52,1.21-1.41,3.45-2.66,6.74s-2.58,7.15-4,11.57-2.61,9-3.64,13.6a59.3,59.3,0,0,0-1.53,12.62,10.92,10.92,0,0,0,1,5.13,3.41,3.41,0,0,0,3.22,1.91,5.94,5.94,0,0,0,4.47-2.27,20.42,20.42,0,0,0,3.49-5.79,45.75,45.75,0,0,0,2.35-7.33,13.93,13.93,0,0,1-6.28-3.83,9.77,9.77,0,0,1-2.46-6.91,7.86,7.86,0,0,1,1.63-4.95,10.51,10.51,0,0,1,4.18-3.25,19,19,0,0,0,5.42-5.35,12.26,12.26,0,0,0,2.29-7.05,13.51,13.51,0,0,0-1.41-6.23,10.41,10.41,0,0,0-4.35-4.37,15.42,15.42,0,0,0-7.47-1.61,21.07,21.07,0,0,0-9.79,2.25,24.21,24.21,0,0,0-7.47,5.88,27.13,27.13,0,0,0-4.76,8,23.67,23.67,0,0,0-1.66,8.5,16.35,16.35,0,0,0,1.41,6.79,12.13,12.13,0,0,0,4.4,5.12,16,16,0,0,1-6.79,1.61H785a9.25,9.25,0,0,1-6.15-2.58c-1.66-1.6-2.49-4-2.49-7.13a27.38,27.38,0,0,1,3.46-13.58A36.64,36.64,0,0,1,789,420.88a44.43,44.43,0,0,1,12.64-7.11,40.66,40.66,0,0,1,14-2.54,24.93,24.93,0,0,1,8.62,1.47,14.13,14.13,0,0,1,6.5,4.66,13.44,13.44,0,0,1,2.46,8.42,13.68,13.68,0,0,1-2.44,7.38q-2.44,3.81-8.15,7.22a9.8,9.8,0,0,1,4.41,1.81,10.49,10.49,0,0,1,3.3,4.18,16.23,16.23,0,0,1,1.27,6.9,23.15,23.15,0,0,1-.59,5.13,18.57,18.57,0,0,0,8.35-5.08,10.57,10.57,0,0,1-3.49,4.52,15.71,15.71,0,0,1-5.39,2.61,32.81,32.81,0,0,1-5.4,10.38,31.27,31.27,0,0,1-8.69,7.84,20.09,20.09,0,0,1-10.52,3,12.85,12.85,0,0,1-7.62-2.05,11.51,11.51,0,0,1-4.17-5.59,23.12,23.12,0,0,1-1.3-8,59.22,59.22,0,0,1,2.08-14.92q2.07-8,4.56-14.79T803.49,425.74Zm15.86,32a35,35,0,0,0,.54-5.71,4.67,4.67,0,0,0-.83-3.15,2.45,2.45,0,0,0-1.85-.91,2.49,2.49,0,0,0-2.64,2.74,6.93,6.93,0,0,0,1.29,4.17A9.33,9.33,0,0,0,819.35,457.72Z" transform="translate(-776.39 -411.23)"/><path class="cls-1" d="M846.84,480.23a14.66,14.66,0,0,1-5.85,1.46h-.15a7.09,7.09,0,0,1-5.45-2.17q-2-2.17-2-6.42a74.83,74.83,0,0,1,1.8-13.7,97.11,97.11,0,0,1,5.08-17c1.08-1.6,3-2.56,5.81-2.88a14.49,14.49,0,0,1,1.71-.1,9,9,0,0,1,5.13,1.41,40.88,40.88,0,0,0-3.25,8.26q-1.87,6-3.39,12.64a48.83,48.83,0,0,0-1.52,9.72v.29c0,1,.17,1.56.49,1.56.33-1.17.7-2.6,1.13-4.29.52-2.18,1.14-4.59,1.88-7.23s1.57-5.27,2.54-7.91a52.29,52.29,0,0,1,3.41-7.52,19.42,19.42,0,0,1,4.42-5.59,8.43,8.43,0,0,1,5.52-2,6.22,6.22,0,0,1,3.78,1.2c1.09.8,1.64,2.16,1.64,4.08a12.52,12.52,0,0,1-.59,3.29c-.39,1.35-.81,2.7-1.27,4s-.91,2.7-1.27,4a13.21,13.21,0,0,0-.53,3.39c0,1.4.31,2.1.83,2.1s1.39-.51,2.32-1.53a29.64,29.64,0,0,0,2.56-3.3,15,15,0,0,0,1.51-2.64,10.12,10.12,0,0,1-1.27,4.2,15.57,15.57,0,0,1-3.44,4.62,7.8,7.8,0,0,1-5,2.17h-.2a7.47,7.47,0,0,1-4.44-1.32,4.79,4.79,0,0,1-1.9-4.25,26.45,26.45,0,0,1,1-5.9,31.14,31.14,0,0,1,3.59-8.31q-1.81,0-3.59,2.69a35.48,35.48,0,0,0-3.32,6.54c-1,2.57-2,5.33-2.88,8.26s-1.69,5.75-2.37,8.47-1.26,5-1.71,6.95Q847.1,479.26,846.84,480.23Z" transform="translate(-776.39 -411.23)"/><path class="cls-1" d="M889.13,471.15q.48-2.83,1.07-6.55c.2-1.23.41-2.47.64-3.71-.85,1.86-1.74,3.71-2.69,5.57a42,42,0,0,1-5.47,8.25q-2.92,3.38-6,3.52a7.21,7.21,0,0,1-4.79-1.49,7,7,0,0,1-2.15-3.47,14.67,14.67,0,0,1-.53-3.64,71.29,71.29,0,0,1,2-14.6,102,102,0,0,1,4-14.21q1.51-2.1,5.62-2.1a12.94,12.94,0,0,1,6.78,1.86l-1.46,4.88q-1.41,4.4-2.71,9.35a94.09,94.09,0,0,0-2.12,11.11v1.27a6.54,6.54,0,0,0,.24,1.78c.16.57.42.86.78.86q1.08,0,3.1-3.79t4.13-8.66q1.95-4.65,4-11.33a28.51,28.51,0,0,1,1.07-3.47c.88-1.85,3.41-2.85,7.57-3a9,9,0,0,1,5.08,1.37,143.73,143.73,0,0,0-4.49,19.09q-.74,3.76-1.51,7.62l-.59,2.83,8.59-3.76,4.74-2.1q-.24,1.91-13.87,8.4-1.51,6.74-3.42,13.13a88.82,88.82,0,0,1-3,8.5,41.06,41.06,0,0,1-4.22,7.86,23.06,23.06,0,0,1-6.69,6.52,17.46,17.46,0,0,1-9.57,2.52,8.75,8.75,0,0,1-6.64-2.79,10.33,10.33,0,0,1-2.64-7.42q0-7.62,8-15A68.33,68.33,0,0,1,888.2,476C888.46,474.65,888.77,473,889.13,471.15Zm-2.73,12.54,1.07-4.44a58.19,58.19,0,0,0-7,4.37,36.13,36.13,0,0,0-6.2,5.69,23.23,23.23,0,0,0-3.62,5.57,15,15,0,0,0-1.36,6.34,5.9,5.9,0,0,0,.83,3.32,3,3,0,0,0,2.68,1.27,6.5,6.5,0,0,0,4.93-2.54,25.4,25.4,0,0,0,4-6.2,58.06,58.06,0,0,0,3-7.42Q885.86,486,886.4,483.69Z" transform="translate(-776.39 -411.23)"/><path class="cls-1" d="M939.57,471.05a5.84,5.84,0,0,0,.19,1.51.91.91,0,0,0,1,.73c.59,0,1.29-.45,2.12-1.36a28.56,28.56,0,0,0,2.67-3.52,93.55,93.55,0,0,0,4.59-8.32c1.43-2.95,2.45-5.2,3.07-6.77a27.77,27.77,0,0,1-1.71,6.13,78.81,78.81,0,0,1-4.59,10.43,46,46,0,0,1-3.59,5.83,21.11,21.11,0,0,1-4,4.32,6.81,6.81,0,0,1-4.25,1.66,6.73,6.73,0,0,1-4.64-1.44,7.34,7.34,0,0,1-2.2-3.44,13.24,13.24,0,0,1-.58-3.71,44,44,0,0,1,.68-7.18,51.52,51.52,0,0,1-3,6.64,25.8,25.8,0,0,1-5,6.79,7.15,7.15,0,0,1-5,2.34,7.42,7.42,0,0,1-3.22-.63,6.36,6.36,0,0,1-2.15-1.61,8.44,8.44,0,0,1-1.66-3.3,13.21,13.21,0,0,1-.44-3,45.1,45.1,0,0,1,.42-5.13c.27-2.24.71-4.73,1.29-7.47a69.92,69.92,0,0,1,3-10.35,27,27,0,0,1,4-7.28,10.84,10.84,0,0,1,2.76-2.53,5.93,5.93,0,0,1,3.2-.93,12.63,12.63,0,0,1,6,1.54,17.67,17.67,0,0,1,5,4c0-.13.1-.35.2-.66s.21-.65.34-1a4.81,4.81,0,0,1,3-3,14.23,14.23,0,0,1,5-.83,9.84,9.84,0,0,1,2.88.39,4.18,4.18,0,0,1,2,1.17q-.82,2.29-1.85,5.52-1.32,4-2.64,8.69c-.91,3.22-1.65,6.31-2.2,9.28A36,36,0,0,0,939.57,471.05Zm-6.89-23.29c-1.53-2.22-3-3.32-4.29-3.32-1.11,0-2.13,1-3.08,2.88a39.52,39.52,0,0,0-3,8.64q-.93,3.57-1.51,6.93a73.65,73.65,0,0,0-1,7.91,7.18,7.18,0,0,0,.2,1.69.9.9,0,0,0,.93.8c.61,0,1.35-.64,2.19-1.92a36,36,0,0,0,2.64-5q1.95-4.4,3.71-9.18Q931.86,450.54,932.68,447.76Z" transform="translate(-776.39 -411.23)"/><path class="cls-1" d="M975.36,449.17q-2.4,1.9-5.18,7.57c-.74,1.5-1.48,3-2.19,4.59q-1.56,3.66-3,7.67-2.44,6.58-3.66,11.23a14.7,14.7,0,0,1-5.86,1.46,7.37,7.37,0,0,1-5.71-2.34,9.27,9.27,0,0,1-1.91-6.25,74.14,74.14,0,0,1,1.81-13.7,98.75,98.75,0,0,1,5-17c1.1-1.92,3.63-2.92,7.57-3a8.73,8.73,0,0,1,5.07,1.41q-2.88,4.89-5.66,14.41t-3,15c.07,2,.41,3.07,1,3.07q.78-2.69,2.19-6.88t3.76-9.57a68.4,68.4,0,0,1,4.4-8.16,29.8,29.8,0,0,1,5.66-6.81,9.87,9.87,0,0,1,6.54-2.66,6.48,6.48,0,0,1,3.76,1.15,4.31,4.31,0,0,1,1.66,3.83q0,1.9-1.95,8.16-3.81,12.69-3.81,18.7c.07,1.5.47,2.24,1.22,2.24s1.83-.81,3.06-2.44a51.37,51.37,0,0,0,3.73-5.86c1.27-2.27,2.42-4.49,3.44-6.64s1.77-3.82,2.22-5a18.43,18.43,0,0,1-1,4.11q-1,3.17-2.78,7.25a70.55,70.55,0,0,1-4.06,7.93,32.21,32.21,0,0,1-4.93,6.47,7.71,7.71,0,0,1-5.37,2.61,6.66,6.66,0,0,1-5.52-2.44,9.44,9.44,0,0,1-1.9-6.15Q970,464.85,975.36,449.17Z" transform="translate(-776.39 -411.23)"/><path class="cls-1" d="M1041.28,432a18.77,18.77,0,0,0,2.44-3.9,15.09,15.09,0,0,0,1.27-6.35,5.46,5.46,0,0,0-1.29-3.69,4.84,4.84,0,0,0-3.84-1.49,5.37,5.37,0,0,0-4.29,2.13c-1.18,1.41-1.76,3.49-1.76,6.22q0,6.41,5.22,14.41a82.45,82.45,0,0,1,5.67,9.28,33.64,33.64,0,0,1,17.82,7.13q-9.91-4.06-16.65-4.16c.19.53.42,1.18.68,2a43.8,43.8,0,0,1,1.3,5,32,32,0,0,1,.61,6.37,21.18,21.18,0,0,1-5.25,14.51q-5.25,6-14.48,5.95a13.41,13.41,0,0,1-9.47-4q-4.26-4.05-4.25-11.08,0-6.15,4.78-12.09a26.75,26.75,0,0,1,13.09-8.57c-1.34-2.18-2.88-4.6-4.64-7.27a27.57,27.57,0,0,1-5-15.38,14.55,14.55,0,0,1,4.71-11q4.71-4.47,12.72-4.47a14.33,14.33,0,0,1,8,2,11.94,11.94,0,0,1,4.49,5.28,16.86,16.86,0,0,1,1.42,6.86,15.9,15.9,0,0,1-.47,3.9,10,10,0,0,1-1.39,3.23q-1.45,1.51-5.37,1.71A8.71,8.71,0,0,1,1041.28,432Zm-11.13,48.1q2.88,0,5-3.64a17.37,17.37,0,0,0,2.15-9,39.24,39.24,0,0,0-.83-9.37,28.26,28.26,0,0,0-2-5.32,13.28,13.28,0,0,0-6.49,4.34,18.41,18.41,0,0,0-3.32,6.4,23,23,0,0,0-1,6.4,18.16,18.16,0,0,0,1.34,6.93A5,5,0,0,0,1030.15,480.13Z" transform="translate(-776.39 -411.23)"/><path class="cls-1" d="M1064.47,481.69a10.55,10.55,0,0,1-6.69-2,12,12,0,0,1-3.81-5.15,17.42,17.42,0,0,1-1.22-6.35A35.42,35.42,0,0,1,1054,459a71.65,71.65,0,0,1,3-8.91,6.52,6.52,0,0,1,4.25-2.54,11.26,11.26,0,0,1,4-6.79,11.66,11.66,0,0,1,7.25-2.24,8.51,8.51,0,0,1,7.52,4q2.64,4,2.64,11.4a42.61,42.61,0,0,1-.44,6,11.35,11.35,0,0,0,5-2.1,10.11,10.11,0,0,0,3.25-4.45,6.49,6.49,0,0,1-2.35,5.28,13.33,13.33,0,0,1-6.1,2.68,35,35,0,0,1-3.27,9.77,23.14,23.14,0,0,1-6,7.66A12.65,12.65,0,0,1,1064.47,481.69Zm1.32-23.92a33.59,33.59,0,0,0-1.07,8.3,27.94,27.94,0,0,0,.22,3.1,9.68,9.68,0,0,0,1,3.47,2.67,2.67,0,0,0,2.52,1.53,4.29,4.29,0,0,0,3.32-1.85,17.62,17.62,0,0,0,2.63-4.79,35.07,35.07,0,0,0,1.66-6.15A23.12,23.12,0,0,1,1065.79,457.77Zm.59-10.5a6.9,6.9,0,0,1,3.27,1.27,29.07,29.07,0,0,0-2.83,5.76q3,4.54,9.47,5.52a49.51,49.51,0,0,0,.44-6.3,15.45,15.45,0,0,0-1.22-6.25,4.34,4.34,0,0,0-4.3-2.78,5.66,5.66,0,0,0-2.56.56A6.13,6.13,0,0,0,1066.38,447.27Z" transform="translate(-776.39 -411.23)"/><path class="cls-1" d="M1096.8,481.69a10.52,10.52,0,0,1-6.69-2,11.87,11.87,0,0,1-3.81-5.15,17.22,17.22,0,0,1-1.22-6.35,35.4,35.4,0,0,1,1.24-9.16,71.65,71.65,0,0,1,3-8.91,6.55,6.55,0,0,1,4.25-2.54,11.3,11.3,0,0,1,4-6.79,11.68,11.68,0,0,1,7.25-2.24,8.49,8.49,0,0,1,7.52,4q2.64,4,2.64,11.4a42.61,42.61,0,0,1-.44,6,11.39,11.39,0,0,0,5-2.1,10.17,10.17,0,0,0,3.24-4.45,6.51,6.51,0,0,1-2.34,5.28,13.37,13.37,0,0,1-6.11,2.68,34.41,34.41,0,0,1-3.27,9.77,23.12,23.12,0,0,1-6,7.66A12.67,12.67,0,0,1,1096.8,481.69Zm1.31-23.92a34.07,34.07,0,0,0-1.07,8.3,27.94,27.94,0,0,0,.22,3.1,10.1,10.1,0,0,0,1,3.47,2.67,2.67,0,0,0,2.52,1.53,4.29,4.29,0,0,0,3.32-1.85,17.36,17.36,0,0,0,2.64-4.79,36,36,0,0,0,1.66-6.15A23.16,23.16,0,0,1,1098.11,457.77Zm.59-10.5a6.9,6.9,0,0,1,3.27,1.27,29.63,29.63,0,0,0-2.83,5.76q3,4.54,9.47,5.52a47.74,47.74,0,0,0,.44-6.3,15.45,15.45,0,0,0-1.22-6.25,4.33,4.33,0,0,0-4.3-2.78,5.69,5.69,0,0,0-2.56.56A6.28,6.28,0,0,0,1098.7,447.27Z" transform="translate(-776.39 -411.23)"/><path class="cls-1" d="M1144.94,449.17q-2.4,1.9-5.18,7.57c-.74,1.5-1.48,3-2.19,4.59q-1.56,3.66-3,7.67-2.44,6.58-3.66,11.23a14.7,14.7,0,0,1-5.86,1.46,7.37,7.37,0,0,1-5.71-2.34,9.27,9.27,0,0,1-1.91-6.25,74.14,74.14,0,0,1,1.81-13.7,98.75,98.75,0,0,1,5-17c1.1-1.92,3.63-2.92,7.57-3a8.73,8.73,0,0,1,5.07,1.41q-2.88,4.89-5.66,14.41t-3,15c.07,2,.41,3.07,1,3.07q.78-2.69,2.19-6.88t3.76-9.57a68.4,68.4,0,0,1,4.4-8.16,29.8,29.8,0,0,1,5.66-6.81,9.87,9.87,0,0,1,6.54-2.66,6.48,6.48,0,0,1,3.76,1.15,4.31,4.31,0,0,1,1.66,3.83q0,1.9-2,8.16-3.81,12.69-3.81,18.7c.07,1.5.47,2.24,1.22,2.24s1.83-.81,3.06-2.44a51.37,51.37,0,0,0,3.73-5.86c1.27-2.27,2.42-4.49,3.44-6.64s1.77-3.82,2.23-5a18.68,18.68,0,0,1-1,4.11q-1,3.17-2.78,7.25a70.55,70.55,0,0,1-4.06,7.93,32.21,32.21,0,0,1-4.93,6.47,7.71,7.71,0,0,1-5.37,2.61,6.66,6.66,0,0,1-5.52-2.44,9.44,9.44,0,0,1-1.9-6.15Q1139.57,464.85,1144.94,449.17Z" transform="translate(-776.39 -411.23)"/><path class="cls-1" d="M1161.15,469.63a48.29,48.29,0,0,1,.66-6.66,67.24,67.24,0,0,1,2.08-9.16,32.9,32.9,0,0,1,5.17-10.84,11.56,11.56,0,0,1,3-2.61,6.58,6.58,0,0,1,3.49-.95,12.44,12.44,0,0,1,5.68,1.36,17.34,17.34,0,0,1,4.82,3.62c.22-.72.43-1.32.63-1.81q1.66-2.38,5.86-2.88a16.83,16.83,0,0,1,1.71-.1,9,9,0,0,1,5.08,1.37,93.25,93.25,0,0,0-3.13,12.21c-.46,2.18-.91,4.47-1.37,6.88q-1,5.08-2.1,10.45,4.11-1.8,8.6-3.76l4.73-2.1q-.24,1.91-13.86,8.4-1.52,6.74-3.42,13.13-1.27,4.26-3,8.5a41.65,41.65,0,0,1-4.23,7.86,22.94,22.94,0,0,1-6.69,6.52,17.41,17.41,0,0,1-9.57,2.52,8.75,8.75,0,0,1-6.64-2.79,10.32,10.32,0,0,1-2.63-7.42q0-7.62,8-15A68.41,68.41,0,0,1,1180.1,476q.83-4.05,2-11.38c.19-1.14.39-2.31.58-3.51a54,54,0,0,1-5.85,11.62,17.12,17.12,0,0,1-3.84,4,7.35,7.35,0,0,1-4.42,1.52,7.61,7.61,0,0,1-2.85-.49,6.56,6.56,0,0,1-2-1.27,7.62,7.62,0,0,1-2-3.49A13.86,13.86,0,0,1,1161.15,469.63Zm17.14,14.06c.36-1.46.72-2.94,1.07-4.44a58.19,58.19,0,0,0-7,4.37,36.13,36.13,0,0,0-6.2,5.69,23.19,23.19,0,0,0-3.61,5.57,15,15,0,0,0-1.37,6.34,6,6,0,0,0,.83,3.32,3,3,0,0,0,2.69,1.27,6.52,6.52,0,0,0,4.93-2.54,25.68,25.68,0,0,0,3.95-6.2,56.63,56.63,0,0,0,3-7.42Q1177.75,486,1178.29,483.69Zm7-36.47c-1.43-1.86-2.75-2.78-4-2.78a3,3,0,0,0-2.32,1.41,14.53,14.53,0,0,0-2,3.71,55.44,55.44,0,0,0-2.44,8.16c-.49,2.21-.87,4.21-1.13,6a30.37,30.37,0,0,0-.39,3.64,6.67,6.67,0,0,0,.22,1.68,1,1,0,0,0,1,.81c.65,0,1.42-.68,2.31-2a37.42,37.42,0,0,0,2.76-5.1c1.31-2.77,2.49-5.58,3.57-8.45C1184.2,450.87,1185,448.52,1185.32,447.22Z" transform="translate(-776.39 -411.23)"/></svg>