<svg id="Layer_1" data-name="Layer 1" xmlns="http://www.w3.org/2000/svg" viewBox="0 0 561.13 100.34"><defs><style>.cls-1{fill:#353535;}</style></defs><path class="cls-1" d="M706.25,504.31c1.11-1.57,3.06-2.51,5.86-2.84a13.61,13.61,0,0,1,1.86-.14,8.34,8.34,0,0,1,4.93,1.41c-.52,1.21-1.41,3.45-2.66,6.74s-2.58,7.15-4,11.57-2.61,9-3.64,13.6a59.37,59.37,0,0,0-1.54,12.62,10.91,10.91,0,0,0,1,5.13,3.41,3.41,0,0,0,3.22,1.91A5.94,5.94,0,0,0,715.8,552a20.42,20.42,0,0,0,3.49-5.79,45.75,45.75,0,0,0,2.35-7.33,13.88,13.88,0,0,1-6.28-3.83,9.77,9.77,0,0,1-2.46-6.91,7.86,7.86,0,0,1,1.63-4.95,10.51,10.51,0,0,1,4.18-3.25,19,19,0,0,0,5.42-5.35,12.26,12.26,0,0,0,2.29-7.05,13.39,13.39,0,0,0-1.42-6.23,10.33,10.33,0,0,0-4.34-4.37,15.42,15.42,0,0,0-7.47-1.61,21.07,21.07,0,0,0-9.79,2.25,24.09,24.09,0,0,0-7.47,5.88,27.13,27.13,0,0,0-4.76,8,23.67,23.67,0,0,0-1.66,8.5,16.35,16.35,0,0,0,1.41,6.79,12.13,12.13,0,0,0,4.4,5.12,16,16,0,0,1-6.79,1.61h-.73a9.25,9.25,0,0,1-6.15-2.58c-1.66-1.6-2.49-4-2.49-7.13a27.38,27.38,0,0,1,3.46-13.58,36.5,36.5,0,0,1,9.16-10.76,44.3,44.3,0,0,1,12.64-7.11,40.66,40.66,0,0,1,14-2.54,24.93,24.93,0,0,1,8.62,1.47,14.13,14.13,0,0,1,6.5,4.66,13.44,13.44,0,0,1,2.46,8.42,13.68,13.68,0,0,1-2.44,7.38q-2.44,3.81-8.15,7.22a9.8,9.8,0,0,1,4.41,1.81,10.57,10.57,0,0,1,3.3,4.18,16.23,16.23,0,0,1,1.27,6.9,23.15,23.15,0,0,1-.59,5.13,18.57,18.57,0,0,0,8.35-5.08,10.57,10.57,0,0,1-3.49,4.52,15.8,15.8,0,0,1-5.39,2.61,32.81,32.81,0,0,1-5.4,10.38,31.27,31.27,0,0,1-8.69,7.84,20.09,20.09,0,0,1-10.52,3,12.85,12.85,0,0,1-7.62-2,11.51,11.51,0,0,1-4.17-5.59,23.12,23.12,0,0,1-1.3-8,59.22,59.22,0,0,1,2.08-14.92q2.07-8,4.56-14.79T706.25,504.31Zm15.87,32a35,35,0,0,0,.54-5.71,4.67,4.67,0,0,0-.83-3.15,2.45,2.45,0,0,0-1.85-.91,2.49,2.49,0,0,0-2.64,2.74,6.93,6.93,0,0,0,1.29,4.17A9.26,9.26,0,0,0,722.12,536.29Z" transform="translate(-679.16 -489.8)"/><path class="cls-1" d="M749.61,558.8a14.66,14.66,0,0,1-5.86,1.46h-.14a7.09,7.09,0,0,1-5.45-2.17q-2-2.18-2-6.42a74.83,74.83,0,0,1,1.8-13.7A97.11,97.11,0,0,1,743,521c1.08-1.6,3-2.56,5.81-2.88a14.49,14.49,0,0,1,1.71-.1,9,9,0,0,1,5.13,1.41,40.28,40.28,0,0,0-3.25,8.26q-1.87,6-3.39,12.64a48.83,48.83,0,0,0-1.52,9.72v.29c0,1,.17,1.56.49,1.56.33-1.17.7-2.6,1.13-4.29.52-2.18,1.14-4.59,1.88-7.23s1.57-5.27,2.53-7.91a52.33,52.33,0,0,1,3.42-7.52,19.42,19.42,0,0,1,4.42-5.59,8.43,8.43,0,0,1,5.52-2,6.22,6.22,0,0,1,3.78,1.2c1.09.8,1.64,2.16,1.64,4.08a12.52,12.52,0,0,1-.59,3.29c-.39,1.35-.81,2.7-1.27,4s-.91,2.7-1.27,4a13.21,13.21,0,0,0-.53,3.39c0,1.4.31,2.1.83,2.1s1.39-.51,2.32-1.53a29.64,29.64,0,0,0,2.56-3.3,15,15,0,0,0,1.51-2.64,10.12,10.12,0,0,1-1.27,4.2,15.57,15.57,0,0,1-3.44,4.62,7.8,7.8,0,0,1-5,2.17h-.2a7.47,7.47,0,0,1-4.44-1.32,4.79,4.79,0,0,1-1.9-4.25,26.45,26.45,0,0,1,1-5.9,31.42,31.42,0,0,1,3.58-8.31c-1.2,0-2.4.9-3.58,2.69a35.48,35.48,0,0,0-3.32,6.54c-1,2.57-2,5.33-2.89,8.26s-1.68,5.75-2.36,8.47-1.26,5-1.71,7C750,557.22,749.78,558.15,749.61,558.8Z" transform="translate(-679.16 -489.8)"/><path class="cls-1" d="M791.9,549.72q.48-2.84,1.07-6.55c.2-1.23.41-2.47.64-3.71-.85,1.86-1.74,3.71-2.69,5.57a42,42,0,0,1-5.47,8.25q-2.93,3.38-6,3.52a7.21,7.21,0,0,1-4.79-1.49,7,7,0,0,1-2.15-3.47,14.67,14.67,0,0,1-.53-3.64,71.29,71.29,0,0,1,2-14.6,102,102,0,0,1,4-14.21q1.51-2.1,5.62-2.1a12.94,12.94,0,0,1,6.78,1.86L789,524q-1.41,4.4-2.71,9.35a94.09,94.09,0,0,0-2.12,11.11v1.27a6.54,6.54,0,0,0,.24,1.78c.16.57.42.86.78.86q1.08,0,3.1-3.79t4.13-8.66q2-4.65,4.05-11.33a28.51,28.51,0,0,1,1.07-3.47c.88-1.85,3.41-2.85,7.57-3a9,9,0,0,1,5.08,1.37,143.73,143.73,0,0,0-4.49,19.09q-.74,3.76-1.51,7.62l-.59,2.83,8.59-3.76,4.74-2.1q-.24,1.9-13.87,8.4-1.51,6.74-3.42,13.13a88.82,88.82,0,0,1-3,8.5,41.06,41.06,0,0,1-4.22,7.86,23.19,23.19,0,0,1-6.69,6.52,17.46,17.46,0,0,1-9.57,2.52,8.74,8.74,0,0,1-6.64-2.79,10.33,10.33,0,0,1-2.64-7.42q0-7.62,8-15A68.33,68.33,0,0,1,791,554.55C791.23,553.22,791.54,551.6,791.9,549.72Zm-2.74,12.54q.54-2.19,1.08-4.44a58.19,58.19,0,0,0-7,4.37,36.13,36.13,0,0,0-6.2,5.69,23.23,23.23,0,0,0-3.62,5.57,15,15,0,0,0-1.36,6.34,5.9,5.9,0,0,0,.83,3.32,3,3,0,0,0,2.68,1.27,6.52,6.52,0,0,0,4.93-2.54,25.4,25.4,0,0,0,4-6.2,59.56,59.56,0,0,0,3-7.42Q788.63,564.56,789.16,562.26Z" transform="translate(-679.16 -489.8)"/><path class="cls-1" d="M842.34,549.62a5.84,5.84,0,0,0,.19,1.51.91.91,0,0,0,1,.73c.59,0,1.29-.45,2.12-1.36A29.6,29.6,0,0,0,848.3,547a93.55,93.55,0,0,0,4.59-8.32c1.43-2.95,2.45-5.2,3.07-6.77a27.77,27.77,0,0,1-1.71,6.13,78.81,78.81,0,0,1-4.59,10.43,46,46,0,0,1-3.59,5.83,21.11,21.11,0,0,1-4,4.32,6.81,6.81,0,0,1-4.25,1.66,6.73,6.73,0,0,1-4.64-1.44,7.27,7.27,0,0,1-2.2-3.44,13.24,13.24,0,0,1-.58-3.71,44,44,0,0,1,.68-7.18,51.52,51.52,0,0,1-3,6.64,25.8,25.8,0,0,1-5,6.79,7.15,7.15,0,0,1-5,2.34,7.42,7.42,0,0,1-3.22-.63,6.36,6.36,0,0,1-2.15-1.61,8.44,8.44,0,0,1-1.66-3.3,13.21,13.21,0,0,1-.44-3.05,45.1,45.1,0,0,1,.42-5.13q.4-3.36,1.29-7.47a69.92,69.92,0,0,1,3-10.35,27,27,0,0,1,4-7.28,10.84,10.84,0,0,1,2.76-2.53,5.93,5.93,0,0,1,3.2-.93,12.63,12.63,0,0,1,6,1.54,17.67,17.67,0,0,1,5,4c0-.13.1-.35.2-.66s.21-.65.34-1a4.81,4.81,0,0,1,3-3,14.23,14.23,0,0,1,5-.83,9.84,9.84,0,0,1,2.88.39,4.18,4.18,0,0,1,2,1.17q-.82,2.3-1.85,5.52-1.32,4.05-2.64,8.69c-.91,3.22-1.65,6.31-2.2,9.28A36,36,0,0,0,842.34,549.62Zm-6.89-23.29c-1.53-2.22-3-3.32-4.29-3.32-1.11,0-2.14,1-3.08,2.88a39.52,39.52,0,0,0-3,8.64q-.93,3.57-1.51,6.93a73.65,73.65,0,0,0-1,7.91,7.18,7.18,0,0,0,.2,1.69.9.9,0,0,0,.93.8c.61,0,1.35-.64,2.19-1.92a36,36,0,0,0,2.64-5q2-4.4,3.71-9.18Q834.63,529.11,835.45,526.33Z" transform="translate(-679.16 -489.8)"/><path class="cls-1" d="M878.13,527.74q-2.4,1.9-5.18,7.57-1.12,2.25-2.19,4.59c-1,2.44-2,5-3,7.67q-2.44,6.58-3.66,11.23a14.7,14.7,0,0,1-5.86,1.46,7.4,7.4,0,0,1-5.72-2.34,9.32,9.32,0,0,1-1.9-6.25A74.14,74.14,0,0,1,852.4,538a98.75,98.75,0,0,1,5-17c1.1-1.92,3.63-2.92,7.56-3a8.74,8.74,0,0,1,5.08,1.41q-2.88,4.89-5.66,14.41t-3,15c.07,2.05.41,3.07,1,3.07q.78-2.68,2.19-6.88t3.76-9.57a67,67,0,0,1,4.4-8.16,29.8,29.8,0,0,1,5.66-6.81,9.87,9.87,0,0,1,6.54-2.66,6.48,6.48,0,0,1,3.76,1.15,4.31,4.31,0,0,1,1.66,3.83q0,1.9-1.95,8.16-3.81,12.69-3.81,18.7c.07,1.5.47,2.24,1.22,2.24s1.83-.81,3.06-2.44a51.37,51.37,0,0,0,3.73-5.86c1.27-2.27,2.42-4.49,3.44-6.64s1.77-3.82,2.22-5a18.43,18.43,0,0,1-1,4.11q-1,3.16-2.78,7.25a70.55,70.55,0,0,1-4.06,7.93,32.21,32.21,0,0,1-4.93,6.47,7.71,7.71,0,0,1-5.37,2.61,6.65,6.65,0,0,1-5.52-2.44,9.44,9.44,0,0,1-1.9-6.15Q872.76,543.42,878.13,527.74Z" transform="translate(-679.16 -489.8)"/><path class="cls-1" d="M905.67,499.52a8.28,8.28,0,0,1,2.05-5.25,6.15,6.15,0,0,1,4.69-1.93,5.68,5.68,0,0,1,4.64,2.2,7.69,7.69,0,0,1,1.75,4.93q0,4.69-4.27,10.62a48.61,48.61,0,0,1-10.23,10.43,26.83,26.83,0,0,1-11.38,5.42q4.59-2.94,9.53-10.06t5.17-11.72A6.25,6.25,0,0,1,905.67,499.52Z" transform="translate(-679.16 -489.8)"/><path class="cls-1" d="M937.41,523.06a7.61,7.61,0,0,1-.86,3.61c-.57,1.07-1.24,1.61-2,1.61a6.74,6.74,0,0,0,.68-3,4.41,4.41,0,0,0-.56-2.17,2,2,0,0,0-1.93-1,2.51,2.51,0,0,0-1.9.9,4.2,4.2,0,0,0-.83,2.91,24.31,24.31,0,0,0,.68,5.86c.45,1.85,1,3.66,1.51,5.42q8.45-5.17,14.9-5.28-6.55,1.67-14.31,7.13c.42,1.4.81,2.82,1.17,4.25a24.35,24.35,0,0,1,.59,5.37q0,6.89-3.81,11a12,12,0,0,1-9.13,4.13,6.17,6.17,0,0,1-4.54-1.76,6.24,6.24,0,0,1-1.76-4.64q0-6.63,6.83-13.28c-.16-.59-.34-1.17-.53-1.76-.62-1.92-1.18-3.88-1.66-5.88a25.88,25.88,0,0,1-.74-6.18,14.47,14.47,0,0,1,1.69-7.4,10.67,10.67,0,0,1,4.25-4.19,10.88,10.88,0,0,1,5.1-1.35,8.63,8.63,0,0,1,5,1.49A4.85,4.85,0,0,1,937.41,523.06Zm-16.95,36.32c1,0,1.82-.74,2.42-2.24a11.56,11.56,0,0,0,.9-4.3,23.21,23.21,0,0,0-.87-6.25q-4.06,5.37-4.06,9.38C918.92,558.24,919.45,559.38,920.46,559.38Z" transform="translate(-679.16 -489.8)"/><path class="cls-1" d="M990.63,538.73a115.68,115.68,0,0,0-2.25,20.41,10.68,10.68,0,0,1-6.2,2.78,11,11,0,0,1-1.76.15,7.83,7.83,0,0,1-4.68-1.37q0-11.28,4.78-30.27t4.79-26.12a10.63,10.63,0,0,1,6.2-2.79,11,11,0,0,1,1.76-.14,7.82,7.82,0,0,1,4.68,1.36q0,3.72-4.78,24c-.68,2.89-1.29,5.68-1.81,8.35h1.32a10.85,10.85,0,0,0,7.4-3.35,25.26,25.26,0,0,0,5.93-9.08,34,34,0,0,0,2.34-12.92,18.74,18.74,0,0,0-1.27-7,10.79,10.79,0,0,0-4.17-5.13,13.86,13.86,0,0,0-7.74-1.93,21.2,21.2,0,0,0-11.11,2.91,25,25,0,0,0-7.93,7.39,26.57,26.57,0,0,0-4.15,9.48,21,21,0,0,0-.49,4.44,18.05,18.05,0,0,0,.68,4.93,12.23,12.23,0,0,0,5.13,7,1.59,1.59,0,0,0-.29.15,12.2,12.2,0,0,1-2,.85,9.07,9.07,0,0,1-2.69.32,7.28,7.28,0,0,1-6.15-2.88,13.37,13.37,0,0,1-2.49-7.47c0-.46,0-.91,0-1.37a27.45,27.45,0,0,1,1.46-8.44,32.48,32.48,0,0,1,5.74-10.11,34.24,34.24,0,0,1,10.33-8.35,39.5,39.5,0,0,1,8.91-3.2,43.81,43.81,0,0,1,10.33-1.24q7.51,0,12.06,2.51a15.27,15.27,0,0,1,6.56,6.69,20.45,20.45,0,0,1,2,9.11,35.22,35.22,0,0,1-3.42,15.3,33.08,33.08,0,0,1-8.86,11.67,17.86,17.86,0,0,1-11.5,4.47,20.24,20.24,0,0,1-6.1-1A4,4,0,0,1,990.63,538.73Z" transform="translate(-679.16 -489.8)"/><path class="cls-1" d="M1031.35,560.26a10.55,10.55,0,0,1-6.69-2,12,12,0,0,1-3.81-5.15,17.42,17.42,0,0,1-1.22-6.35,35.42,35.42,0,0,1,1.25-9.16,71.65,71.65,0,0,1,3-8.91,6.55,6.55,0,0,1,4.25-2.54,11.26,11.26,0,0,1,4-6.79,11.68,11.68,0,0,1,7.25-2.24,8.5,8.5,0,0,1,7.52,4q2.64,4,2.64,11.4a42.61,42.61,0,0,1-.44,6,11.3,11.3,0,0,0,5-2.1,10.11,10.11,0,0,0,3.25-4.45,6.51,6.51,0,0,1-2.34,5.28,13.42,13.42,0,0,1-6.11,2.68,35,35,0,0,1-3.27,9.77,23.14,23.14,0,0,1-6,7.66A12.65,12.65,0,0,1,1031.35,560.26Zm1.32-23.92a33.59,33.59,0,0,0-1.07,8.3,27.94,27.94,0,0,0,.22,3.1,9.68,9.68,0,0,0,1,3.47,2.67,2.67,0,0,0,2.52,1.53,4.29,4.29,0,0,0,3.32-1.85,17.35,17.35,0,0,0,2.63-4.79A35.07,35.07,0,0,0,1043,540,23.12,23.12,0,0,1,1032.67,536.34Zm.59-10.5a6.9,6.9,0,0,1,3.27,1.27,29.63,29.63,0,0,0-2.83,5.76q3,4.54,9.47,5.52a49.51,49.51,0,0,0,.44-6.3,15.45,15.45,0,0,0-1.22-6.25,4.34,4.34,0,0,0-4.3-2.78,5.66,5.66,0,0,0-2.56.56A6.21,6.21,0,0,0,1033.26,525.84Z" transform="translate(-679.16 -489.8)"/><path class="cls-1" d="M1065.43,558.8a14.66,14.66,0,0,1-5.85,1.46h-.15a7.09,7.09,0,0,1-5.45-2.17q-2-2.18-2-6.42a74.83,74.83,0,0,1,1.8-13.7,97.11,97.11,0,0,1,5.08-17c1.08-1.6,3-2.56,5.81-2.88a14.49,14.49,0,0,1,1.71-.1,9,9,0,0,1,5.13,1.41,40.28,40.28,0,0,0-3.25,8.26q-1.87,6-3.39,12.64a48.83,48.83,0,0,0-1.52,9.72v.29c0,1,.17,1.56.49,1.56.33-1.17.7-2.6,1.13-4.29.52-2.18,1.14-4.59,1.88-7.23s1.58-5.27,2.54-7.91a52.29,52.29,0,0,1,3.41-7.52,19.42,19.42,0,0,1,4.42-5.59,8.43,8.43,0,0,1,5.52-2,6.22,6.22,0,0,1,3.78,1.2c1.09.8,1.64,2.16,1.64,4.08a12.52,12.52,0,0,1-.59,3.29c-.39,1.35-.81,2.7-1.27,4s-.91,2.7-1.27,4a13.21,13.21,0,0,0-.53,3.39c0,1.4.31,2.1.83,2.1s1.39-.51,2.32-1.53a29.64,29.64,0,0,0,2.56-3.3,15,15,0,0,0,1.51-2.64,10.12,10.12,0,0,1-1.27,4.2,15.57,15.57,0,0,1-3.44,4.62,7.8,7.8,0,0,1-5,2.17h-.2a7.47,7.47,0,0,1-4.44-1.32,4.79,4.79,0,0,1-1.9-4.25,26.45,26.45,0,0,1,1-5.9,31.14,31.14,0,0,1,3.59-8.31q-1.82,0-3.59,2.69a35.48,35.48,0,0,0-3.32,6.54c-1,2.57-2,5.33-2.88,8.26s-1.69,5.75-2.37,8.47-1.26,5-1.71,7Q1065.69,557.83,1065.43,558.8Z" transform="translate(-679.16 -489.8)"/><path class="cls-1" d="M1096.49,512.31l.59-1.95q3.32-11.82,4.93-16.6a18.76,18.76,0,0,1,7.32-1.56,9.74,9.74,0,0,1,2.88.39,3.86,3.86,0,0,1,2,1.22q-2.19,6.24-5.56,17.82l-.34,1.17a51.79,51.79,0,0,0,7.71-.93q-.63,2.1-4.1,3.28a31.64,31.64,0,0,1-4.64,1.27q-2.58,9.12-4.74,18-2.73,11.24-2.73,15.24a5.85,5.85,0,0,0,.2,1.51.9.9,0,0,0,1,.73c1.11,0,2.35-.81,3.74-2.44a43.14,43.14,0,0,0,4.12-5.86c1.37-2.27,2.58-4.49,3.62-6.64s1.79-3.82,2.24-5a18.35,18.35,0,0,1-1,4.3,67.58,67.58,0,0,1-2.86,7.25,62.52,62.52,0,0,1-4.27,7.86,30.22,30.22,0,0,1-5.32,6.4,8.86,8.86,0,0,1-5.91,2.56,6.84,6.84,0,0,1-4.69-1.44,7.34,7.34,0,0,1-2.2-3.44,13.24,13.24,0,0,1-.58-3.71q0-4.83,3-17.19,2-8.4,4.2-16.55c-.75.1-1.39.16-1.91.19a3.52,3.52,0,0,1-1.61-2.93c0-.39,0-.76,0-1.12a6.47,6.47,0,0,1,.44-2.44C1093.45,511.89,1095,512.12,1096.49,512.31Z" transform="translate(-679.16 -489.8)"/><path class="cls-1" d="M1123.34,549.18a31.16,31.16,0,0,1,2.79,6.49,68.24,68.24,0,0,1,1.95,7.77,53.14,53.14,0,0,1,1,10.3v.49a21.8,21.8,0,0,1-2.54,10.94,9.24,9.24,0,0,1-3.27,3.19,9.76,9.76,0,0,1-4.94,1.15,10.57,10.57,0,0,1-6.59-1.88,10.35,10.35,0,0,1-3.49-4.93,20.07,20.07,0,0,1-1-6.57A119.39,119.39,0,0,1,1108.6,560q1.67-12.21,4.59-26,2.25-10.63,4.78-20.46,2.44-9.61,4.79-16.84a6.22,6.22,0,0,1,3.56-3.4,12.54,12.54,0,0,1,4.74-1.09,10,10,0,0,1,2.9.39,3.59,3.59,0,0,1,1.93,1.22q-2.19,6.19-4.15,12.45-2.84,8.94-5.22,17.92-2.93,11-5.32,22.31a12.91,12.91,0,0,0,6.25-3.12,25.35,25.35,0,0,0,4.39-5.08,33.21,33.21,0,0,0,3.27-6.4,16.52,16.52,0,0,1-2.24,7.47,26.37,26.37,0,0,1-4.4,5.86A23.14,23.14,0,0,1,1123.34,549.18Zm-2.78,1.37c-.16.68-.41,2-.76,4.07s-.74,4.41-1.19,7.11q-.88,5.52-1.66,10.89a81.12,81.12,0,0,0-1,9.57,11,11,0,0,0,.12,1.49,3.63,3.63,0,0,0,.57,1.51,1.56,1.56,0,0,0,1.41.66c1.17,0,2.14-1,2.91-3a31.93,31.93,0,0,0,1.68-7.47,79,79,0,0,0,.54-9.33,60.7,60.7,0,0,0-.66-9.25A16.87,16.87,0,0,0,1120.56,550.55Z" transform="translate(-679.16 -489.8)"/><path class="cls-1" d="M1140.78,560.26a10.52,10.52,0,0,1-6.69-2,11.87,11.87,0,0,1-3.81-5.15,17.22,17.22,0,0,1-1.22-6.35,35.4,35.4,0,0,1,1.24-9.16,70.06,70.06,0,0,1,3-8.91,6.5,6.5,0,0,1,4.24-2.54,11.3,11.3,0,0,1,4-6.79,11.68,11.68,0,0,1,7.25-2.24,8.49,8.49,0,0,1,7.52,4q2.64,4,2.64,11.4a42.61,42.61,0,0,1-.44,6,11.39,11.39,0,0,0,5-2.1,10.17,10.17,0,0,0,3.24-4.45,6.51,6.51,0,0,1-2.34,5.28,13.38,13.38,0,0,1-6.1,2.68,34.74,34.74,0,0,1-3.28,9.77,23.12,23.12,0,0,1-6,7.66A12.67,12.67,0,0,1,1140.78,560.26Zm1.31-23.92a34.07,34.07,0,0,0-1.07,8.3,27.94,27.94,0,0,0,.22,3.1,9.89,9.89,0,0,0,1,3.47,2.65,2.65,0,0,0,2.51,1.53,4.29,4.29,0,0,0,3.32-1.85,17.36,17.36,0,0,0,2.64-4.79,36,36,0,0,0,1.66-6.15A23.16,23.16,0,0,1,1142.09,536.34Zm.59-10.5a6.86,6.86,0,0,1,3.27,1.27,29.63,29.63,0,0,0-2.83,5.76q3,4.54,9.47,5.52a47.74,47.74,0,0,0,.44-6.3,15.45,15.45,0,0,0-1.22-6.25,4.32,4.32,0,0,0-4.3-2.78,5.69,5.69,0,0,0-2.56.56A6.28,6.28,0,0,0,1142.68,525.84Z" transform="translate(-679.16 -489.8)"/><path class="cls-1" d="M1175.59,493.76a18.8,18.8,0,0,1,7.32-1.56,9.86,9.86,0,0,1,2.89.39,3.94,3.94,0,0,1,2,1.22q-1.51,4.29-4.91,15.62t-6.44,23.29q-3.06,12-3.06,16.9c0,1.5.43,2.24,1.18,2.24s1.84-.81,3.07-2.44a48.67,48.67,0,0,0,3.76-5.86c1.27-2.27,2.41-4.49,3.42-6.64s1.74-3.82,2.2-5a19.16,19.16,0,0,1-1,4.11q-1,3.16-2.76,7.25a70.48,70.48,0,0,1-4,7.93,32.28,32.28,0,0,1-5,6.47,7.76,7.76,0,0,1-5.35,2.61,6.47,6.47,0,0,1-5.91-2.93,10.42,10.42,0,0,1-1.56-5.66q0-5.61,2.91-17.73t6.25-23.6Q1173.89,498.84,1175.59,493.76Z" transform="translate(-679.16 -489.8)"/><path class="cls-1" d="M1194.34,549.62a5.85,5.85,0,0,0,.2,1.51.9.9,0,0,0,1,.73q1.66,0,4.23-3.66a64.65,64.65,0,0,0,4.85-8.27,56.29,56.29,0,0,0,3.37-8,19.84,19.84,0,0,1-.9,4.2q-.9,3.18-2.51,7.23a57.36,57.36,0,0,1-3.89,7.91,29,29,0,0,1-5,6.44,8.35,8.35,0,0,1-5.81,2.59,6.84,6.84,0,0,1-4.69-1.44,7.34,7.34,0,0,1-2.2-3.44,13.24,13.24,0,0,1-.58-3.71,51.21,51.21,0,0,1,1.27-10.3q1.26-6.06,2.93-11.92t3-9.91a19.07,19.07,0,0,1,7.33-1.56,10,10,0,0,1,2.9.39,3.79,3.79,0,0,1,1.93,1.17q-1.32,3.66-3,9.23t-3.06,11.3A43.76,43.76,0,0,0,1194.34,549.62Zm5.13-38.09a6.23,6.23,0,0,1-4.3-2.68,7,7,0,0,1-1.27-4.15c0-.33,0-.67,0-1a7.33,7.33,0,0,1,2.59-4.64,6.35,6.35,0,0,1,4.1-1.46,5.11,5.11,0,0,1,.78.05,6.3,6.3,0,0,1,4.3,2.68,7.24,7.24,0,0,1,1.27,4.15c0,.33,0,.67,0,1a7.37,7.37,0,0,1-2.59,4.69,6.15,6.15,0,0,1-3.95,1.41A7.44,7.44,0,0,1,1199.47,511.53Z" transform="translate(-679.16 -489.8)"/><path class="cls-1" d="M1214.31,560.26a10.55,10.55,0,0,1-6.69-2,12,12,0,0,1-3.81-5.15,17.42,17.42,0,0,1-1.22-6.35,35.42,35.42,0,0,1,1.25-9.16,71.65,71.65,0,0,1,3-8.91,6.52,6.52,0,0,1,4.25-2.54,11.26,11.26,0,0,1,4-6.79,11.66,11.66,0,0,1,7.25-2.24,8.51,8.51,0,0,1,7.52,4q2.64,4,2.64,11.4a42.61,42.61,0,0,1-.44,6,11.35,11.35,0,0,0,5-2.1,10.11,10.11,0,0,0,3.25-4.45,6.49,6.49,0,0,1-2.35,5.28,13.33,13.33,0,0,1-6.1,2.68,35,35,0,0,1-3.27,9.77,23.14,23.14,0,0,1-6,7.66A12.65,12.65,0,0,1,1214.31,560.26Zm1.32-23.92a33.59,33.59,0,0,0-1.07,8.3,27.94,27.94,0,0,0,.22,3.1,9.68,9.68,0,0,0,1,3.47,2.67,2.67,0,0,0,2.52,1.53,4.29,4.29,0,0,0,3.32-1.85,17.62,17.62,0,0,0,2.63-4.79,35.07,35.07,0,0,0,1.66-6.15A23.12,23.12,0,0,1,1215.63,536.34Zm.59-10.5a6.9,6.9,0,0,1,3.27,1.27,29.07,29.07,0,0,0-2.83,5.76q3,4.54,9.47,5.52a49.51,49.51,0,0,0,.44-6.3,15.45,15.45,0,0,0-1.22-6.25,4.34,4.34,0,0,0-4.3-2.78,5.66,5.66,0,0,0-2.56.56A6.13,6.13,0,0,0,1216.22,525.84Z" transform="translate(-679.16 -489.8)"/></svg>